<?xml version="1.0" standalone="no"?>
<!DOCTYPE svg PUBLIC "-//W3C//DTD SVG 1.1//EN" "http://www.w3.org/Graphics/SVG/1.1/DTD/svg11.dtd" >
<svg xmlns="http://www.w3.org/2000/svg" xmlns:xlink="http://www.w3.org/1999/xlink" version="1.1">
<metadata>
Created by FontForge 20170731 at Mon Sep 12 12:01:30 2022
 By Aleksey,,,
</metadata>
<defs>
<font id="Trap-SemiBold" horiz-adv-x="1200" >
  <font-face 
    font-family="Inktrap SemBd"
    font-weight="600"
    font-stretch="normal"
    units-per-em="2048"
    panose-1="0 0 0 0 0 0 0 0 0 0"
    ascent="1536"
    descent="-512"
    x-height="1024"
    cap-height="1434"
    bbox="-25 -512 2154 1536"
    underline-thickness="102"
    underline-position="-358"
    unicode-range="U+000D-2022"
  />
<missing-glyph horiz-adv-x="512" 
 />
    <glyph glyph-name=".notdef" horiz-adv-x="512" 
 />
    <glyph glyph-name="uni0000" horiz-adv-x="0" 
 />
    <glyph glyph-name="uni0000" horiz-adv-x="0" 
 />
    <glyph glyph-name="uni000D" unicode="&#xd;" horiz-adv-x="512" 
 />
    <glyph glyph-name="space" unicode=" " horiz-adv-x="512" 
 />
    <glyph glyph-name="exclam" unicode="!" horiz-adv-x="550" 
d="M172 287l-25 1147h256l-28 -1147h-203zM160 -33v205h225v-205h-225z" />
    <glyph glyph-name="quotedbl" unicode="&#x22;" horiz-adv-x="839" 
d="M178 961l-31 503h226l-31 -503h-164zM496 961l-31 503h225l-31 -503h-163z" />
    <glyph glyph-name="numbersign" unicode="#" horiz-adv-x="1505" 
d="M195 860v184h307l63 361h195l-64 -361h275l63 361h195l-64 -361h183v-184h-213l-45 -250h258v-184h-291l-68 -395h-194l67 395h-274l-70 -395h-194l69 395h-198v184h231l45 250h-276zM670 610h176q9 0 16.5 -2.5t15.5 -10t11 -10t12 -15t10 -13.5l31 27q-3 4 -13.5 16.5
t-14.5 18.5t-8 17t-3 21l27 152q2 11 9.5 21.5t13.5 15.5t20.5 16t17.5 13l-26 30q-3 -2 -20.5 -18t-29.5 -22.5t-26 -6.5h-174q-7 0 -14.5 2.5t-12 5t-11.5 10t-9.5 10t-10 12.5t-8.5 11l-33 -26q3 -4 10 -11.5t10 -11t9 -11.5t7 -12t3.5 -13t-0.5 -15l-26 -152
q-1 -10 -8.5 -20.5t-13.5 -15.5t-20.5 -16t-17.5 -13l27 -31q6 5 17 15t18 16t18 11t21 5z" />
    <glyph glyph-name="ampersand" unicode="&#x26;" horiz-adv-x="1753" 
d="M1176 109q-55 -48 -106.5 -77t-139 -49t-205.5 -20q-128 0 -229.5 27t-166 70t-107 101.5t-60 117t-17.5 120.5q0 279 424 432q-202 150 -202 302q0 150 105.5 239.5t293.5 89.5q177 0 284 -95t107 -234q0 -102 -65 -190t-234 -165l383 -366q58 66 80 115t25 116h184
q0 -102 -40 -195.5t-112 -162.5l285 -285h-240l-108 106q-47 45 -47 162h-41q0 -115 -51 -159zM573 1135q0 -90 170 -236q115 51 167.5 105t52.5 120q0 69 -49.5 117.5t-141.5 48.5t-145.5 -46.5t-53.5 -108.5zM1087 295l-403 401q-170 -73 -241.5 -137t-71.5 -141
q0 -43 17.5 -83t56 -77t110.5 -59.5t170 -22.5q213 0 362 119z" />
    <glyph glyph-name="quotesingle" unicode="'" horiz-adv-x="518" 
d="M158 961l-29 503h225l-28 -503h-168z" />
    <glyph glyph-name="parenleft" unicode="(" horiz-adv-x="854" 
d="M508 -324q-133 293 -191 482.5t-59 402.5q-1 212 57.5 408.5t192.5 494.5h215q-69 -151 -109.5 -250.5t-78.5 -215.5t-53.5 -221.5t-14.5 -215.5q1 -209 59.5 -395.5t194.5 -489.5h-213z" />
    <glyph glyph-name="parenright" unicode=")" horiz-adv-x="696" 
d="M305 -324h-205q56 124 85.5 192t65 163.5t52 167t29 162.5t14.5 190q1 123 -13 230t-51.5 224t-75 209t-108.5 250h205q63 -140 90.5 -203t68 -170.5t57 -178.5t29 -166.5t11.5 -194.5q-3 -156 -37 -302.5t-71.5 -239.5t-129.5 -297q-10 -24 -16 -36z" />
    <glyph glyph-name="asterisk" unicode="*" horiz-adv-x="1128" 
d="M559 915l-156 -192l-131 98l166 221q6 9 17 15t19 8.5t24 6t22 5.5l-12 39q-6 -2 -21 -7.5t-22 -7.5t-22 -4t-21 3l-264 96l57 156l244 -82q13 -5 22.5 -14.5t21 -29t15.5 -24.5l33 25q-3 4 -14 17t-16 19.5t-10 18t-5 21.5v233h164l4 -233q1 -13 -5.5 -25.5t-20 -29
t-17.5 -23.5l33 -23q4 5 15.5 24.5t21 29t22.5 14.5l244 82l59 -156l-266 -96q-7 -5 -21.5 -3t-22 4t-22.5 7.5t-22 7.5l-10 -39q6 -2 21.5 -5.5t23.5 -6t19 -8.5t17 -15l170 -221l-131 -98l-159 192q-7 9 -10.5 21.5t-3.5 21t0.5 25t0.5 21.5h-41q0 -7 1 -23t1 -25t-3 -21
t-9 -20z" />
    <glyph glyph-name="plus" unicode="+" horiz-adv-x="1171" 
d="M205 516v195h272v284h205v-284h285v-195h-285v-289h-205v289h-272z" />
    <glyph glyph-name="comma" unicode="," horiz-adv-x="548" 
d="M223 0h-65v215h235v-213q0 -100 -60.5 -159.5t-166.5 -59.5v102q78 0 100 60q14 32 74 73l-27 33q-6 -4 -20 -16t-22.5 -18t-22 -11.5t-25.5 -5.5z" />
    <glyph glyph-name="hyphen" unicode="-" horiz-adv-x="806" 
d="M127 494v198h578v-198h-578z" />
    <glyph glyph-name="period" unicode="." horiz-adv-x="518" 
d="M143 0v229h230v-229h-230z" />
    <glyph glyph-name="slash" unicode="/" horiz-adv-x="798" 
d="M59 0l428 1464h215l-428 -1464h-215z" />
    <glyph glyph-name="zero" unicode="0" horiz-adv-x="1222" 
d="M63 717q0 161 36.5 296.5t107 236.5t180.5 157.5t250 56.5t250 -56.5t180 -157.5t106.5 -236.5t36.5 -296.5t-36.5 -297t-106.5 -237.5t-180 -158.5t-250 -57q-185 0 -316.5 99.5t-194.5 266.5t-63 384zM299 717q0 -106 19.5 -198t58.5 -166.5t105.5 -117t154.5 -42.5
t154.5 42.5t105.5 117t58.5 166.5t19.5 198t-19.5 197.5t-58.5 165t-105.5 115.5t-154.5 42t-154.5 -42t-105.5 -115.5t-58.5 -165t-19.5 -197.5z" />
    <glyph glyph-name="one" unicode="1" 
d="M557 1032q-121 -59 -244 -59v215q113 0 192 71.5t79 174.5h286v-1434h-229v987q0 62 66 178l-37 21q-4 -7 -17 -32.5t-20.5 -38t-20.5 -31.5t-26.5 -31.5t-28.5 -20.5z" />
    <glyph glyph-name="two" unicode="2" horiz-adv-x="1220" 
d="M516 293q-14 -15 -37.5 -29.5t-40 -22.5t-48.5 -22t-42 -18l17 -37q6 2 33 14t39.5 16.5t34.5 12.5t40 11t35 3h551v-221h-977v211q27 27 107 110.5t184.5 188.5t232.5 227q91 87 138 168t48 139.5t-24.5 103t-73 67t-104.5 22.5q-58 0 -102.5 -17.5t-70.5 -45t-42.5 -65
t-22.5 -72.5t-6 -74h-238q0 67 15.5 133t55 133.5t98 118.5t153 83.5t211.5 32.5q86 0 162 -32t128.5 -84.5t84 -123t35 -144.5t-25 -153t-89.5 -145q-291 -314 -459 -489z" />
    <glyph glyph-name="three" unicode="3" horiz-adv-x="1306" 
d="M1063 700q177 -112 174 -297q0 -213 -137 -323.5t-412 -110.5q-145 0 -255 33.5t-176.5 94t-100 138t-35.5 171.5h225q0 -114 92.5 -178t255.5 -64q318 0 318 268q0 45 -9 76.5t-34 55t-60 37t-95.5 22t-131 11.5t-176.5 3v205q120 0 198.5 5.5t137.5 19t90.5 39t46 61.5
t14.5 90q0 112 -71.5 162.5t-227.5 50.5q-154 0 -240.5 -64t-86.5 -178h-226q2 94 34 171.5t96 137.5t170 93.5t247 33.5q272 0 400.5 -92.5t128.5 -300.5q0 -173 -154 -276q-12 -8 -27.5 -13.5t-28 -8t-34 -4t-31.5 -2t-34.5 0t-30.5 0.5l2 -41q6 0 30 0.5t34 0t31 -2
t33.5 -4t28 -8t27.5 -13.5z" />
    <glyph glyph-name="four" unicode="4" horiz-adv-x="1359" 
d="M131 545l684 889h295l-2 -2v-861h201v-225h-201v-346h-229v346h-746zM815 1047l-323 -398q-17 -22 -49.5 -43.5t-51 -30t-61.5 -28.5l18 -37q4 2 23 11t26 12.5t24.5 11t28 10.5t25.5 7.5t28 6.5t25 2h351v453q0 21 6 48t12.5 45t18.5 51l16 44l-39 13q-4 -11 -14.5 -43
t-17.5 -50.5t-19.5 -43.5t-26.5 -41z" />
    <glyph glyph-name="five" unicode="5" horiz-adv-x="1306" 
d="M479 870q126 74 307 74q208 0 333.5 -128.5t125.5 -348.5t-153 -359t-402 -139q-210 0 -373.5 114.5t-212.5 305.5h267q19 -78 111.5 -141.5t222.5 -63.5q150 0 230.5 85t80.5 227q0 102 -72.5 169.5t-185.5 67.5q-273 0 -373 -141h-242l166 842h860v-215h-665l-72 -316
q-3 -17 -13.5 -36.5t-20 -33t-25.5 -35t-23 -30.5l35 -25q6 9 24.5 42t34.5 53.5t35 31.5z" />
    <glyph glyph-name="six" unicode="6" horiz-adv-x="1351" 
d="M440 811q142 131 361 131q192 0 325.5 -134.5t133.5 -326.5q0 -134 -64 -250t-188 -189t-281 -73q-596 0 -596 705q0 178 46.5 322.5t129.5 240t196 146.5t247 51q95 0 174 -23t132.5 -60t93 -87.5t60 -102t29.5 -106.5h-235q-20 68 -86.5 121t-147.5 53
q-149 0 -253 -105t-132 -288q-3 -21 -12 -47t-16.5 -44.5t-21 -49t-18.5 -42.5l37 -16q4 9 20 55.5t31 73.5t35 45zM395 469q0 -121 83.5 -200t234.5 -79q154 0 235.5 75t81.5 204q0 268 -297 268q-154 0 -246 -76t-92 -192z" />
    <glyph glyph-name="seven" unicode="7" 
d="M782 1219h-639v215h1026v-215q-67 -79 -136 -169t-162.5 -228t-166.5 -268.5t-131.5 -280.5t-72.5 -273h-264q14 141 78.5 311t156 326.5t178 281.5t168.5 224q11 13 25.5 25t35.5 23.5t33 17.5t39 17.5t33 14.5l-18 37q-125 -59 -183 -59z" />
    <glyph glyph-name="eight" unicode="8" horiz-adv-x="1294" 
d="M444 735q16 6 39.5 8t41 1.5t45 -3t38.5 -2.5l2 41q-12 0 -50.5 -0.5t-65.5 2t-48 11.5q-113 52 -168 122t-55 172q0 163 141 270t353 107q213 0 354 -107.5t141 -269.5q0 -199 -233 -296q-21 -9 -47 -11t-67 0t-50 2v-41q13 0 51 2.5t65.5 1t49.5 -9.5q134 -49 196 -130
t62 -224q0 -195 -140 -303.5t-392 -108.5q-250 0 -390.5 106.5t-140.5 295.5q0 140 65.5 225t202.5 139zM717 893q129 0 202.5 53t73.5 144t-72 141.5t-204 50.5q-130 0 -202.5 -51.5t-72.5 -143.5q0 -91 73 -142.5t202 -51.5zM709 154q150 0 227.5 59.5t77.5 167.5
q0 107 -77 163t-226 56q-150 0 -231 -57t-81 -164q0 -106 79.5 -165.5t230.5 -59.5z" />
    <glyph glyph-name="nine" unicode="9" horiz-adv-x="1466" 
d="M1022 664q-36 -60 -77.5 -99t-111 -64.5t-163.5 -25.5q-101 0 -191.5 29t-162 84.5t-114 144t-42.5 199.5q0 98 38 188.5t105.5 160t170 111.5t222.5 42q133 0 235 -33.5t170.5 -93.5t112 -149t62 -194t18.5 -235q0 -378 -137 -569t-387 -191q-115 0 -210.5 25.5t-158 66
t-108.5 95.5t-70 108t-35 109h244q32 -77 111 -130t207 -53q157 0 232.5 117t84.5 344q1 25 8.5 57.5t20 73.5t16.5 56l-41 10q-4 -17 -11 -58.5t-15.5 -72.5t-22.5 -53zM1001 948q0 113 -80 187.5t-223 74.5q-145 0 -223 -70.5t-78 -191.5q0 -119 84 -186.5t232 -67.5
q143 0 215.5 70.5t72.5 183.5z" />
    <glyph glyph-name="colon" unicode=":" horiz-adv-x="548" 
d="M123 782v242h239v-242h-239zM123 0v242h239v-242h-239z" />
    <glyph glyph-name="semicolon" unicode=";" horiz-adv-x="548" 
d="M135 768v256h250v-256h-250zM199 0h-58v215h236v-199q0 -18 -2 -28q-2 -93 -63 -155t-162 -71v103q63 8 92 57q5 6 14 25q19 37 72 76l-23 32q-6 -4 -24 -17.5t-27 -19.5t-25 -12t-30 -6z" />
    <glyph glyph-name="less" unicode="&#x3c;" horiz-adv-x="1282" 
d="M543 705l581 -213v-236l-995 399l-2 -2v187h2l995 397v-236l-581 -213q-21 -7 -44 -11.5t-55.5 -6.5t-47 -2.5t-56 0t-45.5 0.5v-41h29h32.5t31 -0.5t34 -1t31 -2.5t32.5 -4t29 -5.5t29 -8.5z" />
    <glyph glyph-name="equal" unicode="=" horiz-adv-x="1181" 
d="M121 829v195h930v-195h-930zM121 416v194h930v-194h-930z" />
    <glyph glyph-name="greater" unicode="&#x3e;" horiz-adv-x="1239" 
d="M709 788l-582 213v236l995 -397h2v-187l-2 2l-995 -399v236l582 213q13 5 29 8.5t29.5 5.5t33 4t30.5 2.5t33.5 1t31 0.5h32h28.5v41q-4 0 -45.5 -0.5t-55.5 0t-46.5 2.5t-55.5 6.5t-44 11.5z" />
    <glyph glyph-name="question" unicode="?" horiz-adv-x="1044" 
d="M289 1098h-213q1 36 12 77t42 94.5t78 95t129.5 70.5t186.5 29q181 0 295.5 -96t114.5 -250q0 -69 -21.5 -125.5t-56 -94.5t-76 -71.5t-82.5 -64t-75.5 -63.5t-56 -79t-21.5 -102v-239h-205v233q0 73 21 135t54.5 105.5t73.5 81.5t80.5 69t74 60.5t54.5 64t21 72.5
q0 79 -44.5 129.5t-129.5 50.5q-101 0 -175.5 -57t-80.5 -125zM549 -31h-215v185h215v-185z" />
    <glyph glyph-name="at" unicode="@" horiz-adv-x="2269" 
d="M1481 119v151h-37q1 -20 -8.5 -52.5t-34 -74.5t-60 -78.5t-96 -63.5t-133.5 -32q-40 -3 -78 0q-211 15 -349 172t-138 377q0 219 142.5 370t359.5 165q43 3 84 0q93 -6 168 -39t122 -86q21 -22 35 -52t26 -71t17 -53l37 12q-5 15 -20.5 52t-24.5 66t-10 54l-4 72h184
v-807q0 -100 28 -137t83 -37q30 0 54.5 13t41 39t29 53.5t20 69t12 72.5t6 77t2 68.5t0.5 60.5v7q-1 192 -66 347.5t-176 254t-254.5 151t-305.5 52.5q-171 0 -319.5 -56.5t-256.5 -158.5t-169.5 -251.5t-61.5 -327.5q0 -175 65 -319t176 -238.5t258.5 -145.5t313.5 -51
q125 0 264 31l55 -203q-164 -35 -329 -35q-232 0 -425.5 75.5t-322.5 206.5t-200 308.5t-70 380.5q1 217 81 403t217.5 313t323.5 199t396 72q139 0 269 -31t243 -89.5t207 -146t161 -195.5t104 -243.5t37 -285.5q0 -315 -96.5 -487.5t-279.5 -172.5q-133 0 -215 73t-82 202
zM782 516q0 -145 84.5 -242.5t235.5 -97.5q146 0 230.5 100t94.5 242q0 155 -84 241.5t-237 86.5q-154 0 -239 -92.5t-85 -237.5z" />
    <glyph glyph-name="A" unicode="A" horiz-adv-x="1325" 
d="M-25 2l533 1436h274l557 -1436h-245l-197 506h-494l-180 -506h-248zM862 688l-188 436q-7 18 -9 39.5t-0.5 57t1.5 41.5h-41q0 -6 1.5 -41.5t-0.5 -57t-10 -39.5l-184 -436h430z" />
    <glyph glyph-name="B" unicode="B" horiz-adv-x="1323" 
d="M1004 739q60 -21 105 -46.5t86.5 -65t64 -97t22.5 -131.5q0 -73 -13.5 -130.5t-37.5 -99.5t-63.5 -73t-85 -50t-108 -30.5t-126 -15.5t-146.5 -4q-19 0 -136.5 1t-186.5 1v2h-225v1434h534q95 0 166.5 -7.5t141 -30.5t114 -61.5t71.5 -103.5t27 -154q0 -113 -47 -179
t-157 -107q-22 -7 -50 -8.5t-66.5 1t-51.5 2.5v-41q13 0 51.5 2.5t66.5 1t50 -9.5zM379 874h260q53 0 90.5 2t79.5 8.5t69.5 20t51.5 34.5t35.5 54t11.5 76q0 32 -5.5 57.5t-19.5 43.5t-28 31t-41 21t-48 13t-59.5 7t-64 2.5t-72.5 0.5h-260v-371zM379 182h274h14
q73 0 108 1t89.5 7t80.5 20t55.5 38t41 63.5t11.5 94.5q0 59 -14 101.5t-49 68.5t-65.5 41t-93 21.5t-101.5 7.5t-118 1h-4.5h-4.5h-5q-117 0 -195 2h-24v-467z" />
    <glyph glyph-name="C" unicode="C" horiz-adv-x="1550" 
d="M807 -31q-155 0 -290.5 57.5t-231.5 157t-151.5 238.5t-55.5 297q0 210 93 380.5t258 267.5t370 97q147 0 267 -38.5t200.5 -106t128.5 -156.5t61 -194h-233q-77 276 -422 276q-214 0 -354 -148t-140 -380q0 -231 140.5 -379t355.5 -148q357 0 434 277h236
q-33 -234 -204.5 -366t-461.5 -132z" />
    <glyph glyph-name="D" unicode="D" horiz-adv-x="1503" 
d="M700 -2l-350 2h-196v1464h557q148 0 278 -52.5t224 -145.5t148 -227t54 -291q0 -209 -95 -382t-259 -271t-361 -97zM385 215h289q108 0 204.5 44t164.5 116.5t107.5 169t39.5 200.5q0 211 -143.5 355.5t-362.5 144.5h-299v-1030z" />
    <glyph glyph-name="E" unicode="E" 
d="M154 0v1434h979v-213h-754v-379h702v-213h-702v-416h764v-213h-989z" />
    <glyph glyph-name="F" unicode="F" 
d="M1133 1212h-748v-411h635v-223h-635v-578h-231v1434h979v-222z" />
    <glyph glyph-name="G" unicode="G" horiz-adv-x="1595" 
d="M1284 0v131q0 25 6 58.5t12.5 58t17.5 62.5t15 55l-41 10q-3 -14 -12.5 -72t-21.5 -95.5t-33 -62.5q-59 -74 -163.5 -126t-252.5 -52q-204 0 -372 98t-264.5 270t-96.5 382t94.5 381t263 268.5t377.5 97.5q234 0 407 -106.5t244 -298.5q-14 -4 -38 -10.5t-74 -20t-83 -22
t-32 -7.5q-50 116 -164 181t-270 65q-145 0 -258.5 -69.5t-175.5 -189.5t-62 -269q0 -148 66.5 -270t186.5 -192.5t271 -70.5q95 0 171 26t121.5 65t76 89t42 95t11.5 86h-385v200h633v-745h-217z" />
    <glyph glyph-name="H" unicode="H" horiz-adv-x="1562" 
d="M156 0v1434h229v-594h793v594h231v-1434h-231v623h-793v-623h-229z" />
    <glyph glyph-name="I" unicode="I" horiz-adv-x="538" 
d="M154 0v1434h231v-1434h-231z" />
    <glyph glyph-name="J" unicode="J" horiz-adv-x="1024" 
d="M868 1432v-1047q0 -212 -106.5 -313t-300.5 -101q-306 0 -451 256l148 129q54 -90 143.5 -136t181.5 -32q156 16 156 209v1035h229z" />
    <glyph glyph-name="K" unicode="K" horiz-adv-x="1370" 
d="M453 924l563 510h295l-580 -551l637 -883h-276l-527 743l-186 -170v-573h-225v1434h225v-476q0 -13 -1.5 -26t-6 -28t-8 -26t-10.5 -28.5t-10.5 -25t-12.5 -26.5t-11 -24l37 -16q2 5 10.5 24t12.5 27t12 24.5t14 26.5t14 23t16.5 23t17.5 18z" />
    <glyph glyph-name="L" unicode="L" horiz-adv-x="1155" 
d="M379 213h711v-213h-936v1434h225v-1221z" />
    <glyph glyph-name="M" unicode="M" horiz-adv-x="1947" 
d="M385 1026v-1026h-231v1434h340l440 -1051q7 -17 11.5 -37t6.5 -48.5t2.5 -41t0 -49t-0.5 -39.5h41v29v32.5t0.5 30.5t2 34t4 30.5t6.5 31.5t10 27l438 1051h338v-1434h-229v1026q0 30 6.5 68t17.5 84t15 67l-39 8q-4 -20 -10 -67.5t-13 -85.5t-18 -66l-416 -1034h-266
l-418 1034q-11 28 -18 65.5t-12 84.5t-9 69l-41 -8q0 -1 20.5 -89.5t20.5 -129.5z" />
    <glyph glyph-name="N" unicode="N" horiz-adv-x="1542" 
d="M385 895v-895h-231v1434h231l684 -926q11 -15 21 -32t20.5 -39.5t17 -36.5t17 -43t14 -38.5t15 -42t12.5 -36.5l39 12q-66 196 -66 285v897h230v-1434h-230l-686 924q-11 15 -21 32t-20.5 39.5t-17 36.5t-17 43t-14 38.5t-15 42t-12.5 36.5l-39 -12q54 -161 64 -231
q4 -29 4 -54z" />
    <glyph glyph-name="O" unicode="O" horiz-adv-x="1548" 
d="M78 717q0 157 53.5 296t146 238t221.5 156t275 57q194 0 354 -100.5t251 -271.5t91 -375q0 -152 -53.5 -290.5t-145.5 -239.5t-222 -160.5t-275 -59.5q-195 0 -354.5 98.5t-250.5 270.5t-91 381zM307 717q0 -100 31.5 -193.5t88.5 -169t147.5 -121t199.5 -45.5t199 45.5
t147 121t88 169t31 193.5t-31 193.5t-88 168t-147 119.5t-199 45t-199.5 -45t-147.5 -119.5t-88.5 -168t-31.5 -193.5z" />
    <glyph glyph-name="P" unicode="P" horiz-adv-x="1234" 
d="M621 598q-146 0 -246 2v-600h-232v1434h502q98 0 174.5 -9.5t150.5 -36t122.5 -71t78 -119t29.5 -174.5q0 -101 -29 -176.5t-78.5 -122.5t-125 -76t-158.5 -40t-188 -11zM375 797h241q66 0 110 3t95.5 16.5t82 37t51 67t20.5 105.5q0 34 -6.5 61t-15.5 47.5t-27 36
t-34 26t-44.5 17.5t-48.5 11t-57 5.5t-60 2t-66 0.5h-241v-436z" />
    <glyph glyph-name="Q" unicode="Q" horiz-adv-x="1599" 
d="M1004 27q-47 -29 -99 -44.5t-137 -15.5q-149 0 -277.5 57.5t-219 157.5t-142 238.5t-51.5 296.5q0 211 91.5 381.5t257.5 268t374 97.5q156 0 290.5 -54.5t229 -150.5t148 -231t53.5 -291q0 -440 -269 -616l166 -291h-225l-92 176q-21 46 0 150l-41 8q-6 -37 -9.5 -53.5
t-16 -43.5t-31.5 -40zM1200 408q45 73 74 161t29 168q0 102 -36 196t-99.5 165.5t-158 114t-204.5 42.5q-146 0 -261 -75.5t-175 -197.5t-60 -265q0 -107 33.5 -205t92.5 -173t148 -120t193 -45q110 0 219 66l-166 295h226l59 -119q7 -12 10.5 -26.5t3.5 -33t-0.5 -29
t-3 -34t-2.5 -29.5l41 -4q8 93 37 148z" />
    <glyph glyph-name="R" unicode="R" horiz-adv-x="1339" 
d="M977 631q112 -66 164 -273q9 -36 36.5 -125.5t50.5 -160.5l23 -72h-235q-42 168 -90 342q-17 60 -41 101.5t-51 65.5t-68.5 37t-82 17t-101.5 4q-24 0 -100.5 1t-102.5 1v-569h-225v1434h485q72 0 131.5 -4.5t120.5 -16.5t108 -31.5t89 -50.5t69.5 -72.5t43.5 -98.5
t16 -128q0 -69 -18 -123t-52.5 -92t-74.5 -64t-95 -48q-21 -9 -51 -13t-49.5 -5t-60.5 0t-50 1v-41q12 0 65.5 3.5t87 0t58.5 -19.5zM379 1266v-502h248q358 0 358 264q0 60 -18.5 104t-49 69.5t-78.5 40.5t-97 19.5t-115 4.5h-248z" />
    <glyph glyph-name="S" unicode="S" horiz-adv-x="1372" 
d="M1260 1182l-189 -90q-59 80 -164.5 128t-247.5 48q-125 0 -217 -48t-92 -130q0 -35 32.5 -65.5t87 -55t125 -48t149 -49.5t157 -55t149 -69.5t125 -88.5t87 -115.5t32.5 -146.5q0 -136 -85.5 -234.5t-226.5 -146t-320 -47.5q-398 0 -584 334l190 88q113 -207 414 -207
q157 0 249.5 54.5t92.5 142.5q0 61 -50.5 110.5t-132 84t-179.5 67.5t-196 71t-179.5 84.5t-132 117.5t-50.5 161q0 92 49.5 167t133 122t189 72.5t222.5 25.5q189 0 334.5 -79t227.5 -203z" />
    <glyph glyph-name="T" unicode="T" horiz-adv-x="1179" 
d="M705 0h-230v1221h-397v213h1024v-213h-397v-1221z" />
    <glyph glyph-name="U" unicode="U" horiz-adv-x="1495" 
d="M1360 1434l2 -936q0 -166 -82 -287.5t-219.5 -181.5t-312.5 -60t-312.5 60t-219 181.5t-81.5 287.5v936h232v-885q0 -148 110 -256.5t273 -108.5q162 0 272 109t108 256v885h230z" />
    <glyph glyph-name="V" unicode="V" horiz-adv-x="1439" 
d="M297 1434l383 -1022q9 -22 13.5 -54t5 -49.5t0 -63.5t-0.5 -50h41v34.5v39.5t1 35.5t3 39.5t5.5 34t9.5 34l383 1022h245l-528 -1434h-278l-529 1434h246z" />
    <glyph glyph-name="W" unicode="W" horiz-adv-x="1931" 
d="M934 1053l-277 -1053h-270l-354 1434h225l236 -990q5 -22 6.5 -52t0.5 -53t-3 -59.5t-2 -52.5h41q0 16 -0.5 66t2 85.5t10.5 63.5l287 992h256l292 -992q8 -28 11 -69t2 -75t0 -71h41q0 16 -2 52.5t-3 59.5t0.5 53t6.5 52l235 990h226l-357 -1434h-268l-279 1055
q-7 25 -10 60t-3.5 60.5t0.5 69t1 58.5h-41q0 -17 1 -59t1 -68t-3 -61.5t-9 -61.5z" />
    <glyph glyph-name="X" unicode="X" horiz-adv-x="1357" 
d="M623 502l-330 -502h-250l496 750l-465 684h264l287 -457q5 -7 8.5 -15.5t6.5 -18t5 -17.5t3 -20t1.5 -18.5t1 -20.5t0.5 -19.5v-20.5v-18h41q0 123 31 168l309 457h254l-473 -711l504 -723h-262l-332 502q-31 45 -31 168h-41v-18v-20.5t-0.5 -19t-1 -20.5t-2 -19
t-3.5 -20l-5 -17.5t-7 -18.5t-9 -15z" />
    <glyph glyph-name="Y" unicode="Y" horiz-adv-x="1300" 
d="M272 1434l330 -488q39 -57 39 -192h41q0 138 37 194l309 486h246l-494 -756v-664h-231v664l-522 756h245z" />
    <glyph glyph-name="Z" unicode="Z" horiz-adv-x="1220" 
d="M92 205l688 932q11 15 24 27.5t36 26.5t31.5 19.5t40 22t32.5 16.5l-18 37q-123 -65 -189 -65h-624v213h1015v-213h-2l-686 -924q-7 -9 -16 -18.5t-17 -16.5t-21.5 -16t-20.5 -13.5t-23.5 -13.5l-22 -12t-24 -12.5t-21.5 -10.5l19 -37q43 22 63.5 31.5t59 22t67.5 12.5
h645v-213h-1036v205z" />
    <glyph glyph-name="bracketleft" unicode="[" horiz-adv-x="899" 
d="M195 1434h538v-205h-307v-1356h307v-205h-538v1766z" />
    <glyph glyph-name="backslash" unicode="\" horiz-adv-x="747" 
d="M88 1464h225l365 -1464h-225z" />
    <glyph glyph-name="bracketright" unicode="]" horiz-adv-x="929" 
d="M739 -332h-538v205h307v1356h-307v205h538v-1766z" />
    <glyph glyph-name="asciicircum" unicode="^" horiz-adv-x="1171" 
d="M559 1176l-258 -496h-215l397 768v4h205v-4l397 -768h-215l-258 496q-7 14 -8.5 32t0.5 44t2 34h-41q0 -8 2 -34t0.5 -44t-8.5 -32z" />
    <glyph glyph-name="underscore" unicode="_" horiz-adv-x="1028" 
d="M39 -313v188h909v-188h-909z" />
    <glyph glyph-name="a" unicode="a" horiz-adv-x="1302" 
d="M909 102q-122 -135 -325 -135q-149 0 -269.5 74t-187 200t-66.5 277q0 230 148 383.5t375 153.5q202 0 323 -127q19 -20 32 -49t26.5 -80.5t15.5 -57.5l39 13q-5 17 -20.5 58.5t-24.5 74t-10 59.5l-2 78h215v-1024h-215l2 84q1 27 10 60t24.5 76t20.5 59l-39 12
q-4 -13 -13 -46.5t-15 -54t-18 -46.5t-26 -42zM276 518q0 -147 87 -247.5t231 -100.5q140 0 226.5 102t92.5 246q0 155 -83 245.5t-236 90.5q-146 0 -232 -95t-86 -241z" />
    <glyph glyph-name="b" unicode="b" horiz-adv-x="1302" 
d="M348 1485v-541q0 -28 -7.5 -58.5t-24.5 -78.5t-19 -55l39 -15q3 11 13 46t16 54.5t18.5 45t26.5 41.5q124 131 315 131q145 0 263 -74.5t183.5 -199t67.5 -273.5q2 -151 -62.5 -274.5t-183 -195t-268.5 -71.5q-194 0 -315 127q-15 15 -27.5 40t-18.5 46t-15 53.5
t-13 45.5l-39 -13q2 -7 19 -55t24.5 -78.5t7.5 -58.5v-74h-215v1485h215zM702 170q153 0 237.5 93.5t84.5 242.5t-85.5 248.5t-236.5 99.5t-237 -99.5t-86 -248.5t85 -242.5t238 -93.5z" />
    <glyph glyph-name="c" unicode="c" horiz-adv-x="1204" 
d="M74 518q0 242 151 389.5t396 147.5q117 0 214.5 -35.5t158 -92t96.5 -120t45 -127.5h-228q-4 15 -16 34.5t-36 44.5t-55.5 45t-80 34t-103.5 14q-154 0 -241.5 -91t-87.5 -241q0 -151 93.5 -249.5t250.5 -98.5q67 0 122.5 20t87.5 50.5t49 56t23 45.5h228
q-10 -53 -33.5 -104t-66 -100.5t-98 -87.5t-135.5 -61t-173 -24q-164 1 -292 70.5t-198.5 195t-70.5 285.5z" />
    <glyph glyph-name="d" unicode="d" horiz-adv-x="1292" 
d="M952 944v541h215v-1485h-215v74q0 21 6 48.5t13 47t18.5 51t16.5 45.5l-39 13q-4 -12 -17 -58.5t-26.5 -77t-32.5 -49.5q-121 -127 -320 -127q-150 0 -268 71.5t-181 194.5t-61 275q2 149 66 273.5t181 199t263 74.5q196 0 320 -131q19 -20 32 -49.5t26.5 -78t17.5 -59.5
l39 15q-4 10 -16.5 43.5t-18.5 52.5t-12.5 47t-6.5 49zM594 170q155 0 241.5 93.5t86.5 242.5t-87 248.5t-241 99.5q-152 0 -235 -99t-83 -249t82.5 -243t235.5 -93z" />
    <glyph glyph-name="e" unicode="e" horiz-adv-x="1236" 
d="M672 -33q-144 0 -261.5 43t-193 118t-116 175t-40.5 215q0 151 71.5 273.5t201.5 193t293 70.5q124 0 229 -43t174.5 -116t108 -169t37.5 -201v-86h-865q0 -48 21.5 -96.5t62 -91t108 -69.5t150.5 -27q102 0 171 41.5t89 95.5h240q-10 -35 -31.5 -75t-62.5 -85.5
t-93 -81.5t-129 -60t-165 -24zM313 598h617q0 119 -82 199t-217 80q-136 0 -227 -85t-91 -194z" />
    <glyph glyph-name="f" unicode="f" horiz-adv-x="854" 
d="M274 1112q4 144 85 233t192 89h221v-181h-147q-136 0 -136 -141v-88h256v-178h-256v-840h-215v840h-202v178h202v88z" />
    <glyph glyph-name="g" unicode="g" horiz-adv-x="1341" 
d="M942 104q-124 -137 -332 -137q-148 0 -268 74t-186 200t-66 277q0 230 147 383.5t373 153.5q207 0 330 -129q19 -19 32.5 -50.5t26 -74.5t19.5 -60l37 15q-4 13 -21.5 56.5t-27 75t-11.5 58.5l-4 78h215v-1053q0 -108 -30 -193.5t-93.5 -152t-172 -102t-255.5 -35.5
q-242 0 -378.5 108.5t-147.5 297.5h227q5 -59 32.5 -101.5t70 -64t86.5 -30.5t94 -9q352 0 352 301q0 67 2 98q2 26 12 57.5t27 71.5t23 57l-39 15q-5 -13 -17.5 -58.5t-25.5 -76t-31 -50.5zM305 512q0 -147 86 -242.5t242 -95.5q148 0 233.5 85.5t94.5 223.5v58
q-9 136 -94.5 221.5t-233.5 85.5q-156 0 -242 -94.5t-86 -241.5z" />
    <glyph glyph-name="h" unicode="h" horiz-adv-x="1247" 
d="M426 950q63 59 140.5 82t189.5 23q165 0 268.5 -92t103.5 -261v-702h-215v549q0 154 -58.5 225.5t-180.5 71.5q-141 0 -233.5 -75.5t-92.5 -221.5v-549h-215v1485h215v-506q0 -15 -1.5 -30t-6 -33.5t-7.5 -30.5t-10.5 -34.5t-10.5 -30.5t-12 -33t-11 -29l37 -15
q5 13 18.5 52t22 60.5t24.5 50t35 44.5z" />
    <glyph glyph-name="i" unicode="i" horiz-adv-x="483" 
d="M123 1208v226h235v-226h-235zM135 0v1024h215v-1024h-215z" />
    <glyph glyph-name="j" unicode="j" horiz-adv-x="649" 
d="M301 1229v205h225v-205h-225zM311 66v958h205v-1024q0 -160 -72 -238.5t-223 -78.5h-143v200h100q83 0 108 40.5t25 142.5z" />
    <glyph glyph-name="k" unicode="k" horiz-adv-x="1132" 
d="M422 748l315 274h279l-430 -395l534 -629h-276l-408 496l-100 -91l2 -403h-215v1485h215v-699q0 -70 -64 -200l39 -17q50 110 81 149q14 18 28 30z" />
    <glyph glyph-name="l" unicode="l" horiz-adv-x="692" 
d="M164 248v1237h217v-1174q0 -62 26.5 -85t96.5 -23h131v-203h-141q-330 0 -330 248z" />
    <glyph glyph-name="m" unicode="m" horiz-adv-x="1814" 
d="M1061 965q121 90 244 90q166 0 270 -92t104 -261v-702h-215v567q0 160 -53 235t-164 75q-119 0 -173 -74.5t-54 -235.5v-567h-215v567q0 161 -54 235.5t-169 74.5q-124 0 -184 -75.5t-60 -234.5v-567h-215v1024h215v-12q0 -22 -3.5 -48.5t-6.5 -45.5t-12 -53.5
t-12.5 -46.5t-15 -51.5t-12.5 -43.5l39 -10q5 19 17.5 68.5t21 79t26.5 67t40 59.5q37 37 89 52.5t134 15.5q158 0 236 -64q11 -9 20 -21t14 -27t8.5 -28t3.5 -33.5t0.5 -32.5t-2 -35t-3.5 -33t-4.5 -34t-4.5 -30l41 -6q26 193 109 254z" />
    <glyph glyph-name="n" unicode="n" horiz-adv-x="1251" 
d="M436 969q63 52 134.5 69t185.5 17q165 0 268.5 -92t103.5 -261v-702h-215v549q0 154 -58.5 225.5t-180.5 71.5q-141 0 -233.5 -75.5t-92.5 -221.5v-549h-215v1024h215v-20q0 -79 -65 -236l36 -14q3 6 21.5 53t27 66t28 49.5t40.5 46.5z" />
    <glyph glyph-name="o" unicode="o" horiz-adv-x="1257" 
d="M74 516q0 242 156 390.5t409 148.5q251 0 408 -152t157 -387q0 -156 -70 -280.5t-199.5 -196.5t-295.5 -72q-253 0 -409 152.5t-156 396.5zM299 516q0 -150 85.5 -246t254.5 -96q167 0 253.5 96t86.5 246q0 148 -85.5 240t-254.5 92t-254.5 -92t-85.5 -240z" />
    <glyph glyph-name="p" unicode="p" horiz-adv-x="1296" 
d="M348 80v-592h-215v1536h215v-74q0 -21 -6 -49.5t-11 -45.5t-18 -53t-16 -44l39 -13q5 14 17.5 59.5t25.5 76t31 49.5q121 127 319 127q151 0 269.5 -71.5t181.5 -194.5t61 -275q-3 -149 -67 -273t-180.5 -199t-262.5 -75q-195 0 -319 131q-15 16 -28 42t-19 44.5
t-16 54.5t-13 46l-39 -15q2 -7 12.5 -34.5t14.5 -41.5t11 -37t10 -42.5t3 -36.5zM707 854q-154 0 -241 -93.5t-87 -240.5q0 -151 87.5 -250.5t240.5 -99.5t235 98.5t82 251.5q0 149 -81.5 241.5t-235.5 92.5z" />
    <glyph glyph-name="q" unicode="q" horiz-adv-x="1320" 
d="M973 -512v592q0 28 7.5 58.5t24.5 78.5t19 55l-39 15q-3 -11 -13 -46t-16 -54.5t-18.5 -45t-26.5 -41.5q-124 -131 -321 -131q-146 0 -262.5 75t-180 199.5t-65.5 272.5q-3 152 59.5 275t181 194.5t269.5 71.5q198 0 319 -127q15 -15 27.5 -40t18.5 -46t15 -53.5
t13 -45.5l39 13q-4 13 -20 57.5t-23.5 76t-7.5 58.5v74h215v-1536h-215zM614 854q-154 0 -235.5 -92.5t-81.5 -241.5q0 -153 82 -251.5t235 -98.5t240.5 99.5t87.5 250.5q0 147 -87 240.5t-241 93.5z" />
    <glyph glyph-name="r" unicode="r" horiz-adv-x="921" 
d="M430 944q72 67 161.5 89t254.5 22v-201q-78 0 -147.5 -11t-135 -38t-112 -68t-75 -105.5t-28.5 -146.5v-485h-215v1024h215v-47q0 -68 -63 -215l39 -17q2 6 19 50t25 60.5t25.5 44.5t36.5 44z" />
    <glyph glyph-name="s" unicode="s" horiz-adv-x="1122" 
d="M1055 315q0 -158 -120.5 -253t-348.5 -95q-225 0 -369.5 109.5t-144.5 251.5h217q0 -55 91.5 -106.5t223.5 -51.5q115 0 172.5 34t57.5 95q0 48 -41.5 79.5t-108 48t-146.5 30.5t-160 33t-146.5 48t-108 84.5t-41.5 133.5q0 125 123 212t340 87q225 0 354 -90.5
t129 -216.5h-215q0 56 -76 90t-202 34q-101 0 -167.5 -30.5t-66.5 -85.5q0 -31 32.5 -52t85.5 -31.5t120.5 -22.5t138.5 -23t138.5 -35t120.5 -56.5t85.5 -89t32.5 -131.5z" />
    <glyph glyph-name="t" unicode="t" horiz-adv-x="870" 
d="M297 311v518h-205v193h205v364h215v-364h266v-193h-266v-518q0 -63 30.5 -85.5t104.5 -22.5h121v-203h-219q-124 0 -188 90t-64 221z" />
    <glyph glyph-name="u" unicode="u" horiz-adv-x="1222" 
d="M809 70q-62 -62 -127.5 -81.5t-179.5 -19.5q-100 0 -185.5 39t-141.5 121t-56 193v702h215v-561q0 -153 61.5 -226t169.5 -73q58 0 110 17.5t95 52.5t68.5 94t25.5 135v561h215v-1024h-215l2 47q0 18 6.5 41.5t12.5 38.5t19 43.5t16 36.5l-39 16q-4 -10 -13 -38.5
t-15.5 -44.5t-18 -37t-25.5 -33z" />
    <glyph glyph-name="v" unicode="v" horiz-adv-x="1263" 
d="M293 1024l293 -653q7 -15 12 -34.5t7.5 -34t3.5 -40t1 -36.5v-39.5v-34.5h41q0 56 0.5 78t6.5 67t18 74l295 653h229l-450 -1024h-228l-461 1024h232z" />
    <glyph glyph-name="w" unicode="w" horiz-adv-x="1746" 
d="M266 1024l219 -694q6 -20 6.5 -46t-2 -59t-2.5 -47h41q0 12 -2 46t-1 60t7 46l228 694h225l229 -694q6 -20 7.5 -45.5t-0.5 -61t-2 -45.5h41q0 14 -2.5 47t-2 59t6.5 46l219 694h225l-358 -1024h-240l-213 752q-6 20 -6.5 45.5t2 58t2.5 45.5h-41q0 -14 2.5 -45.5
t2.5 -57.5t-5 -46l-215 -752h-238l-358 1024h225z" />
    <glyph glyph-name="x" unicode="x" horiz-adv-x="1107" 
d="M508 326l-225 -326h-246l391 543l-367 481h246l201 -283q9 -12 13.5 -30.5t5 -29t0 -38.5t-0.5 -31h41v13v14v13t0.5 14t1.5 13t2 13.5t2.5 12t3.5 13t5 11t6 10.5l211 285h245l-374 -502l399 -522h-246l-233 326q-12 17 -17 44.5t-5.5 40.5t-0.5 48h-41q0 -4 0.5 -32.5
t0 -39t-5 -29.5t-13.5 -32z" />
    <glyph glyph-name="y" unicode="y" horiz-adv-x="1288" 
d="M313 1024l295 -643q29 -63 29 -221h41q0 55 0.5 78.5t7.5 68.5t21 74l294 643h256l-483 -1022q-76 -154 -88 -180q-37 -83 -68 -137.5t-73 -102.5t-93.5 -71t-115.5 -23h-246v211h154q46 0 78.5 11t58.5 39t43 55.5t43 80.5l70 140l-480 999h256z" />
    <glyph glyph-name="z" unicode="z" horiz-adv-x="1114" 
d="M88 190l555 582q13 14 32.5 24t51.5 21t39 14l-16 39q-10 -4 -38.5 -18t-50 -21.5t-40.5 -7.5h-521v201h904v-201l-551 -569q-11 -11 -28.5 -20.5t-31.5 -15t-37 -13.5t-32 -12l16 -39q8 3 31 14t36 16.5t32.5 11t35.5 5.5h551v-201h-938v190z" />
    <glyph glyph-name="braceleft" unicode="{" horiz-adv-x="849" 
d="M299 612q49 0 84 -13t55.5 -34t32 -55t15 -67.5t3.5 -80.5v-227q0 -86 61 -132t167 -46l-2 -188q-89 0 -185.5 37t-164.5 102t-68 135q0 21 1.5 68t2.5 87.5t0.5 91.5t-5 91t-13 75t-25.5 54.5t-41 19.5h-115v203h115q24 0 40.5 19t25.5 53t13.5 73t5 89t-0.5 89.5
t-2.5 86t-1.5 67.5q0 61 40.5 114.5t103 87.5t135 53.5t139.5 19.5l2 -189q-106 0 -167 -46t-61 -134v-299q0 -84 -51 -124t-139 -40v-41z" />
    <glyph glyph-name="bar" unicode="|" horiz-adv-x="1128" 
d="M455 -512v2025h219v-2025h-219z" />
    <glyph glyph-name="braceright" unicode="}" horiz-adv-x="759" 
d="M340 362q0 48 3.5 81t14.5 67.5t31.5 55t55.5 33.5t85 13v41q-88 0 -139 40t-51 124v299q0 88 -60.5 134t-166.5 46l2 189q67 0 139.5 -19.5t135 -53.5t102.5 -87.5t40 -114.5q0 -21 -1.5 -67.5t-2.5 -86t-0.5 -89.5t5 -89t13.5 -73t25.5 -53t40.5 -19h115v-203h-115
q-24 0 -41 -19.5t-25.5 -54.5t-13 -75t-5 -91t0.5 -91.5t2.5 -87.5t1.5 -68q0 -70 -67.5 -135t-164 -102t-185.5 -37l-2 188q106 0 166.5 46t60.5 132v227z" />
    <glyph glyph-name="endash" unicode="&#x2013;" horiz-adv-x="1024" 
d="M125 475v150h856v-150h-856z" />
    <glyph glyph-name="quotedblleft" unicode="&#x201c;" horiz-adv-x="739" 
d="M254 1219h61v-195h-215v199q0 105 55.5 178.5t149.5 73.5v-103q-88 0 -100 -102q-1 -11 -7.5 -21.5t-12 -17t-18 -17.5t-17.5 -16l28 -29q5 5 16.5 16t18.5 17t18 11.5t23 5.5zM547 1219h63v-195h-215v199q-2 105 53.5 178.5t151.5 73.5v-103q-88 0 -100 -102
q-2 -11 -8.5 -21.5t-12.5 -16.5t-18.5 -18t-16.5 -16l29 -29q6 5 17 16t17.5 17t17.5 11.5t22 5.5z" />
    <glyph glyph-name="quotedblright" unicode="&#x201d;" horiz-adv-x="718" 
d="M457 1280h-64v195h215v-199q2 -105 -53.5 -178.5t-151.5 -73.5v102q88 0 101 103q2 11 8.5 21.5t12 16.5t17.5 17t17 16l-29 29q-6 -5 -16.5 -15.5t-17.5 -16.5t-17.5 -11.5t-21.5 -5.5zM162 1280h-62v195h215v-199q0 -105 -55 -178.5t-151 -73.5v102q85 0 102 103
q1 11 7.5 21.5t11.5 16t17.5 17.5t16.5 16l-26 29q-4 -4 -16.5 -15.5t-19 -17t-18 -11t-22.5 -5.5z" />
    <glyph glyph-name="bullet" unicode="&#x2022;" horiz-adv-x="770" 
d="M274 545v399h400v-399h-400z" />
    <glyph glyph-name="uni000D.1" horiz-adv-x="342" 
 />
    </font>
</defs>
</svg>
