<?xml version="1.0" encoding="iso-8859-1"?>
<svg xmlns="http://www.w3.org/2000/svg" width="64" height="64" viewBox="0 0 64 64"><g fill="none" fill-rule="evenodd"><path fill="#B4814A" d="M60.7876454,34.1824 C57.1111737,34.1824 54.1306385,31.1805935 54.1306385,27.4778839 C54.1306385,26.3114323 54.4268472,25.2141419 54.9475184,24.2593032 C54.1634367,24.5049806 53.3301578,24.6381419 52.4661306,24.6381419 C47.8713098,24.6381419 44.1456408,20.8858839 44.1456408,16.258271 C44.1456408,16.0869161 44.161015,15.9196903 44.1712644,15.7514323 C43.2867383,16.0734968 42.3376408,16.258271 41.3434458,16.258271 C36.7486249,16.258271 33.022956,12.5060129 33.022956,7.87736774 C33.022956,6.92459355 33.1900218,6.01414194 33.4821306,5.16252903 C32.9881079,5.26988387 32.4766612,5.3307871 31.9498404,5.3307871 C29.225541,5.3307871 26.8548472,3.80098065 25.6402893,1.54859355 C11.870176,4.49465806 1.53669751,16.8084645 1.53669751,31.5553032 C1.53669751,48.5008516 15.1766431,62.2381419 32.0021125,62.2381419 C48.0137769,62.2381419 61.1310014,49.7932387 62.3629832,33.986271 C61.8566612,34.1091097 61.3308653,34.1824 60.7876454,34.1824"/><path fill="#513A2B" d="M33.4833605,37.7026065 C33.4833605,41.6675097 30.292712,44.880929 26.3559048,44.880929 C22.4190975,44.880929 19.228449,41.6675097 19.228449,37.7026065 C19.228449,33.7377032 22.4190975,30.5242839 26.3559048,30.5242839 C30.292712,30.5242839 33.4833605,33.7377032 33.4833605,37.7026065"/><path fill="#2E2E30" d="M26.3562122,32.0724645 C23.2731828,32.0724645 20.7661714,34.5984 20.7661714,37.7024 C20.7661714,40.8064 23.2731828,43.3323355 26.3562122,43.3323355 C29.4392417,43.3323355 31.9462531,40.8064 31.9462531,37.7024 C31.9462531,34.5984 29.4392417,32.0724645 26.3562122,32.0724645 M26.3562122,46.4291097 C21.5789515,46.4291097 17.6913415,42.5147871 17.6913415,37.7024 C17.6913415,32.8900129 21.5789515,28.9756903 26.3562122,28.9756903 C31.133473,28.9756903 35.021083,32.8900129 35.021083,37.7024 C35.021083,42.5147871 31.133473,46.4291097 26.3562122,46.4291097"/><path fill="#513A2B" d="M1.54028481 31.6816516C2.3991873 32.3732645 3.47332789 32.8037161 4.65816236 32.8037161 7.43165896 32.8037161 9.67935964 30.5389419 9.67935964 27.7456516 9.67935964 24.9523613 7.43165896 22.6886194 4.65816236 22.6886194 3.97247528 22.6886194 3.31958639 22.8290065 2.72409433 23.0798452 1.95641179 25.7730065 1.53720998 28.6137806 1.53720998 31.5557161 1.53720998 31.5980387 1.54028481 31.639329 1.54028481 31.6816516M26.838858 15.2025806C26.838858 17.3765161 25.0892798 19.1385806 22.9307492 19.1385806 20.7722186 19.1385806 19.0226404 17.3765161 19.0226404 15.2025806 19.0226404 13.0286452 20.7722186 11.2665806 22.9307492 11.2665806 25.0892798 11.2665806 26.838858 13.0286452 26.838858 15.2025806"/><path fill="#2E2E30" d="M22.9310567,12.8149677 C21.624254,12.8149677 20.5603628,13.8864516 20.5603628,15.2025806 C20.5603628,16.5187097 21.624254,17.5901935 22.9310567,17.5901935 C24.2378594,17.5901935 25.3017506,16.5187097 25.3017506,15.2025806 C25.3017506,13.8864516 24.2378594,12.8149677 22.9310567,12.8149677 M22.9310567,20.6869677 C19.9279728,20.6869677 17.4855329,18.2270968 17.4855329,15.2025806 C17.4855329,12.1780645 19.9279728,9.71819355 22.9310567,9.71819355 C25.9341406,9.71819355 28.3755556,12.1780645 28.3755556,15.2025806 C28.3755556,18.2270968 25.9341406,20.6869677 22.9310567,20.6869677"/><path fill="#513A2B" d="M51.510781,41.9444645 C51.510781,44.1184 49.7612027,45.8804645 47.6026721,45.8804645 C45.4441415,45.8804645 43.6945633,44.1184 43.6945633,41.9444645 C43.6945633,39.770529 45.4441415,38.0084645 47.6026721,38.0084645 C49.7612027,38.0084645 51.510781,39.770529 51.510781,41.9444645"/><path fill="#2E2E30" d="M47.6027746,39.5568516 C46.2959719,39.5568516 45.2320807,40.6283355 45.2320807,41.9444645 C45.2320807,43.2605935 46.2959719,44.3320774 47.6027746,44.3320774 C48.9095773,44.3320774 49.9734685,43.2605935 49.9734685,41.9444645 C49.9734685,40.6283355 48.9095773,39.5568516 47.6027746,39.5568516 M47.6027746,47.4288516 C44.5996907,47.4288516 42.1572508,44.9689806 42.1572508,41.9444645 C42.1572508,38.9199484 44.5996907,36.4600774 47.6027746,36.4600774 C50.6058585,36.4600774 53.0472735,38.9199484 53.0472735,41.9444645 C53.0472735,44.9689806 50.6058585,47.4288516 47.6027746,47.4288516"/><path fill="#513A2B" d="M32.0019075,62.2378323 C32.8864336,62.2378323 33.7607102,62.1934452 34.6267873,62.1191226 C34.6759846,61.8094452 34.7098077,61.4935742 34.7098077,61.1694452 C34.7098077,57.9240258 32.0972272,55.2938323 28.8748054,55.2938323 C25.7466785,55.2938323 23.2007193,57.7753806 23.0551773,60.8907355 C25.8840209,61.7650581 28.8881297,62.2378323 32.0019075,62.2378323"/><path fill="#010202" d="M60.7876454,34.1824 C60.413541,34.1824 60.0496862,34.1442065 59.6930059,34.0843355 C54.7169061,46.3578839 42.7599175,55.0123355 28.7827655,55.0123355 C19.0745025,55.0123355 10.3358358,50.8358194 4.2343483,44.1736258 C9.01263401,54.8234323 19.644371,62.2381419 32.0021125,62.2381419 C48.0137769,62.2381419 61.1310014,49.7932387 62.3629832,33.986271 C61.8566612,34.1091097 61.3308653,34.1824 60.7876454,34.1824" opacity=".2"/><path fill="#2E2E30" d="M36.2024327,60.3735742 C35.8068045,56.6533161 32.6735528,53.7454452 28.8751129,53.7454452 C25.618868,53.7454452 22.8515211,55.8708645 21.8839746,58.8468645 C11.6816889,54.9975742 4.19960272,45.504929 3.19618322,34.1614452 C3.6738068,34.2739613 4.15962993,34.3513806 4.65877732,34.3513806 C8.27477732,34.3513806 11.2173896,31.3888 11.2173896,27.7459613 C11.2173896,24.2269935 8.46951655,21.3511226 5.02365714,21.1591226 C8.3475483,12.4871226 15.6779429,5.64634839 24.9301061,3.30312258 C26.4798204,5.4244129 28.9007365,6.74467097 31.5368907,6.86957419 C31.5030676,7.20505806 31.4846186,7.54157419 31.4846186,7.87705806 C31.4846186,13.3521548 35.9082739,17.8063484 41.3435483,17.8063484 C41.801698,17.8063484 42.2588227,17.7733161 42.7128726,17.7072516 C43.4231583,22.5712516 47.6428499,26.2718968 52.6947955,26.1841548 C52.6261243,26.6115097 52.5923011,27.0440258 52.5923011,27.4775742 C52.5923011,31.9730581 56.1806277,35.640671 60.6237569,35.7294452 C58.7983329,48.4675097 48.6934168,58.5072516 36.2024327,60.3735742 M32.00119,60.6894452 C31.440546,60.6894452 30.8819519,60.6688 30.3254077,60.6368 C30.1521923,60.6264774 29.9820517,60.6099613 29.8098612,60.5975742 C29.4214077,60.5676387 29.0329542,60.5325419 28.6465506,60.4871226 C28.4528363,60.4644129 28.259122,60.4396387 28.0674576,60.4128 C27.6913034,60.3611871 27.318224,60.3013161 26.9451447,60.2342194 C26.7637297,60.2022194 26.5823147,60.1722839 26.4019247,60.1371871 C25.9448,60.0463484 25.4907501,59.9431226 25.0387501,59.8306065 C24.9639293,59.8120258 24.8870585,59.7975742 24.8112127,59.7779613 C25.385181,58.0623484 26.9912671,56.8422194 28.8751129,56.8422194 C31.0736163,56.8422194 32.8918658,58.5144774 33.1419519,60.6626065 C32.7627229,60.6780903 32.3834939,60.6894452 32.00119,60.6894452 M4.65877732,24.2362839 C6.57952109,24.2362839 8.14255964,25.8104774 8.14255964,27.7459613 C8.14255964,29.6804129 6.57952109,31.2546065 4.65877732,31.2546065 C4.03766168,31.2546065 3.51596553,31.0832516 3.10393832,30.8675097 C3.11828753,30.2822194 3.13058685,29.6958968 3.17875918,29.1178323 C3.1838839,29.0589935 3.19310839,29.0001548 3.19823311,28.9413161 C3.26075465,28.2476387 3.35094966,27.5601548 3.46266848,26.8788645 C3.48521723,26.7415742 3.50776599,26.6032516 3.53133968,26.4659613 C3.66150748,25.7361548 3.81319909,25.0135742 3.99666395,24.3013161 C4.21395193,24.2589935 4.43533968,24.2362839 4.65877732,24.2362839 M63.894351,34.1067355 C63.9343238,33.6122839 63.7344599,33.1281548 63.3583057,32.8060903 C62.9852263,32.4860903 62.4789043,32.3653161 61.9992308,32.480929 C61.5861787,32.5820903 61.1782512,32.6337032 60.7877478,32.6337032 C57.964029,32.6337032 55.6671311,30.3214452 55.6671311,27.4775742 C55.6671311,26.6135742 55.884419,25.7588645 56.2954213,25.0042839 C56.5967546,24.4509935 56.535258,23.7676387 56.13758,23.2793806 C55.739902,22.7900903 55.090088,22.5939613 54.4904961,22.7808 C53.8365823,22.9862194 53.15602,23.0904774 52.4662331,23.0904774 C48.726215,23.0904774 45.6831583,20.024671 45.6831583,16.2579613 C45.6831583,16.1650581 45.6903329,16.0731871 45.6964825,15.9823484 L45.7046821,15.8429935 C45.7364553,15.3227355 45.5048181,14.8220903 45.090741,14.5103484 C44.675639,14.1986065 44.133444,14.1180903 43.6476209,14.2946065 C42.8922376,14.5702194 42.1173805,14.7095742 41.3435483,14.7095742 C37.6035302,14.7095742 34.5594485,11.6448 34.5594485,7.87705806 C34.5594485,7.13692903 34.6855166,6.39370323 34.9356027,5.66802581 C35.1159927,5.13950968 35.0001741,4.55215484 34.6322195,4.13409032 C34.262215,3.71499355 33.6984961,3.53021935 33.1542512,3.64892903 C30.6400653,4.20325161 28.1699519,2.99344516 26.9922921,0.809187097 C26.667385,0.207380645 25.9909224,-0.108490323 25.3216345,0.0339612903 C13.6803283,2.5248 4.57883175,11.3857032 1.31233741,22.4938323 C1.29081361,22.5464774 1.26314014,22.5970581 1.24674104,22.6517677 C1.20266848,22.8066065 1.17294512,22.9645419 1.13092245,23.1204129 C0.993580045,23.6262194 0.864437188,24.1361548 0.751693424,24.6502194 C0.706595918,24.856671 0.669697959,25.0631226 0.628700227,25.2706065 C0.531330612,25.7557677 0.445235374,26.2440258 0.370414512,26.7364129 C0.346840816,26.8943484 0.319167347,27.0522839 0.297643537,27.2102194 C0.212573243,27.8368 0.148001814,28.4695742 0.0998294785,29.1054452 C0.0875301587,29.2551226 0.0793306122,29.4048 0.0701061224,29.5544774 C0.0280834467,30.2182194 0.000409977324,30.8840258 0.000409977324,31.5549935 C0.000409977324,31.5673806 0.00245986395,31.6654452 0.00348480726,31.6881548 L0.00348480726,31.6922839 C0.0639564626,46.1026065 9.56005624,58.3111226 22.5799111,62.3586065 C22.5881107,62.3617032 22.5952853,62.3678968 22.6034848,62.3709935 C22.6967546,62.3998968 22.7930993,62.4184774 22.8863692,62.4463484 C23.4521379,62.616671 24.0250812,62.7684129 24.6031492,62.9067355 C24.7845642,62.9500903 24.9659791,62.9944774 25.1473941,63.0337032 C25.8259066,63.1833806 26.5105687,63.3175742 27.2034304,63.4228645 C27.2690268,63.4331871 27.3335982,63.4383484 27.3991946,63.4476387 C28.0356844,63.5405419 28.6793488,63.6107355 29.3271129,63.6654452 C29.5085279,63.6798968 29.687893,63.6943484 29.8693079,63.7067355 C30.5744689,63.7531871 31.2847546,63.7862194 32.00119,63.7862194 C32.4583147,63.7862194 32.9205642,63.7738323 33.3951129,63.7521548 C33.7435937,63.736671 34.0879746,63.7098323 34.4333805,63.6829935 C34.5430494,63.6747355 34.6465687,63.6716387 34.7582875,63.6613161 C34.7623873,63.6613161 34.7664871,63.6592516 34.7705868,63.6582194 C50.1221878,62.3038968 62.6715937,49.8135742 63.894351,34.1067355"/></g></svg>