<?xml version="1.0" standalone="no"?>
<!DOCTYPE svg PUBLIC "-//W3C//DTD SVG 1.1//EN" "http://www.w3.org/Graphics/SVG/1.1/DTD/svg11.dtd" >
<svg xmlns="http://www.w3.org/2000/svg" xmlns:xlink="http://www.w3.org/1999/xlink" version="1.1">
<metadata>
Created by FontForge 20170731 at Mon Sep 12 12:01:30 2022
 By Aleksey,,,
</metadata>
<defs>
<font id="RanyMedium" horiz-adv-x="1361" >
  <font-face 
    font-family="Rany Medium"
    font-weight="500"
    font-stretch="normal"
    units-per-em="2048"
    panose-1="0 0 0 0 0 0 0 0 0 0"
    ascent="1638"
    descent="-410"
    x-height="1036"
    cap-height="1434"
    bbox="-182 -412 2005 1711"
    underline-thickness="102"
    underline-position="-307"
    unicode-range="U+000A-2122"
  />
<missing-glyph horiz-adv-x="1079" 
d="M102 1434h875v-1434h-875v1434zM160 1393l379 -633l381 633h-760zM514 717l-369 614v-1231zM541 674l-379 -631h758zM565 717l371 -621v1239z" />
    <glyph glyph-name=".notdef" horiz-adv-x="1079" 
d="M102 1434h875v-1434h-875v1434zM160 1393l379 -633l381 633h-760zM514 717l-369 614v-1231zM541 674l-379 -631h758zM565 717l371 -621v1239z" />
    <glyph glyph-name=".null" horiz-adv-x="0" 
 />
    <glyph glyph-name=".null" horiz-adv-x="0" 
 />
    <glyph glyph-name="nonmarkingreturn" horiz-adv-x="682" 
 />
    <glyph glyph-name="controlLF" unicode="&#xa;" horiz-adv-x="0" 
 />
    <glyph glyph-name="controlCR" unicode="&#xd;" horiz-adv-x="0" 
 />
    <glyph glyph-name="space" unicode=" " horiz-adv-x="491" 
 />
    <glyph glyph-name="exclam" unicode="!" horiz-adv-x="497" 
d="M249 -12q-62 0 -106.5 44t-44.5 106t44.5 106.5t106.5 44.5t106 -44.5t44 -106.5t-44 -106t-106 -44zM353 451h-208l-14 988h236z" />
    <glyph glyph-name="numbersign" unicode="#" horiz-adv-x="1556" 
d="M1442 853h-263l-70 -262h263l-55 -202h-262l-103 -384h-222l102 384h-288l-102 -384h-223l103 384h-263l55 202h262l70 262h-262l54 202h263l102 383h223l-103 -383h288l103 383h222l-102 -383h262zM887 591l70 262h-288l-70 -262h288z" />
    <glyph glyph-name="dollar" unicode="$" horiz-adv-x="1228" 
d="M729 833q41 -14 73.5 -27t77 -35.5t78 -46t70 -57.5t60 -72t39.5 -88.5t18 -107.5q5 -171 -127 -287q-115 -101 -289 -123v-147h-184v148q-175 25 -302 130.5t-171 263.5l215 49q27 -98 97.5 -157t160.5 -80v485q-7 3 -23 9q-38 14 -61 23t-69.5 31t-77 43t-68.5 54.5
t-59.5 69.5t-35 85.5t-9.5 103.5q8 103 68 182.5t146.5 121.5t188.5 53v144h184v-151q131 -23 225 -96.5t143 -190.5l-208 -71q-48 113 -160 149v-408zM545 901v351q-30 -6 -57 -16t-55.5 -28.5t-47 -49.5t-21.5 -72q-4 -61 40 -103t141 -82zM863 257q62 54 59 137
q-2 78 -51.5 128.5t-141.5 90.5v-419q82 17 134 63z" />
    <glyph glyph-name="percent" unicode="%" horiz-adv-x="1607" 
d="M1121 1439h256l-892 -1434h-256zM702 1135q0 -131 -94 -223.5t-226 -92.5t-226.5 93t-94.5 223q0 131 94.5 224t226.5 93t226 -93t94 -224zM241 1135q0 -58 41 -98.5t100 -40.5t100 40.5t41 98.5t-41.5 99t-99.5 41t-99.5 -41t-41.5 -99zM1225 625q133 0 226.5 -92.5
t93.5 -223.5t-93.5 -224t-226.5 -93q-132 0 -226.5 93.5t-94.5 223.5q0 131 94 223.5t227 92.5zM1225 169q59 0 100 40.5t41 98.5t-41.5 99t-99.5 41t-99.5 -41t-41.5 -99t41 -98.5t100 -40.5z" />
    <glyph glyph-name="ampersand" unicode="&#x26;" horiz-adv-x="1499" 
d="M1135 370q73 -76 195.5 -204.5t153.5 -160.5h-287q-34 36 -107 111.5t-98 101.5q-94 -96 -182 -153q-163 -106 -333 -99.5t-291 123.5q-110 106 -112.5 248.5t103.5 269.5q85 102 220 219q-123 128 -153 233q-21 71 -7.5 144t57.5 132q85 111 231 125q160 16 268 -70
q105 -83 110 -211q4 -101 -45 -181.5t-157 -179.5l65 -65q13 -13 224 -233q93 102 196 217l145 -151q-73 -82 -196 -216zM473 1223q-38 -51 -19 -114q17 -59 99 -146q77 71 105.5 116.5t27.5 94.5q-2 41 -35 67q-30 24 -80 24q-14 0 -22 -1q-49 -5 -76 -41zM684 225
q65 42 164 143q-44 46 -131.5 137.5t-113.5 117.5l-59 59q-118 -103 -195 -195q-31 -38 -47 -80t-7.5 -92t49.5 -90q43 -42 95 -56t100 -3t81.5 25.5t63.5 33.5z" />
    <glyph glyph-name="parenleft" unicode="(" horiz-adv-x="610" 
d="M411 258q45 -112 113 -214q61 -95 153 -194l-140 -117q-99 91 -187 212q-81 114 -139 242q-113 252 -115 535q2 285 114 535q56 125 139 242q85 117 187 212l142 -119q-94 -101 -153 -193q-70 -106 -114 -214q-93 -227 -92 -463q-2 -237 92 -464z" />
    <glyph glyph-name="parenright" unicode=")" horiz-adv-x="610" 
d="M400 1257q112 -250 114 -535q-2 -283 -115 -535q-58 -128 -139 -242q-86 -118 -187 -211l-140 116q92 99 153 194q68 102 113 214q94 227 92 464q1 236 -92 463q-44 108 -114 214q-61 95 -153 194l142 118q102 -95 187 -212q83 -117 139 -242z" />
    <glyph glyph-name="asterisk" unicode="*" horiz-adv-x="862" 
d="M802 1108l-242 -68l156 -196l-145 -104l-140 207l-140 -207l-145 104l156 196l-243 68l56 168l236 -86l-10 249h179l-9 -249l236 86z" />
    <glyph glyph-name="plus" unicode="+" horiz-adv-x="1060" 
d="M631 703h372v-202h-372v-372h-202v372h-372v202h372v372h202v-372z" />
    <glyph glyph-name="comma" unicode="," horiz-adv-x="378" 
d="M96 255h238l-193 -602h-161z" />
    <glyph glyph-name="hyphen" unicode="-" horiz-adv-x="935" 
d="M890 491h-845v203h845v-203z" />
    <glyph glyph-name="period" unicode="." horiz-adv-x="399" 
d="M200 -12q-62 0 -106.5 44t-44.5 106t44.5 106.5t106.5 44.5t106 -44.5t44 -106.5t-44 -106t-106 -44z" />
    <glyph glyph-name="slash" unicode="/" horiz-adv-x="925" 
d="M670 1439h241l-652 -1434h-241z" />
    <glyph glyph-name="zero" unicode="0" horiz-adv-x="1232" 
d="M1138 723q0 -139 -23 -253.5t-58.5 -188.5t-86 -130t-97.5 -85.5t-100.5 -47t-88.5 -22t-68 -4.5t-68 4.5t-89 22t-101 47t-97 85.5t-85.5 130t-58.5 188.5t-23 253.5t23 253.5t58.5 188.5t85.5 130t97 85.5t101 47t89 22t68 4.5t68 -4.5t89 -22t101 -47t97 -85.5
t85.5 -130t58.5 -188.5t23 -253.5zM902 723q0 33 -2 67.5t-8.5 87.5t-18 99.5t-33.5 96t-51 85t-74 58t-99 22.5t-99 -22.5t-73.5 -58t-50.5 -85t-33.5 -96t-18.5 -99.5t-8.5 -87.5t-1.5 -67.5t1.5 -67.5t8.5 -87.5t18.5 -99.5t33.5 -96t50.5 -85t73.5 -58t99 -22.5t99 22.5
t74 58t51 85t33.5 96t18 99.5t8.5 87.5t2 67.5z" />
    <glyph glyph-name="one" unicode="1" horiz-adv-x="694" 
d="M57 1247l515 234v-1475h-236v1128l-279 -127v240z" />
    <glyph glyph-name="two" unicode="2" horiz-adv-x="1112" 
d="M391 221h635v-215h-946v214l625 670q43 46 54 78q12 32 12 66q0 84 -65.5 143.5t-157.5 59.5t-157.5 -59.5t-65.5 -143.5h-236q0 113 61.5 209.5t167.5 152.5t230 56t230 -56t167.5 -152.5t61.5 -209.5q0 -70 -24 -136q-27 -73 -97 -147z" />
    <glyph glyph-name="three" unicode="3" horiz-adv-x="1169" 
d="M975 734q110 -126 110 -284q0 -124 -68.5 -229.5t-185.5 -167t-255 -61.5t-255 61.5t-185 167t-68 229.5h236q0 -101 80 -172t192 -71t192 71t80 172t-80 172.5t-192 71.5q-49 0 -101 -18l-4 -1l-134 166l366 384h-559v215h868v-219q-211 -210 -346 -343q160 -7 273 -108
q6 -4 8 -6q1 0 2 -2t2 -3q16 -16 24 -25z" />
    <glyph glyph-name="four" unicode="4" horiz-adv-x="1204" 
d="M1148 551v-215h-221v-330h-236v330h-630v215l531 888h269l-531 -888h361v372h237v-372h220z" />
    <glyph glyph-name="five" unicode="5" horiz-adv-x="1189" 
d="M1105 458q0 -126 -68.5 -233.5t-186.5 -170t-257 -62.5t-257.5 62.5t-187 170t-68.5 233.5h236q0 -103 81.5 -177t195.5 -74t195 73.5t81 177.5q0 113 -95 189q-78 62 -233 62h-399l115 731h770v-215h-565l-47 -301h126q245 0 389 -115q83 -67 129 -159t46 -192z" />
    <glyph glyph-name="six" unicode="6" horiz-adv-x="1163" 
d="M1074 585q59 -184 -44 -354q-102 -168 -306 -221q-70 -18 -141 -18q-133 0 -249 59q-90 45 -152.5 116.5t-91.5 161.5q-59 184 44 354l461 756h270l-7 -11l-352 -535q10 3 28.5 6.5t72.5 5t106 -7t120.5 -40.5t124.5 -85q81 -80 116 -187zM824 335q54 90 23 190
q-31 99 -132 150q-64 32 -134 32q-40 0 -76 -10q-111 -28 -165 -118q-55 -88 -23 -190q31 -99 132 -150q100 -51 210 -23t165 119z" />
    <glyph glyph-name="seven" unicode="7" horiz-adv-x="1038" 
d="M233 6l495 1219h-693v215h946v-214l-496 -1220h-252z" />
    <glyph glyph-name="eight" unicode="8" horiz-adv-x="1179" 
d="M1050 612q42 -82 44 -172q1 -89 -39 -175q-39 -82 -112 -146q-67 -58 -164 -94q-96 -33 -189 -33q-98 1 -190.5 34t-163.5 93q-73 60 -113.5 146t-38.5 175q2 91 44 173q11 23 32 52q40 52 92.5 87t85.5 44l32 9q-5 2 -13 5.5t-31 17t-43 28.5t-43 41t-38 54q-2 3 -7 16
l-2 4t-1 4q-21 54 -22 107q-2 74 32 145.5t95 121.5q123 103 293 105q77 0 156 -27q78 -28 137 -78q60 -51 94 -122t32 -145q0 -50 -21 -105v1q-19 -53 -64.5 -96.5t-81.5 -59.5l-35 -17q5 -1 13.5 -3t33.5 -12t49 -24t55.5 -40t56.5 -58q20 -28 35 -56zM590 1238
q-78 3 -139 -44t-62 -112q-3 -70 54 -120q59 -51 147 -53q44 0 80 13q32 12 66 40q58 52 55 120t-63 112t-138 44zM787 273q86 67 89 167t-82 174q-40 34 -93 54q-55 19 -111 19q-121 -2 -204 -74q-84 -72 -81 -173q2 -98 87 -167q83 -68 198 -66q112 0 197 66z" />
    <glyph glyph-name="nine" unicode="9" horiz-adv-x="1163" 
d="M88 861q-28 89 -17 180t61 173t128.5 139.5t177.5 82.5q70 18 141 18q133 0 249 -59q90 -45 152.5 -117t91.5 -162q28 -89 17 -180t-61 -173v-1l-461 -756h-270l7 12l353 534q-10 -3 -28.5 -6.5t-73 -5t-106.5 7.5t-120.5 41t-124.5 85q-81 80 -116 187zM338 1110
q-55 -88 -23 -190q31 -99 132 -150q64 -32 134 -32q40 0 76 10q110 28 165 119q55 88 23 190q-31 99 -132 150q-99 50 -210 22q-110 -28 -165 -119z" />
    <glyph glyph-name="colon" unicode=":" horiz-adv-x="444" 
d="M222 -12q-62 0 -106 44t-44 106t44 106.5t106 44.5t106.5 -44.5t44.5 -106.5t-44.5 -106t-106.5 -44zM222 681q-62 0 -106 44t-44 106t44 106.5t106 44.5t106.5 -44.5t44.5 -106.5t-44.5 -106t-106.5 -44z" />
    <glyph glyph-name="semicolon" unicode=";" horiz-adv-x="442" 
d="M225 681q-62 0 -106 44t-44 106t44 106.5t106 44.5t106.5 -44.5t44.5 -106.5t-44.5 -106t-106.5 -44zM0 -347l116 602h239l-193 -602h-162z" />
    <glyph glyph-name="less" unicode="&#x3c;" horiz-adv-x="1282" 
d="M1203 1349v-230l-856 -417l856 -418v-230l-1154 564v168z" />
    <glyph glyph-name="equal" unicode="=" horiz-adv-x="1054" 
d="M990 743h-927v202h927v-202zM990 338h-927v203h927v-203z" />
    <glyph glyph-name="greater" unicode="&#x3e;" horiz-adv-x="1282" 
d="M78 1349l1153 -563v-168l-1153 -564v230l855 418l-855 417v230z" />
    <glyph glyph-name="question" unicode="?" horiz-adv-x="972" 
d="M468 -12q-62 0 -106 44t-44 106t44 106.5t106 44.5t106.5 -44.5t44.5 -106.5t-44.5 -106t-106.5 -44zM904 1126q9 -65 -3 -122t-44 -105t-56 -75t-64 -65q-4 -3 -11.5 -9.5t-10.5 -10.5l-31 -31q-70 -66 -89 -105q-14 -29 -17.5 -60t-3.5 -105v-16h-222v16q0 63 1 91.5
t10 72.5t28 83q17 34 42.5 67.5t42.5 50.5t48 46q4 5 13.5 14t14.5 13l23 23q65 61 90.5 103.5t17.5 99.5q-9 69 -67 110t-147 41q-174 0 -220 -170l-216 49q42 154 156 238.5t280 84.5q173 0 294 -91.5t141 -237.5z" />
    <glyph glyph-name="at" unicode="@" horiz-adv-x="1761" 
d="M1634 834q79 -166 39 -338q-19 -87 -65 -162q-54 -85 -130 -136q-97 -67 -208 -67q-73 2 -130 41q-18 14 -27 22q-12 11 -22 25q-5 6 -17 27l-1 2l-1 2q-47 -51 -99 -82q-71 -41 -149 -51q-91 -12 -170 20q-80 30 -135 102q-46 59 -59 140q-11 69 3 141q26 138 130 244
q51 51 120 87q77 39 154 44q94 7 168 -29q50 -23 89 -65l14 75h198l-61 -303l-28 -144q-1 -6 -3 -16l-2 -15q-3 -15 -3 -27v-13l1 -11q0 -5 2 -11.5t2 -7.5q8 -16 12 -17q10 -5 20 -6q44 0 88 32q94 63 123 194q28 122 -25 234q-52 109 -171 190q-10 8 -31.5 20t-26.5 15
q-11 6 -33 15.5t-29 12.5q-7 2 -30 10.5t-36 11.5l-34 8q-22 6 -34 7q-138 23 -277 -11q-135 -32 -248.5 -116.5t-179.5 -199.5q-66 -114 -71.5 -246t51.5 -247q59 -115 174 -193q106 -73 255 -94q138 -20 277.5 19t248.5 126l114 -118q-136 -109 -312 -159t-353 -26
q-190 26 -335 123q-152 103 -231 254q-76 153 -69.5 321.5t90.5 314.5q84 147 225.5 253.5t314.5 148.5q173 45 359.5 15t331.5 -129q162 -110 232 -257zM1072 515q9 47 -3 91t-43 73q-26 26 -65 36q-30 8 -73 3q-82 -11 -149 -77q-69 -64 -86 -151q-8 -43 0 -82
q7 -37 30 -66q42 -52 121 -51q91 3 166 64q83 64 102 160z" />
    <glyph glyph-name="A" unicode="A" horiz-adv-x="1468" 
d="M896 1434l567 -1434h-251l-137 346h-683l-137 -346h-251l567 1434h325zM477 561h513l-256 648z" />
    <glyph glyph-name="A" unicode="&#xc5;" horiz-adv-x="1468" 
d="M896 1434l567 -1434h-251l-137 346h-683l-137 -346h-251l567 1434h325zM477 561h513l-256 648z" />
    <glyph glyph-name="A" unicode="&#xc4;" horiz-adv-x="1468" 
d="M896 1434l567 -1434h-251l-137 346h-683l-137 -346h-251l567 1434h325zM477 561h513l-256 648z" />
    <glyph glyph-name="A" unicode="&#xc3;" horiz-adv-x="1468" 
d="M896 1434l567 -1434h-251l-137 346h-683l-137 -346h-251l567 1434h325zM477 561h513l-256 648z" />
    <glyph glyph-name="A" unicode="&#xc2;" horiz-adv-x="1468" 
d="M896 1434l567 -1434h-251l-137 346h-683l-137 -346h-251l567 1434h325zM477 561h513l-256 648z" />
    <glyph glyph-name="A" unicode="&#xc1;" horiz-adv-x="1468" 
d="M896 1434l567 -1434h-251l-137 346h-683l-137 -346h-251l567 1434h325zM477 561h513l-256 648z" />
    <glyph glyph-name="A" unicode="&#xc0;" horiz-adv-x="1468" 
d="M896 1434l567 -1434h-251l-137 346h-683l-137 -346h-251l567 1434h325zM477 561h513l-256 648z" />
    <glyph glyph-name="B" unicode="B" horiz-adv-x="1335" 
d="M1256 553q20 -60 20 -122q0 -95 -43 -178q-43 -84 -122 -140q-75 -54 -179 -84q-101 -29 -221 -29h-592v1434h559q108 0 200 -26q95 -27 164 -78q72 -52 111 -128q39 -75 39 -162q0 -36 -8 -74q-9 -42 -33 -78.5t-52 -58.5t-54 -38t-43 -23l-18 -6q8 -1 22.5 -4t53.5 -17
t72.5 -34.5t69.5 -61t54 -92.5zM678 1219h-323v-358h323q75 0 129 16q53 16 86 40q30 22 46 52q16 31 16 71q0 39 -16 70q-17 32 -46 53q-33 24 -86 40q-54 16 -129 16zM1020 345q19 37 19 86q0 48 -19 85t-57 64q-39 29 -102 48q-65 18 -150 18h-356v-431h356q82 0 150 19
q64 19 102 47q38 27 57 64z" />
    <glyph glyph-name="C" unicode="C" horiz-adv-x="1456" 
d="M456 352q109 -99 255 -134t292 0t255 134l168 -152q-116 -105 -264 -159.5t-305 -54.5q-158 0 -305.5 54.5t-263.5 159.5q-154 140 -208.5 328.5t0 377t208.5 328.5t361.5 190t415 0t361.5 -190l-168 -152q-109 99 -255 134t-292 0t-255 -134t-147.5 -232t0 -266
t147.5 -232z" />
    <glyph glyph-name="C" unicode="&#xc7;" horiz-adv-x="1456" 
d="M456 352q109 -99 255 -134t292 0t255 134l168 -152q-116 -105 -264 -159.5t-305 -54.5q-158 0 -305.5 54.5t-263.5 159.5q-154 140 -208.5 328.5t0 377t208.5 328.5t361.5 190t415 0t361.5 -190l-168 -152q-109 99 -255 134t-292 0t-255 -134t-147.5 -232t0 -266
t147.5 -232z" />
    <glyph glyph-name="D" unicode="D" horiz-adv-x="1501" 
d="M1389 1001q54 -130 54 -284q0 -155 -54 -286q-54 -134 -159 -231q-101 -94 -251 -148q-147 -52 -320 -52h-540v1433h540q176 0 320 -51q146 -53 251 -150t159 -231zM1168 506q39 93 39 211q0 116 -39 209q-37 91 -107 156q-71 65 -169 100q-105 37 -233 37h-304v-1004
h304q128 0 233 37q101 37 170 100q68 62 106 154z" />
    <glyph glyph-name="E" unicode="E" horiz-adv-x="1165" 
d="M1093 1219h-736v-388h680v-215h-680v-401h736v-215h-736h-236v1434h972v-215z" />
    <glyph glyph-name="E" unicode="&#xcb;" horiz-adv-x="1165" 
d="M1093 1219h-736v-388h680v-215h-680v-401h736v-215h-736h-236v1434h972v-215z" />
    <glyph glyph-name="E" unicode="&#xca;" horiz-adv-x="1165" 
d="M1093 1219h-736v-388h680v-215h-680v-401h736v-215h-736h-236v1434h972v-215z" />
    <glyph glyph-name="E" unicode="&#xc9;" horiz-adv-x="1165" 
d="M1093 1219h-736v-388h680v-215h-680v-401h736v-215h-736h-236v1434h972v-215z" />
    <glyph glyph-name="E" unicode="&#xc8;" horiz-adv-x="1165" 
d="M1093 1219h-736v-388h680v-215h-680v-401h736v-215h-736h-236v1434h972v-215z" />
    <glyph glyph-name="F" unicode="F" horiz-adv-x="1134" 
d="M1093 1219h-736v-388h680v-215h-680v-616h-236v1434h972v-215z" />
    <glyph glyph-name="G" unicode="G" horiz-adv-x="1669" 
d="M1621 825q9 -53 9 -108q0 -148 -62.5 -283.5t-168 -233.5t-251.5 -156t-306 -58t-306 58t-252 156t-168.5 233.5t-62.5 283.5t62.5 283.5t168.5 233.5t252 156t306 58q162 0 307 -58t255 -162l-167 -152q-76 74 -178.5 115.5t-216.5 41.5q-150 0 -277 -69t-201 -188
t-74 -259t74 -259t201 -188t277 -69q197 0 348 116t191 292h-531l237 215h294v1h240z" />
    <glyph glyph-name="H" unicode="H" horiz-adv-x="1390" 
d="M1035 1434h236v-1434h-236v616h-680v-616h-236v1434h236v-603h680v603z" />
    <glyph glyph-name="I" unicode="I" horiz-adv-x="475" 
d="M355 0h-236v1434h236v-1434z" />
    <glyph glyph-name="I" unicode="&#xcf;" horiz-adv-x="475" 
d="M355 0h-236v1434h236v-1434z" />
    <glyph glyph-name="I" unicode="&#xce;" horiz-adv-x="475" 
d="M355 0h-236v1434h236v-1434z" />
    <glyph glyph-name="I" unicode="&#xcd;" horiz-adv-x="475" 
d="M355 0h-236v1434h236v-1434z" />
    <glyph glyph-name="I" unicode="&#xcc;" horiz-adv-x="475" 
d="M355 0h-236v1434h236v-1434z" />
    <glyph glyph-name="J" unicode="J" horiz-adv-x="1163" 
d="M822 1434h237v-928q0 -245 -141 -388q-147 -147 -385 -147q-187 0 -329 103q-141 102 -196 285l228 58q36 -118 115 -175q77 -56 182 -56q134 0 209 76q80 80 80 244v928z" />
    <glyph glyph-name="K" unicode="K" horiz-adv-x="1429" 
d="M635 756l801 -756h-328l-753 710v-710h-236v1434h236v-632l669 632h328z" />
    <glyph glyph-name="L" unicode="L" horiz-adv-x="1101" 
d="M357 214h736v-214h-972v1434h236v-1220z" />
    <glyph glyph-name="M" unicode="M" horiz-adv-x="1748" 
d="M1528 1434l155 -1434h-238l-74 688q-12 108 -13.5 206t2.5 142l4 45q-53 -177 -153 -383l-337 -692l-337 692q-44 92 -82.5 187.5t-54.5 145.5l-16 50q19 -151 -7 -393l-74 -688h-237l154 1434h218l436 -897l436 897h218z" />
    <glyph glyph-name="N" unicode="N" horiz-adv-x="1425" 
d="M1069 1434h236v-1434h-223l-554 777q-64 89 -114 172t-68 122l-18 39q27 -149 27 -425v-685h-236v1434h223l554 -778q64 -89 114 -172t68 -122l18 -38q-27 149 -27 425v685z" />
    <glyph glyph-name="N" unicode="&#xd1;" horiz-adv-x="1425" 
d="M1069 1434h236v-1434h-223l-554 777q-64 89 -114 172t-68 122l-18 39q27 -149 27 -425v-685h-236v1434h223l554 -778q64 -89 114 -172t68 -122l18 -38q-27 149 -27 425v685z" />
    <glyph glyph-name="O" unicode="O" horiz-adv-x="1683" 
d="M842 1447q160 0 306 -58t251.5 -156t168 -233.5t62.5 -283.5t-62.5 -283.5t-168 -233.5t-251.5 -156t-306 -58t-306 58t-252 156t-168.5 233.5t-62.5 283.5t62.5 283.5t168.5 233.5t252 156t306 58zM842 200q150 0 277 69t201 188t74 259t-74 259t-201 188t-277 69
t-277 -69t-201 -188t-74 -259t74 -259t201 -188t277 -69z" />
    <glyph glyph-name="O" unicode="&#xd8;" horiz-adv-x="1683" 
d="M842 1447q160 0 306 -58t251.5 -156t168 -233.5t62.5 -283.5t-62.5 -283.5t-168 -233.5t-251.5 -156t-306 -58t-306 58t-252 156t-168.5 233.5t-62.5 283.5t62.5 283.5t168.5 233.5t252 156t306 58zM842 200q150 0 277 69t201 188t74 259t-74 259t-201 188t-277 69
t-277 -69t-201 -188t-74 -259t74 -259t201 -188t277 -69z" />
    <glyph glyph-name="O" unicode="&#xd6;" horiz-adv-x="1683" 
d="M842 1447q160 0 306 -58t251.5 -156t168 -233.5t62.5 -283.5t-62.5 -283.5t-168 -233.5t-251.5 -156t-306 -58t-306 58t-252 156t-168.5 233.5t-62.5 283.5t62.5 283.5t168.5 233.5t252 156t306 58zM842 200q150 0 277 69t201 188t74 259t-74 259t-201 188t-277 69
t-277 -69t-201 -188t-74 -259t74 -259t201 -188t277 -69z" />
    <glyph glyph-name="O" unicode="&#xd5;" horiz-adv-x="1683" 
d="M842 1447q160 0 306 -58t251.5 -156t168 -233.5t62.5 -283.5t-62.5 -283.5t-168 -233.5t-251.5 -156t-306 -58t-306 58t-252 156t-168.5 233.5t-62.5 283.5t62.5 283.5t168.5 233.5t252 156t306 58zM842 200q150 0 277 69t201 188t74 259t-74 259t-201 188t-277 69
t-277 -69t-201 -188t-74 -259t74 -259t201 -188t277 -69z" />
    <glyph glyph-name="O" unicode="&#xd4;" horiz-adv-x="1683" 
d="M842 1447q160 0 306 -58t251.5 -156t168 -233.5t62.5 -283.5t-62.5 -283.5t-168 -233.5t-251.5 -156t-306 -58t-306 58t-252 156t-168.5 233.5t-62.5 283.5t62.5 283.5t168.5 233.5t252 156t306 58zM842 200q150 0 277 69t201 188t74 259t-74 259t-201 188t-277 69
t-277 -69t-201 -188t-74 -259t74 -259t201 -188t277 -69z" />
    <glyph glyph-name="O" unicode="&#xd3;" horiz-adv-x="1683" 
d="M842 1447q160 0 306 -58t251.5 -156t168 -233.5t62.5 -283.5t-62.5 -283.5t-168 -233.5t-251.5 -156t-306 -58t-306 58t-252 156t-168.5 233.5t-62.5 283.5t62.5 283.5t168.5 233.5t252 156t306 58zM842 200q150 0 277 69t201 188t74 259t-74 259t-201 188t-277 69
t-277 -69t-201 -188t-74 -259t74 -259t201 -188t277 -69z" />
    <glyph glyph-name="O" unicode="&#xd2;" horiz-adv-x="1683" 
d="M842 1447q160 0 306 -58t251.5 -156t168 -233.5t62.5 -283.5t-62.5 -283.5t-168 -233.5t-251.5 -156t-306 -58t-306 58t-252 156t-168.5 233.5t-62.5 283.5t62.5 283.5t168.5 233.5t252 156t306 58zM842 200q150 0 277 69t201 188t74 259t-74 259t-201 188t-277 69
t-277 -69t-201 -188t-74 -259t74 -259t201 -188t277 -69z" />
    <glyph glyph-name="P" unicode="P" horiz-adv-x="1296" 
d="M1220 1180q41 -82 41 -177q0 -94 -41 -176q-43 -83 -119 -140q-74 -56 -177 -86q-99 -29 -218 -29h-349v-572h-236v1433h585q122 0 218 -28q104 -31 176 -85q76 -56 120 -140zM1006 917q19 38 19 86q0 49 -19 87q-19 37 -55 64q-37 29 -99 46q-67 19 -146 19h-349v-432
h349q80 0 146 19q60 17 98 46q35 26 56 65z" />
    <glyph glyph-name="Q" unicode="Q" horiz-adv-x="1757" 
d="M1455 259l285 -259h-315l-131 119q-203 -133 -452 -133q-160 0 -306 58t-252 156t-168.5 233.5t-62.5 283.5t62.5 283.5t168.5 233.5t252 156t306 58t306 -58t251.5 -156t168 -233.5t62.5 -283.5q0 -257 -175 -458zM1286 412q107 136 107 305q0 140 -74 259t-201 188
t-277 69t-276.5 -69t-200.5 -188t-74 -259t74 -259t200.5 -188t276.5 -69q151 0 283 73l-262 238h314z" />
    <glyph glyph-name="R" unicode="R" horiz-adv-x="1366" 
d="M723 637l632 -637h-313l-687 723v-723h-236v1434h575q112 0 212 -28q102 -29 173 -81q78 -57 118 -135q41 -79 41 -171t-41 -171q-15 -30 -45 -67q-43 -49 -102.5 -82t-114.5 -45t-104 -16.5t-79 -2.5zM355 1219v-401h339q80 0 142 18q60 17 95 44q35 26 53 60t18 79
t-18 79q-17 32 -53 59q-38 28 -95 44q-61 18 -142 18h-339z" />
    <glyph glyph-name="S" unicode="S" horiz-adv-x="1234" 
d="M698 847q49 -16 79 -26.5t85.5 -34t92 -46t82 -59t72.5 -76t47 -94.5t22 -117q5 -170 -126 -285q-74 -66 -180 -102t-226 -36q-23 0 -35 1q-209 9 -364 118.5t-206 284.5l228 56q35 -118 135.5 -178.5t218.5 -65.5q80 -4 150.5 16t113.5 59q57 51 55 126
q-1 41 -19.5 75.5t-45 59t-71.5 48t-86 39t-101 34.5q-27 9 -66 23q-4 2 -9.5 3.5t-12.5 4t-11 3.5q-40 14 -65 23t-74 31.5t-82 43.5t-73.5 55.5t-63.5 71t-37.5 87t-9.5 106.5q5 68 38.5 131.5t92.5 117t152.5 85.5t208.5 32q187 0 321.5 -77.5t198.5 -222.5l-220 -79
q-72 164 -300 164q-12 0 -30 -1t-59.5 -10.5t-74.5 -25t-60.5 -50t-31.5 -80.5q-5 -66 56 -110t197 -91q7 -2 19 -6.5t18 -6.5q7 -3 16 -6t21.5 -7t19.5 -6z" />
    <glyph glyph-name="T" unicode="T" horiz-adv-x="1159" 
d="M8 1434h1141v-215h-452v-1219h-237v1219h-452v215z" />
    <glyph glyph-name="U" unicode="U" horiz-adv-x="1372" 
d="M1031 1434h237v-908q0 -121 -41 -223q-44 -106 -120 -178q-79 -76 -189 -115q-106 -39 -233 -39q-125 0 -232 39q-108 38 -189 115q-78 73 -120 177t-42 224v908h237v-908q0 -83 26 -149q25 -61 70 -103q43 -41 106 -64q69 -24 144 -24q81 0 146 24q62 23 104 63
q46 44 70 104q26 62 26 149v908z" />
    <glyph glyph-name="U" unicode="&#xdc;" horiz-adv-x="1372" 
d="M1031 1434h237v-908q0 -121 -41 -223q-44 -106 -120 -178q-79 -76 -189 -115q-106 -39 -233 -39q-125 0 -232 39q-108 38 -189 115q-78 73 -120 177t-42 224v908h237v-908q0 -83 26 -149q25 -61 70 -103q43 -41 106 -64q69 -24 144 -24q81 0 146 24q62 23 104 63
q46 44 70 104q26 62 26 149v908z" />
    <glyph glyph-name="U" unicode="&#xdb;" horiz-adv-x="1372" 
d="M1031 1434h237v-908q0 -121 -41 -223q-44 -106 -120 -178q-79 -76 -189 -115q-106 -39 -233 -39q-125 0 -232 39q-108 38 -189 115q-78 73 -120 177t-42 224v908h237v-908q0 -83 26 -149q25 -61 70 -103q43 -41 106 -64q69 -24 144 -24q81 0 146 24q62 23 104 63
q46 44 70 104q26 62 26 149v908z" />
    <glyph glyph-name="U" unicode="&#xda;" horiz-adv-x="1372" 
d="M1031 1434h237v-908q0 -121 -41 -223q-44 -106 -120 -178q-79 -76 -189 -115q-106 -39 -233 -39q-125 0 -232 39q-108 38 -189 115q-78 73 -120 177t-42 224v908h237v-908q0 -83 26 -149q25 -61 70 -103q43 -41 106 -64q69 -24 144 -24q81 0 146 24q62 23 104 63
q46 44 70 104q26 62 26 149v908z" />
    <glyph glyph-name="U" unicode="&#xd9;" horiz-adv-x="1372" 
d="M1031 1434h237v-908q0 -121 -41 -223q-44 -106 -120 -178q-79 -76 -189 -115q-106 -39 -233 -39q-125 0 -232 39q-108 38 -189 115q-78 73 -120 177t-42 224v908h237v-908q0 -83 26 -149q25 -61 70 -103q43 -41 106 -64q69 -24 144 -24q81 0 146 24q62 23 104 63
q46 44 70 104q26 62 26 149v908z" />
    <glyph glyph-name="V" unicode="V" horiz-adv-x="1439" 
d="M1184 1434h252l-576 -1434h-282l-576 1434h252l465 -1159z" />
    <glyph glyph-name="W" unicode="W" horiz-adv-x="2011" 
d="M1755 1434h250l-560 -1434h-241l-199 561l-200 -561h-241l-560 1434h251l430 -1100l194 497l-235 603h251l110 -332l110 332h251l-236 -603l195 -497z" />
    <glyph glyph-name="X" unicode="X" horiz-adv-x="1357" 
d="M1348 1434l-528 -717l528 -717h-285l-385 524l-385 -524h-285l528 717l-528 717h285l385 -524l385 524h285z" />
    <glyph glyph-name="Y" unicode="Y" horiz-adv-x="1316" 
d="M1043 1434h284l-551 -750v-684h-237v684l-551 750h284l385 -524z" />
    <glyph glyph-name="Y" unicode="&#x178;" horiz-adv-x="1316" 
d="M1043 1434h284l-551 -750v-684h-237v684l-551 750h284l385 -524z" />
    <glyph glyph-name="Y" unicode="&#xdd;" horiz-adv-x="1316" 
d="M1043 1434h284l-551 -750v-684h-237v684l-551 750h284l385 -524z" />
    <glyph glyph-name="Z" unicode="Z" horiz-adv-x="1226" 
d="M336 215h853v-215h-1148v211l804 1008h-753v215h1046v-213z" />
    <glyph glyph-name="bracketleft" unicode="[" horiz-adv-x="464" 
d="M595 1481h-252v-1518h252v-202h-474v1922h474v-202z" />
    <glyph glyph-name="backslash" unicode="\" horiz-adv-x="925" 
d="M255 1439l652 -1434h-241l-652 1434h241z" />
    <glyph glyph-name="bracketright" unicode="]" horiz-adv-x="464" 
d="M-131 1683h474v-1922h-474v202h252v1518h-252v202z" />
    <glyph glyph-name="underscore" unicode="_" horiz-adv-x="1032" 
d="M989 -14h-946v202h946v-202z" />
    <glyph glyph-name="a" unicode="a" 
d="M1017 1037h236v-1024h-236v141q-73 -74 -162 -114q-103 -47 -221 -50q-118 -2 -225 39q-104 39 -188 119q-79 75 -122 174.5t-42 202.5q-1 103 42 202.5t122 174.5q83 78 188 118q107 41 225 39q120 -3 221 -49q89 -40 162 -114v141zM893 285q58 43 91.5 106.5
t32.5 133.5q1 70 -32.5 134.5t-91.5 106.5q-52 41 -124 62q-68 20 -135 17q-142 -5 -239 -96q-100 -91 -102 -224q2 -132 102 -223q97 -91 239 -96q67 -3 135 17q72 21 124 62z" />
    <glyph glyph-name="a" unicode="&#xe5;" 
d="M1017 1037h236v-1024h-236v141q-73 -74 -162 -114q-103 -47 -221 -50q-118 -2 -225 39q-104 39 -188 119q-79 75 -122 174.5t-42 202.5q-1 103 42 202.5t122 174.5q83 78 188 118q107 41 225 39q120 -3 221 -49q89 -40 162 -114v141zM893 285q58 43 91.5 106.5
t32.5 133.5q1 70 -32.5 134.5t-91.5 106.5q-52 41 -124 62q-68 20 -135 17q-142 -5 -239 -96q-100 -91 -102 -224q2 -132 102 -223q97 -91 239 -96q67 -3 135 17q72 21 124 62z" />
    <glyph glyph-name="a" unicode="&#xe4;" 
d="M1017 1037h236v-1024h-236v141q-73 -74 -162 -114q-103 -47 -221 -50q-118 -2 -225 39q-104 39 -188 119q-79 75 -122 174.5t-42 202.5q-1 103 42 202.5t122 174.5q83 78 188 118q107 41 225 39q120 -3 221 -49q89 -40 162 -114v141zM893 285q58 43 91.5 106.5
t32.5 133.5q1 70 -32.5 134.5t-91.5 106.5q-52 41 -124 62q-68 20 -135 17q-142 -5 -239 -96q-100 -91 -102 -224q2 -132 102 -223q97 -91 239 -96q67 -3 135 17q72 21 124 62z" />
    <glyph glyph-name="a" unicode="&#xe3;" 
d="M1017 1037h236v-1024h-236v141q-73 -74 -162 -114q-103 -47 -221 -50q-118 -2 -225 39q-104 39 -188 119q-79 75 -122 174.5t-42 202.5q-1 103 42 202.5t122 174.5q83 78 188 118q107 41 225 39q120 -3 221 -49q89 -40 162 -114v141zM893 285q58 43 91.5 106.5
t32.5 133.5q1 70 -32.5 134.5t-91.5 106.5q-52 41 -124 62q-68 20 -135 17q-142 -5 -239 -96q-100 -91 -102 -224q2 -132 102 -223q97 -91 239 -96q67 -3 135 17q72 21 124 62z" />
    <glyph glyph-name="a" unicode="&#xe2;" 
d="M1017 1037h236v-1024h-236v141q-73 -74 -162 -114q-103 -47 -221 -50q-118 -2 -225 39q-104 39 -188 119q-79 75 -122 174.5t-42 202.5q-1 103 42 202.5t122 174.5q83 78 188 118q107 41 225 39q120 -3 221 -49q89 -40 162 -114v141zM893 285q58 43 91.5 106.5
t32.5 133.5q1 70 -32.5 134.5t-91.5 106.5q-52 41 -124 62q-68 20 -135 17q-142 -5 -239 -96q-100 -91 -102 -224q2 -132 102 -223q97 -91 239 -96q67 -3 135 17q72 21 124 62z" />
    <glyph glyph-name="a" unicode="&#xe1;" 
d="M1017 1037h236v-1024h-236v141q-73 -74 -162 -114q-103 -47 -221 -50q-118 -2 -225 39q-104 39 -188 119q-79 75 -122 174.5t-42 202.5q-1 103 42 202.5t122 174.5q83 78 188 118q107 41 225 39q120 -3 221 -49q89 -40 162 -114v141zM893 285q58 43 91.5 106.5
t32.5 133.5q1 70 -32.5 134.5t-91.5 106.5q-52 41 -124 62q-68 20 -135 17q-142 -5 -239 -96q-100 -91 -102 -224q2 -132 102 -223q97 -91 239 -96q67 -3 135 17q72 21 124 62z" />
    <glyph glyph-name="a" unicode="&#xe0;" 
d="M1017 1037h236v-1024h-236v141q-73 -74 -162 -114q-103 -47 -221 -50q-118 -2 -225 39q-104 39 -188 119q-79 75 -122 174.5t-42 202.5q-1 103 42 202.5t122 174.5q83 78 188 118q107 41 225 39q120 -3 221 -49q89 -40 162 -114v141zM893 285q58 43 91.5 106.5
t32.5 133.5q1 70 -32.5 134.5t-91.5 106.5q-52 41 -124 62q-68 20 -135 17q-142 -5 -239 -96q-100 -91 -102 -224q2 -132 102 -223q97 -91 239 -96q67 -3 135 17q72 21 124 62z" />
    <glyph glyph-name="b" unicode="b" 
d="M1141 902q79 -75 122 -174.5t42 -202.5q1 -103 -42 -202.5t-122 -174.5q-83 -78 -188 -118q-109 -42 -225 -40q-118 3 -221 50q-89 40 -162 114v-141h-236v1434h236v-551q73 74 162 114q103 47 221 50q116 2 225 -40q105 -40 188 -118zM967 302q100 91 102 223
q0 63 -27 121.5t-75 102.5q-97 91 -239 96q-67 3 -135 -17q-72 -21 -124 -62q-58 -42 -91.5 -106.5t-32.5 -134.5q-1 -70 32.5 -133.5t91.5 -106.5q52 -41 124 -62q68 -20 135 -17q142 5 239 96z" />
    <glyph glyph-name="c" unicode="c" horiz-adv-x="1140" 
d="M634 206q81 0 152.5 33.5t120.5 94.5l192 -126q-82 -102 -205 -159.5t-260 -57.5h-1q-156 0 -289 72t-210 195.5t-77 268.5q0 219 169 376q82 76 187.5 116.5t221.5 40.5h1q138 0 261.5 -59t204.5 -163l-193 -124q-49 62 -120.5 96.5t-153.5 34.5q-140 0 -240 -92
q-101 -93 -101 -227q-1 -132 98.5 -226t240.5 -94h1z" />
    <glyph glyph-name="c" unicode="&#xe7;" horiz-adv-x="1140" 
d="M634 206q81 0 152.5 33.5t120.5 94.5l192 -126q-82 -102 -205 -159.5t-260 -57.5h-1q-156 0 -289 72t-210 195.5t-77 268.5q0 219 169 376q82 76 187.5 116.5t221.5 40.5h1q138 0 261.5 -59t204.5 -163l-193 -124q-49 62 -120.5 96.5t-153.5 34.5q-140 0 -240 -92
q-101 -93 -101 -227q-1 -132 98.5 -226t240.5 -94h1z" />
    <glyph glyph-name="d" unicode="d" 
d="M1017 1447h236v-1434h-236v141q-73 -74 -162 -114q-103 -47 -221 -50q-118 -2 -225 39q-104 39 -188 119q-79 75 -122 174.5t-42 202.5q-1 103 42 202.5t122 174.5q83 78 188 118q107 41 225 39q120 -3 221 -49q89 -40 162 -114v551zM893 285q58 43 91.5 106.5
t32.5 133.5q1 70 -32.5 134.5t-91.5 106.5q-52 41 -124 62q-68 20 -135 17q-142 -5 -239 -96q-48 -44 -75 -102.5t-27 -121.5q2 -132 102 -223q97 -91 239 -96q67 -3 135 17q72 21 124 62z" />
    <glyph glyph-name="e" unicode="e" horiz-adv-x="1269" 
d="M1159 437h-852q35 -101 136 -166t229 -65q87 0 163.5 31t130.5 86l219 -93q-85 -112 -221 -175.5t-292 -63.5q-167 0 -309.5 71.5t-225 194.5t-82.5 268t77.5 268.5t210.5 195t289 71.5q117 0 224 -42.5t184.5 -114t123.5 -170.5t46 -208q0 -36 -9 -88h-42zM305 614h655
q-31 101 -122 166t-206 65t-205.5 -65t-121.5 -166z" />
    <glyph glyph-name="e" unicode="&#xeb;" horiz-adv-x="1269" 
d="M1159 437h-852q35 -101 136 -166t229 -65q87 0 163.5 31t130.5 86l219 -93q-85 -112 -221 -175.5t-292 -63.5q-167 0 -309.5 71.5t-225 194.5t-82.5 268t77.5 268.5t210.5 195t289 71.5q117 0 224 -42.5t184.5 -114t123.5 -170.5t46 -208q0 -36 -9 -88h-42zM305 614h655
q-31 101 -122 166t-206 65t-205.5 -65t-121.5 -166z" />
    <glyph glyph-name="e" unicode="&#xea;" horiz-adv-x="1269" 
d="M1159 437h-852q35 -101 136 -166t229 -65q87 0 163.5 31t130.5 86l219 -93q-85 -112 -221 -175.5t-292 -63.5q-167 0 -309.5 71.5t-225 194.5t-82.5 268t77.5 268.5t210.5 195t289 71.5q117 0 224 -42.5t184.5 -114t123.5 -170.5t46 -208q0 -36 -9 -88h-42zM305 614h655
q-31 101 -122 166t-206 65t-205.5 -65t-121.5 -166z" />
    <glyph glyph-name="e" unicode="&#xe9;" horiz-adv-x="1269" 
d="M1159 437h-852q35 -101 136 -166t229 -65q87 0 163.5 31t130.5 86l219 -93q-85 -112 -221 -175.5t-292 -63.5q-167 0 -309.5 71.5t-225 194.5t-82.5 268t77.5 268.5t210.5 195t289 71.5q117 0 224 -42.5t184.5 -114t123.5 -170.5t46 -208q0 -36 -9 -88h-42zM305 614h655
q-31 101 -122 166t-206 65t-205.5 -65t-121.5 -166z" />
    <glyph glyph-name="e" unicode="&#xe8;" horiz-adv-x="1269" 
d="M1159 437h-852q35 -101 136 -166t229 -65q87 0 163.5 31t130.5 86l219 -93q-85 -112 -221 -175.5t-292 -63.5q-167 0 -309.5 71.5t-225 194.5t-82.5 268t77.5 268.5t210.5 195t289 71.5q117 0 224 -42.5t184.5 -114t123.5 -170.5t46 -208q0 -36 -9 -88h-42zM305 614h655
q-31 101 -122 166t-206 65t-205.5 -65t-121.5 -166z" />
    <glyph glyph-name="f" unicode="f" horiz-adv-x="765" 
d="M518 1213q-52 -40 -52 -156v-19h271v-215h-271v-810h-236v810h-203v215h203v19q0 212 134 318q74 58 164.5 75t208.5 12v-215q-88 3 -138.5 -3.5t-80.5 -30.5z" />
    <glyph glyph-name="g" unicode="g" horiz-adv-x="1341" 
d="M995 1037h236v-892q0 -224 -121.5 -366.5t-344.5 -179.5q-57 -10 -122 -10q-178 0 -335 78t-243 213l204 109q64 -100 192 -150.5t261 -28.5q273 45 273 335v23q-71 -71 -155 -109q-99 -45 -217 -48q-118 -2 -221 38t-185 117q-77 74 -119 171t-41 198q-1 101 41.5 198.5
t119.5 171.5q81 76 184 116t221 38q117 -3 216 -48q85 -38 156 -109v135zM874 302q56 41 89 103.5t32 129.5q1 67 -32 129.5t-89 104.5q-53 41 -121 60t-130 16q-137 -5 -231 -93q-47 -42 -73 -99t-26 -118q2 -128 99 -216q94 -88 231 -93q62 -3 130 16t121 60z" />
    <glyph glyph-name="h" unicode="h" horiz-adv-x="1181" 
d="M1090 13h-238l1 558q0 64 -14 113t-46 89q-58 72 -157 80q-52 4 -99 -9q-50 -14 -90 -51q-42 -37 -69 -98q-24 -54 -32 -124q0 -6 -1 -18.5t-2 -18.5v-521h-237v1434h237v-513q42 50 96 80q41 24 96 39q42 11 101 15q111 5 205 -39q96 -44 157 -130q93 -130 91 -328z" />
    <glyph glyph-name="i" unicode="i" horiz-adv-x="448" 
d="M342 13h-236v1024h236v-1024zM224 1146q-62 0 -106 44t-44 106t44 106.5t106 44.5t106.5 -44.5t44.5 -106.5t-44.5 -106t-106.5 -44z" />
    <glyph glyph-name="i" unicode="&#xef;" horiz-adv-x="448" 
d="M342 13h-236v1024h236v-1024zM224 1146q-62 0 -106 44t-44 106t44 106.5t106 44.5t106.5 -44.5t44.5 -106.5t-44.5 -106t-106.5 -44z" />
    <glyph glyph-name="i" unicode="&#xee;" horiz-adv-x="448" 
d="M342 13h-236v1024h236v-1024zM224 1146q-62 0 -106 44t-44 106t44 106.5t106 44.5t106.5 -44.5t44.5 -106.5t-44.5 -106t-106.5 -44z" />
    <glyph glyph-name="i" unicode="&#xed;" horiz-adv-x="448" 
d="M342 13h-236v1024h236v-1024zM224 1146q-62 0 -106 44t-44 106t44 106.5t106 44.5t106.5 -44.5t44.5 -106.5t-44.5 -106t-106.5 -44z" />
    <glyph glyph-name="i" unicode="&#xec;" horiz-adv-x="448" 
d="M342 13h-236v1024h236v-1024zM224 1146q-62 0 -106 44t-44 106t44 106.5t106 44.5t106.5 -44.5t44.5 -106.5t-44.5 -106t-106.5 -44z" />
    <glyph glyph-name="j" unicode="j" horiz-adv-x="454" 
d="M228 1146q-62 0 -106.5 44t-44.5 106t44.5 106.5t106.5 44.5t106 -44.5t44 -106.5t-44 -106t-106 -44zM109 110v927h237v-927q0 -148 -25.5 -239t-99.5 -163q-123 -120 -352 -120q-15 0 -51 2l14 214q156 -8 217 51q35 33 47.5 87.5t12.5 167.5z" />
    <glyph glyph-name="k" unicode="k" horiz-adv-x="1144" 
d="M586 582l550 -569h-308l-485 527v-527h-237v1433h237v-821l378 411h309z" />
    <glyph glyph-name="l" unicode="l" horiz-adv-x="450" 
d="M343 13h-237v1433h237v-1433z" />
    <glyph glyph-name="m" unicode="m" horiz-adv-x="1777" 
d="M1682 13h-237l1 546v68q0 26 -5 54q-5 30 -13 49q-9 23 -22 43q-25 37 -57 55q-19 12 -35 17q-24 8 -42 9q-54 5 -91 -6q-51 -14 -89 -53q-42 -44 -62 -105q-9 -25 -14 -63q-2 -16 -4 -52v-16v-546h-236v546v68q0 32 -4 55t-14 48q-10 26 -21 43q-26 38 -57 56
q-16 10 -35 16q-23 8 -43 9q-53 5 -90 -6q-51 -14 -89 -53q-42 -44 -62 -105q-9 -25 -14 -63q-2 -15 -4 -45v-569h-237v1024h237v-96q27 34 64 61q48 32 93 47t102 18q56 2 106 -8q54 -12 103 -38q93 -51 143 -143q2 -3 5.5 -11t5.5 -11q32 90 112 147q45 30 93 46
q45 15 102 18q56 2 106 -8q54 -12 103 -38q93 -51 143 -143q20 -37 35 -84q14 -44 18 -84q5 -47 5 -82l-1 -69z" />
    <glyph glyph-name="n" unicode="n" horiz-adv-x="1183" 
d="M1093 13h-237l1 557v32q0 11 -2 29q-3 24 -11 53q-17 56 -44 90q-28 36 -67 55q-42 21 -90 25q-57 5 -100 -7q-52 -13 -95 -50q-46 -40 -72 -99q-25 -58 -30 -128q0 -7 -1 -19t-2 -19v-519h-237v1024h237v-124q43 61 105 98q84 51 195 56q58 2 103 -6q47 -8 102 -32
q50 -23 90 -56q34 -29 67 -74q52 -76 73 -167q8 -34 12 -84q2 -28 2 -41v-37z" />
    <glyph glyph-name="n" unicode="&#xf1;" horiz-adv-x="1183" 
d="M1093 13h-237l1 557v32q0 11 -2 29q-3 24 -11 53q-17 56 -44 90q-28 36 -67 55q-42 21 -90 25q-57 5 -100 -7q-52 -13 -95 -50q-46 -40 -72 -99q-25 -58 -30 -128q0 -7 -1 -19t-2 -19v-519h-237v1024h237v-124q43 61 105 98q84 51 195 56q58 2 103 -6q47 -8 102 -32
q50 -23 90 -56q34 -29 67 -74q52 -76 73 -167q8 -34 12 -84q2 -28 2 -41v-37z" />
    <glyph glyph-name="o" unicode="o" horiz-adv-x="1269" 
d="M635 1060q156 0 289 -71.5t210.5 -195t77.5 -268.5t-77.5 -268t-210.5 -194.5t-289 -71.5t-289.5 71.5t-211 194.5t-77.5 268q0 109 46 208t123.5 170.5t184.5 114t224 42.5zM635 206q141 0 240.5 93.5t99.5 225.5t-99.5 226t-240.5 94t-241 -94t-100 -226t100 -225.5
t241 -93.5z" />
    <glyph glyph-name="o" unicode="&#xf8;" horiz-adv-x="1269" 
d="M635 1060q156 0 289 -71.5t210.5 -195t77.5 -268.5t-77.5 -268t-210.5 -194.5t-289 -71.5t-289.5 71.5t-211 194.5t-77.5 268q0 109 46 208t123.5 170.5t184.5 114t224 42.5zM635 206q141 0 240.5 93.5t99.5 225.5t-99.5 226t-240.5 94t-241 -94t-100 -226t100 -225.5
t241 -93.5z" />
    <glyph glyph-name="o" unicode="&#xf6;" horiz-adv-x="1269" 
d="M635 1060q156 0 289 -71.5t210.5 -195t77.5 -268.5t-77.5 -268t-210.5 -194.5t-289 -71.5t-289.5 71.5t-211 194.5t-77.5 268q0 109 46 208t123.5 170.5t184.5 114t224 42.5zM635 206q141 0 240.5 93.5t99.5 225.5t-99.5 226t-240.5 94t-241 -94t-100 -226t100 -225.5
t241 -93.5z" />
    <glyph glyph-name="o" unicode="&#xf5;" horiz-adv-x="1269" 
d="M635 1060q156 0 289 -71.5t210.5 -195t77.5 -268.5t-77.5 -268t-210.5 -194.5t-289 -71.5t-289.5 71.5t-211 194.5t-77.5 268q0 109 46 208t123.5 170.5t184.5 114t224 42.5zM635 206q141 0 240.5 93.5t99.5 225.5t-99.5 226t-240.5 94t-241 -94t-100 -226t100 -225.5
t241 -93.5z" />
    <glyph glyph-name="o" unicode="&#xf4;" horiz-adv-x="1269" 
d="M635 1060q156 0 289 -71.5t210.5 -195t77.5 -268.5t-77.5 -268t-210.5 -194.5t-289 -71.5t-289.5 71.5t-211 194.5t-77.5 268q0 109 46 208t123.5 170.5t184.5 114t224 42.5zM635 206q141 0 240.5 93.5t99.5 225.5t-99.5 226t-240.5 94t-241 -94t-100 -226t100 -225.5
t241 -93.5z" />
    <glyph glyph-name="o" unicode="&#xf3;" horiz-adv-x="1269" 
d="M635 1060q156 0 289 -71.5t210.5 -195t77.5 -268.5t-77.5 -268t-210.5 -194.5t-289 -71.5t-289.5 71.5t-211 194.5t-77.5 268q0 109 46 208t123.5 170.5t184.5 114t224 42.5zM635 206q141 0 240.5 93.5t99.5 225.5t-99.5 226t-240.5 94t-241 -94t-100 -226t100 -225.5
t241 -93.5z" />
    <glyph glyph-name="o" unicode="&#xf2;" horiz-adv-x="1269" 
d="M635 1060q156 0 289 -71.5t210.5 -195t77.5 -268.5t-77.5 -268t-210.5 -194.5t-289 -71.5t-289.5 71.5t-211 194.5t-77.5 268q0 109 46 208t123.5 170.5t184.5 114t224 42.5zM635 206q141 0 240.5 93.5t99.5 225.5t-99.5 226t-240.5 94t-241 -94t-100 -226t100 -225.5
t241 -93.5z" />
    <glyph glyph-name="p" unicode="p" 
d="M1141 902q79 -75 122 -174.5t42 -202.5q1 -103 -42 -202.5t-122 -174.5q-84 -80 -188 -119q-107 -41 -225 -39q-118 3 -221 50q-89 40 -162 114v-550h-236v1433h236v-141q73 74 162 114q103 47 221 50q116 2 225 -40q105 -40 188 -118zM967 302q48 44 75 102t27 121
t-27 121.5t-75 102.5q-97 91 -239 96q-67 3 -135 -17q-72 -21 -124 -62q-58 -42 -91.5 -106.5t-32.5 -134.5q-1 -70 32.5 -133.5t91.5 -106.5q52 -41 124 -62q68 -20 135 -17q142 5 239 96z" />
    <glyph glyph-name="q" unicode="q" horiz-adv-x="1363" 
d="M1017 1037h236v-1434h-236v551q-73 -74 -162 -114q-103 -47 -221 -50q-118 -2 -225 39q-104 39 -188 119q-79 75 -122 174.5t-42 202.5q-1 103 42 202.5t122 174.5q83 78 188 118q107 41 225 39q120 -3 221 -49q89 -40 162 -114v141zM893 285q58 42 91 106t32 134
q1 70 -32.5 134.5t-90.5 106.5q-52 41 -124 62q-68 20 -135 17q-142 -5 -239 -96q-48 -44 -75 -102.5t-27 -121.5q2 -132 102 -223q97 -91 239 -96q66 -3 134 17q74 22 125 62z" />
    <glyph glyph-name="r" unicode="r" horiz-adv-x="825" 
d="M747 1061q36 -7 62 -16l-55 -229q-7 5 -21 13q-42 21 -90 25q-57 5 -100 -7q-52 -13 -95 -50q-46 -40 -72 -99q-25 -58 -30 -128q0 -7 -1 -19t-2 -19v-519h-237v1024h237v-124q42 60 106 98q86 52 194 57q54 2 104 -7z" />
    <glyph glyph-name="s" unicode="s" horiz-adv-x="987" 
d="M560 647q36 -11 57.5 -18.5t64 -24.5t70.5 -33.5t63.5 -44t57 -57.5t37.5 -71.5t17 -88.5q5 -125 -95 -214q-119 -107 -319 -107h-26q-160 7 -279 88t-159 209l228 58q21 -68 83.5 -102.5t137.5 -37.5q113 -5 168 45q25 24 24 55q-1 46 -50 77t-156 63q-27 7 -48 15
q-7 2 -23 8q-28 9 -47.5 16t-56.5 23t-63.5 32t-58 42.5t-50 55t-30 67.5t-7.5 82q8 91 68.5 156.5t142.5 94t174 28.5q144 0 248 -57.5t154 -164.5l-218 -84q-42 91 -184 91q-5 0 -16 -1t-34.5 -5.5t-43.5 -12t-36.5 -24t-18.5 -38.5q-3 -28 39 -51t118 -48q15 -4 27 -9
q14 -5 40 -12z" />
    <glyph glyph-name="t" unicode="t" horiz-adv-x="847" 
d="M785 815h-291v-419q0 -86 11 -119.5t32 -46.5q52 -34 248 -11v-216q-72 -8 -134 -8q-158 0 -251 59q-45 29 -75 68t-44 86t-19 90t-5 98v419h-230v215h230v230l237 124v-354h291v-215z" />
    <glyph glyph-name="u" unicode="u" horiz-adv-x="1185" 
d="M840 1037h237v-1024h-237v124q-42 -60 -106 -98q-85 -51 -194 -56q-59 -2 -104 6q-53 9 -102 32q-45 21 -89 57q-36 31 -68 74q-51 72 -72 166q-8 34 -12 84q-2 28 -2 41v37l-1 557h236v-557v-32q0 -10 2 -28q3 -31 10 -54q16 -52 45 -89t67 -56q39 -20 90 -24
q60 -5 100 6q52 13 95 50q46 40 72 99q25 58 30 128q1 7 2 19.5t1 18.5v519z" />
    <glyph glyph-name="u" unicode="&#xfc;" horiz-adv-x="1185" 
d="M840 1037h237v-1024h-237v124q-42 -60 -106 -98q-85 -51 -194 -56q-59 -2 -104 6q-53 9 -102 32q-45 21 -89 57q-36 31 -68 74q-51 72 -72 166q-8 34 -12 84q-2 28 -2 41v37l-1 557h236v-557v-32q0 -10 2 -28q3 -31 10 -54q16 -52 45 -89t67 -56q39 -20 90 -24
q60 -5 100 6q52 13 95 50q46 40 72 99q25 58 30 128q1 7 2 19.5t1 18.5v519z" />
    <glyph glyph-name="u" unicode="&#xfb;" horiz-adv-x="1185" 
d="M840 1037h237v-1024h-237v124q-42 -60 -106 -98q-85 -51 -194 -56q-59 -2 -104 6q-53 9 -102 32q-45 21 -89 57q-36 31 -68 74q-51 72 -72 166q-8 34 -12 84q-2 28 -2 41v37l-1 557h236v-557v-32q0 -10 2 -28q3 -31 10 -54q16 -52 45 -89t67 -56q39 -20 90 -24
q60 -5 100 6q52 13 95 50q46 40 72 99q25 58 30 128q1 7 2 19.5t1 18.5v519z" />
    <glyph glyph-name="u" unicode="&#xfa;" horiz-adv-x="1185" 
d="M840 1037h237v-1024h-237v124q-42 -60 -106 -98q-85 -51 -194 -56q-59 -2 -104 6q-53 9 -102 32q-45 21 -89 57q-36 31 -68 74q-51 72 -72 166q-8 34 -12 84q-2 28 -2 41v37l-1 557h236v-557v-32q0 -10 2 -28q3 -31 10 -54q16 -52 45 -89t67 -56q39 -20 90 -24
q60 -5 100 6q52 13 95 50q46 40 72 99q25 58 30 128q1 7 2 19.5t1 18.5v519z" />
    <glyph glyph-name="u" unicode="&#xf9;" horiz-adv-x="1185" 
d="M840 1037h237v-1024h-237v124q-42 -60 -106 -98q-85 -51 -194 -56q-59 -2 -104 6q-53 9 -102 32q-45 21 -89 57q-36 31 -68 74q-51 72 -72 166q-8 34 -12 84q-2 28 -2 41v37l-1 557h236v-557v-32q0 -10 2 -28q3 -31 10 -54q16 -52 45 -89t67 -56q39 -20 90 -24
q60 -5 100 6q52 13 95 50q46 40 72 99q25 58 30 128q1 7 2 19.5t1 18.5v519z" />
    <glyph glyph-name="v" unicode="v" horiz-adv-x="1093" 
d="M823 1037h250l-388 -1024h-278l-389 1024h251l277 -757z" />
    <glyph glyph-name="w" unicode="w" horiz-adv-x="1689" 
d="M1418 1036h256l-470 -1024h-227l-133 340l-132 -340h-227l-471 1024h256l328 -713l118 257l-209 456h256l81 -227l82 227h256l-210 -456l119 -257z" />
    <glyph glyph-name="x" unicode="x" horiz-adv-x="1101" 
d="M693 524l384 -512h-286l-241 347l-241 -347h-286l384 512l-384 512h286l241 -346l241 346h286z" />
    <glyph glyph-name="y" unicode="y" horiz-adv-x="1200" 
d="M1185 1036l-10 -21l-650 -1412h-256l202 440l-457 993h257l322 -757l254 580l82 177h256z" />
    <glyph glyph-name="y" unicode="&#xff;" horiz-adv-x="1200" 
d="M1185 1036l-10 -21l-650 -1412h-256l202 440l-457 993h257l322 -757l254 580l82 177h256z" />
    <glyph glyph-name="y" unicode="&#xfd;" horiz-adv-x="1200" 
d="M1185 1036l-10 -21l-650 -1412h-256l202 440l-457 993h257l322 -757l254 580l82 177h256z" />
    <glyph glyph-name="z" unicode="z" horiz-adv-x="1011" 
d="M376 227h582v-215h-903v198l551 612h-517v215h836v-199z" />
    <glyph glyph-name="braceleft" unicode="{" horiz-adv-x="509" 
d="M387 951q0 -192 -136 -229q136 -39 136 -230v-424q0 -86 47.5 -124.5t154.5 -38.5v-153q-205 0 -293.5 73t-88.5 235v413q0 69 -31.5 117.5t-97.5 64.5v67v66q66 16 97.5 64.5t31.5 117.5v414q0 162 88.5 235t293.5 73v-153q-107 0 -154.5 -38.5t-47.5 -124.5v-425z" />
    <glyph glyph-name="braceright" unicode="}" horiz-adv-x="509" 
d="M303 970q0 -69 31.5 -117.5t97.5 -64.5v-66v-67q-66 -16 -97.5 -64.5t-31.5 -117.5v-413q0 -162 -89 -235t-294 -73v153q107 0 155 38t48 124v425q0 191 136 230q-65 19 -100.5 72.5t-35.5 156.5v425q0 86 -48 124.5t-155 38.5v153q205 0 294 -73t89 -235v-414z" />
    <glyph glyph-name="asciitilde" unicode="~" horiz-adv-x="1243" 
d="M1001 652l192 -31q-20 -103 -78 -176t-142 -102q-52 -18 -108 -18q-144 0 -304 113q-140 100 -223 70q-35 -12 -60.5 -50t-36.5 -94l-192 31q20 104 77 176.5t142 101.5q186 66 413 -95q139 -99 222 -70q35 12 61.5 50.5t36.5 93.5z" />
    <glyph glyph-name="nonbreakingspace" unicode="&#xa0;" horiz-adv-x="749" 
 />
    <glyph glyph-name="cent" unicode="&#xa2;" horiz-adv-x="1193" 
d="M651 195q81 0 152.5 34t120.5 95l191 -126q-82 -102 -205 -159.5t-259 -57.5h-1q-96 0 -182 27l-135 -296h-206l173 380q-106 75 -166.5 186t-59.5 238q0 107 43.5 204t125.5 173t187.5 116.5t220.5 40.5h1q35 0 82 -7l125 275h206l-150 -328q122 -59 203 -162l-192 -124
q-38 49 -102 85l-265 -580q51 -14 91 -14h1zM397 304l241 530q-134 -5 -226 -91q-102 -94 -102 -227q0 -120 87 -212z" />
    <glyph glyph-name="sterling" unicode="&#xa3;" horiz-adv-x="1271" 
d="M483 205h680v-202h-1022v202q62 0 106.5 40t44.5 97v278h-220v202h220v145q0 222 121 351q127 136 337 136q166 0 290 -96q120 -93 168 -258l-215 -52q-30 104 -97 156q-63 48 -146 48q-107 0 -168 -65q-67 -71 -67 -220v-145h346v-202h-346v-229q0 -41 -6.5 -75
t-15.5 -53.5t-18 -33.5t-15 -19l-7 -5h30z" />
    <glyph glyph-name="yen" unicode="&#xa5;" horiz-adv-x="1230" 
d="M1163 1439l-429 -634h363v-167h-370v-188h370v-167h-370v-278h-223v278h-370v167h370v188h-370v167h363l-429 634h261l286 -423l287 423h261z" />
    <glyph glyph-name="copyright" unicode="&#xa9;" horiz-adv-x="1667" 
d="M839 956q-96 0 -165 -69t-69 -165t69 -165t165 -69t165 69l118 -118q-118 -118 -283 -118t-283 118t-118 283t118 283q117 117 283 117t283 -117l-118 -118q-69 69 -165 69zM833 1473q152 0 291 -59.5t239.5 -160t160 -239.5t59.5 -292t-59.5 -292t-160 -239.5
t-239.5 -160t-291 -59.5t-291.5 59.5t-240 160t-160 240t-59.5 291.5t59.5 291.5t160 240t240 160t291.5 59.5zM833 138q158 0 292.5 78.5t213 213t78.5 292.5t-78.5 292.5t-213 213t-292.5 78.5t-292.5 -78.5t-213 -213t-78.5 -292.5t78.5 -292.5t213 -213t292.5 -78.5z
" />
    <glyph glyph-name="softhyphen" unicode="&#xad;" horiz-adv-x="0" 
 />
    <glyph glyph-name="registered" unicode="&#xae;" horiz-adv-x="1667" 
d="M833 1473q152 0 291 -59.5t239.5 -160t160 -239.5t59.5 -292t-59.5 -292t-160 -239.5t-239.5 -160t-291 -59.5t-291.5 59.5t-240 160t-160 240t-59.5 291.5t59.5 291.5t160 240t240 160t291.5 59.5zM833 138q158 0 292.5 78.5t213 213t78.5 292.5t-78.5 292.5t-213 213
t-292.5 78.5t-292.5 -78.5t-213 -213t-78.5 -292.5t78.5 -292.5t213 -213t292.5 -78.5zM1127 798q-14 -43 -39 -74.5t-49.5 -45t-47.5 -21t-37 -7.5l-15 -1l234 -328h-194l-193 293h-50v-293h-162v811h276q59 0 112 -17q51 -18 92 -52q41 -35 62 -85q21 -48 21 -105
q0 -41 -10 -75zM850 776q34 0 60 9q22 7 37 21q15 13 21 27q7 17 7 40q0 24 -7 41q-7 15 -20 27q-15 13 -38 21t-60 8h-114v-194h114z" />
    <glyph glyph-name="multiply" unicode="&#xd7;" horiz-adv-x="944" 
d="M877 865l-262 -263l262 -263l-143 -143l-263 263l-262 -263l-143 143l262 263l-262 263l143 143l262 -263l263 263z" />
    <glyph glyph-name="divide" unicode="&#xf7;" horiz-adv-x="931" 
d="M465 95q-62 0 -106 44.5t-44 106.5t44 106t106 44t106.5 -44t44.5 -106t-44.5 -106.5t-106.5 -44.5zM465 788q-62 0 -106 44.5t-44 106.5t44 106t106 44t106.5 -44t44.5 -106t-44.5 -106.5t-106.5 -44.5zM888 491h-845v203h845v-203z" />
    <glyph glyph-name="quoteleft" unicode="&#x2018;" horiz-adv-x="468" 
d="M246 1441h162l-117 -602h-238z" />
    <glyph glyph-name="quoteright" unicode="&#x2019;" horiz-adv-x="466" 
d="M178 1441h238l-193 -602h-162z" />
    <glyph glyph-name="quotedblleft" unicode="&#x201c;" horiz-adv-x="882" 
d="M53 839l193 602h162l-117 -602h-238zM661 1441h162l-116 -602h-239z" />
    <glyph glyph-name="quotedblright" unicode="&#x201d;" horiz-adv-x="868" 
d="M61 839l117 602h238l-193 -602h-162zM581 1441h238l-193 -602h-162z" />
    <glyph glyph-name="Euro" unicode="&#x20ac;" horiz-adv-x="1441" 
d="M685 352q121 -110 288.5 -142t327.5 25l81 -188q-140 -50 -291 -50q-157 0 -304 54.5t-260 157.5q-119 109 -180 252h-273v167h227q-14 95 0 188h-227v167h273q60 141 180 251q168 153 401 197t454 -35l-81 -188q-160 57 -327.5 25t-288.5 -142q-53 -48 -91 -108h397
v-167h-465q-18 -94 0 -188h465v-167h-397q40 -62 91 -109z" />
    <glyph glyph-name="trademark" unicode="&#x2122;" horiz-adv-x="1400" 
d="M47 1308v126h517v-126h-189v-503h-139v503h-189zM1195 1434h124v-630h-139v374l-179 -256l-180 256v-374h-139v630h125l194 -277z" />
    </font>
</defs>
</svg>
