<?xml version="1.0" standalone="no"?>
<!DOCTYPE svg PUBLIC "-//W3C//DTD SVG 1.1//EN" "http://www.w3.org/Graphics/SVG/1.1/DTD/svg11.dtd" >
<svg xmlns="http://www.w3.org/2000/svg" xmlns:xlink="http://www.w3.org/1999/xlink" version="1.1">
<metadata>
Created by FontForge 20170731 at Mon Sep 12 12:01:30 2022
 By Aleksey,,,
</metadata>
<defs>
<font id="RanyRegular" horiz-adv-x="1341" >
  <font-face 
    font-family="Rany"
    font-weight="400"
    font-stretch="normal"
    units-per-em="2048"
    panose-1="0 0 0 0 0 0 0 0 0 0"
    ascent="1638"
    descent="-410"
    x-height="1032"
    cap-height="1433"
    bbox="-209 -416 1946 1688"
    underline-thickness="102"
    underline-position="-307"
    unicode-range="U+000A-2122"
  />
<missing-glyph horiz-adv-x="1079" 
d="M102 1434h875v-1434h-875v1434zM160 1393l379 -633l381 633h-760zM514 717l-369 614v-1231zM541 674l-379 -631h758zM565 717l371 -621v1239z" />
    <glyph glyph-name=".notdef" horiz-adv-x="1079" 
d="M102 1434h875v-1434h-875v1434zM160 1393l379 -633l381 633h-760zM514 717l-369 614v-1231zM541 674l-379 -631h758zM565 717l371 -621v1239z" />
    <glyph glyph-name=".null" horiz-adv-x="0" 
 />
    <glyph glyph-name=".null" horiz-adv-x="0" 
 />
    <glyph glyph-name="nonmarkingreturn" horiz-adv-x="682" 
 />
    <glyph glyph-name="controlLF" unicode="&#xa;" horiz-adv-x="0" 
 />
    <glyph glyph-name="controlCR" unicode="&#xd;" horiz-adv-x="0" 
 />
    <glyph glyph-name="space" unicode=" " horiz-adv-x="491" 
 />
    <glyph glyph-name="exclam" unicode="!" horiz-adv-x="444" 
d="M301 444h-159l-11 987h181zM221 -3q-52 0 -88.5 36.5t-36.5 88.5t36.5 89t88.5 37t89 -37t37 -89t-37 -88.5t-89 -36.5z" />
    <glyph glyph-name="numbersign" unicode="#" horiz-adv-x="1536" 
d="M1440 870h-291l-83 -312h290l-41 -152h-290l-109 -409h-167l109 409h-344l-109 -409h-167l110 409h-291l41 152h290l84 312h-290l40 152h291l109 409h167l-110 -409h344l110 409h167l-110 -409h290zM899 558l83 312h-343l-84 -312h344z" />
    <glyph glyph-name="dollar" unicode="$" horiz-adv-x="1187" 
d="M699 802q40 -14 71.5 -26.5t75 -34.5t76.5 -44.5t68 -55.5t58.5 -69t39 -84.5t16.5 -102.5q5 -162 -120 -273q-111 -99 -285 -119v-158h-167v160q-171 23 -295 125t-167 256l162 37q32 -114 113.5 -179t186.5 -85v550q-4 2 -11.5 4.5l-10.5 3.5q-38 14 -62 23.5
t-68.5 30.5t-74 41t-65.5 52t-56.5 66t-33 80.5t-8.5 97.5q5 59 31.5 115.5t73 104.5t120.5 80.5t165 39.5v156h167v-164q262 -45 358 -276l-156 -53q-58 138 -202 174v-473zM532 863v421q-35 -5 -67 -15.5t-68.5 -32t-60.5 -60t-28 -89.5q-6 -79 53.5 -130t170.5 -94z
M868 221q72 63 69 160q-3 94 -64.5 153t-173.5 104v-491q104 17 169 74z" />
    <glyph glyph-name="percent" unicode="%" horiz-adv-x="1583" 
d="M1141 1431h192l-892 -1434h-192zM686 1134q0 -128 -91.5 -218.5t-221.5 -90.5t-222 90.5t-92 218.5t92 219t222 91t221.5 -91t91.5 -219zM213 1134q0 -65 47 -111t113 -46t112.5 46t46.5 111t-46.5 111.5t-112.5 46.5t-113 -46.5t-47 -111.5zM1209 603q130 0 222 -90.5
t92 -218.5t-92 -219t-222 -91t-221.5 91t-91.5 219t91.5 218.5t221.5 90.5zM1209 136q66 0 113 46.5t47 111.5t-47 111.5t-113 46.5t-112.5 -46.5t-46.5 -111.5t46.5 -111.5t112.5 -46.5z" />
    <glyph glyph-name="ampersand" unicode="&#x26;" horiz-adv-x="1449" 
d="M1081 364q282 -294 352 -367h-222q-68 71 -240 251q-115 -117 -198 -171q-155 -101 -316.5 -95t-276.5 117q-104 100 -106 235t98 255q89 107 236 233q-133 135 -164 241q-19 67 -6.5 135.5t53.5 123.5q76 101 214 115q150 14 250 -64q47 -37 73.5 -88t27.5 -107
q4 -99 -47.5 -179t-165.5 -183q12 -12 25.5 -25t30 -30t25.5 -26q103 -105 246 -255q112 121 209 231l111 -116q-141 -157 -209 -231zM406 1102q21 -71 123 -175q92 84 126.5 136t33.5 110q-2 51 -44 85q-37 30 -97 30q-7 0 -25 -2q-61 -6 -95 -50q-44 -56 -22 -134z
M676 200q80 53 185 163q-52 54 -144 149t-118 122l-24.5 24.5t-28 28.5t-24.5 24q-140 -121 -217 -214q-35 -41 -52.5 -88.5t-8 -104t56.5 -101.5q72 -69 171.5 -70t203.5 67z" />
    <glyph glyph-name="parenleft" unicode="(" horiz-adv-x="550" 
d="M358 242q48 -116 116 -218q67 -103 157 -196l-104 -88q-99 93 -183 210q-81 115 -136 238q-110 249 -112 526q2 277 112 526q58 130 135 239q82 114 183 209l106 -88q-90 -93 -157 -196q-71 -106 -117 -218q-96 -231 -95 -472q-1 -241 95 -472z" />
    <glyph glyph-name="parenright" unicode=")" horiz-adv-x="550" 
d="M343 1240q109 -247 111 -526q-2 -278 -112 -526q-57 -127 -135 -238q-82 -114 -184 -210l-104 88q90 93 157 196q69 104 116 217q97 231 95 473q1 241 -95 472q-45 109 -117 217q-67 103 -157 196l106 89q101 -95 183 -209q80 -113 136 -239z" />
    <glyph glyph-name="asterisk" unicode="*" horiz-adv-x="854" 
d="M795 1112l-258 -74l165 -209l-125 -89l-150 220l-150 -220l-125 89l165 209l-258 74l48 144l252 -90l-9 265h154l-9 -265l252 90z" />
    <glyph glyph-name="plus" unicode="+" horiz-adv-x="1048" 
d="M600 705h397v-152h-397v-397h-152v397h-397v152h397v397h152v-397z" />
    <glyph glyph-name="comma" unicode="," horiz-adv-x="323" 
d="M97 247h182l-184 -602h-124z" />
    <glyph glyph-name="hyphen" unicode="-" horiz-adv-x="923" 
d="M884 553h-845v152h845v-152z" />
    <glyph glyph-name="period" unicode="." horiz-adv-x="346" 
d="M172 -3q-52 0 -88.5 36.5t-36.5 88.5t36.5 89t88.5 37t88.5 -37t36.5 -89t-36.5 -88.5t-88.5 -36.5z" />
    <glyph glyph-name="slash" unicode="/" horiz-adv-x="866" 
d="M670 1431h181l-652 -1434h-181z" />
    <glyph glyph-name="zero" unicode="0" horiz-adv-x="1222" 
d="M1127 727q0 -347 -137.5 -543.5t-379.5 -196.5t-379 196.5t-137 543.5t137 543.5t379 196.5t379.5 -196.5t137.5 -543.5zM946 727q0 270 -89 422.5t-247 152.5q-157 0 -246 -152.5t-89 -422.5t89 -422.5t246 -152.5q158 0 247 152.5t89 422.5z" />
    <glyph glyph-name="one" unicode="1" horiz-adv-x="671" 
d="M51 1257l499 227v-1474h-180v1208l-319 -144v183z" />
    <glyph glyph-name="two" unicode="2" horiz-adv-x="1130" 
d="M322 175h737v-165h-991v146l681 730q46 49 62 92q14 35 14 79q0 100 -78.5 171.5t-188.5 71.5t-188.5 -71.5t-78.5 -171.5h-180q0 168 131 287.5t316 119.5t316.5 -119.5t131.5 -287.5q0 -70 -24 -133q-25 -67 -96 -144z" />
    <glyph glyph-name="three" unicode="3" horiz-adv-x="1148" 
d="M916 758q70 -62 109.5 -144.5t39.5 -174.5q0 -122 -67 -225.5t-182 -163.5t-250 -60t-250 60t-181.5 163.5t-66.5 225.5h180q0 -118 93.5 -201.5t224.5 -83.5t224.5 83.5t93.5 201.5t-93.5 201.5t-224.5 83.5q-61 0 -118 -20l-6 -3l-102 126l431 452h-656v165h886v-175
l-406 -403q3 -2 18 0t49 -2.5t69.5 -12t80 -27t81.5 -47.5q1 -1 6.5 -5t7.5 -6q1 -2 4 -4t5 -4z" />
    <glyph glyph-name="four" unicode="4" horiz-adv-x="1185" 
d="M1140 530v-165h-249v-355h-180v355h-658v137l562 942h206l-546 -914h436v398h180v-398h249z" />
    <glyph glyph-name="five" unicode="5" horiz-adv-x="1171" 
d="M1086 447q0 -124 -67.5 -229.5t-183.5 -166.5t-252 -61t-252 61t-183.5 166.5t-67.5 229.5h181q0 -121 94.5 -207t227.5 -86t227.5 86t94.5 207q0 63 -28.5 120.5t-81.5 99.5q-91 73 -266 73h-379l111 704h776v-165h-619l-59 -375h170q243 0 385 -113q82 -65 127 -155
t45 -189z" />
    <glyph glyph-name="six" unicode="6" horiz-adv-x="1153" 
d="M840 843q86 -47 144.5 -120t83 -155t14 -171.5t-59.5 -169.5q-49 -81 -127.5 -137t-176.5 -82q-69 -18 -140 -18q-131 0 -246 58q-89 45 -151 116t-91 160q-59 183 43 350l469 770h207l-370 -570q8 3 23 7.5t60.5 11t91 6.5t108.5 -13.5t118 -42.5zM864 306
q65 107 27.5 225t-156.5 178q-74 37 -159 37q-88 0 -165 -40t-120 -111q-65 -106 -27 -225q37 -118 156 -178q118 -60 248 -26q132 35 196 140z" />
    <glyph glyph-name="seven" unicode="7" horiz-adv-x="1009" 
d="M236 10l516 1269h-734v165h947v-116l-536 -1318h-193z" />
    <glyph glyph-name="eight" unicode="8" horiz-adv-x="1169" 
d="M1043 599q40 -79 42 -171q2 -90 -38 -172q-39 -81 -112 -143q-74 -63 -162 -94q-91 -32 -188 -32q-205 2 -350 125q-72 60 -112 143.5t-39 172.5q2 90 43 171q41 80 113 140q52 44 124 74q-30 16 -59 40q-59 46 -94 113t-36 140t32 141.5t92 117.5q120 100 286 102
q79 0 154 -26q73 -25 133 -76q59 -50 92.5 -118.5t31.5 -140.5q-1 -72 -36 -139t-95 -114q-26 -21 -60 -40q70 -29 124 -75q75 -62 114 -139zM417 1247q-74 -58 -76 -141q-3 -85 70 -147q71 -60 174 -62q105 0 175 62q72 61 69 147q-2 82 -76 140q-72 56 -168 56
q-97 2 -168 -55zM816 230q100 80 102 198q2 57 -23.5 110.5t-72.5 93.5q-96 84 -237 84q-138 -2 -236 -85q-47 -40 -72.5 -93.5t-23.5 -109.5q2 -118 101 -198q97 -80 231 -78q133 0 231 78z" />
    <glyph glyph-name="nine" unicode="9" horiz-adv-x="1150" 
d="M312 610q-86 47 -144.5 120t-83 155.5t-13.5 172t60 169.5q102 166 303 219q69 18 140 18q130 0 246 -59q89 -45 151 -115.5t91 -159.5q59 -184 -43 -351l-469 -769h-207l370 569q-8 -3 -23 -7.5t-60.5 -11t-91 -6.5t-108.5 13.5t-118 42.5zM289 1147
q-65 -107 -27.5 -225t155.5 -177q76 -38 159 -38q88 0 164.5 40t120.5 112q65 107 28 225t-156 178t-249 26t-195 -141z" />
    <glyph glyph-name="colon" unicode=":" horiz-adv-x="382" 
d="M191 -3q-52 0 -88.5 36.5t-36.5 88.5t36.5 89t88.5 37t88.5 -37t36.5 -89t-36.5 -88.5t-88.5 -36.5zM191 724q-52 0 -88.5 36.5t-36.5 88.5t36.5 88.5t88.5 36.5t88.5 -36.5t36.5 -88.5t-36.5 -88.5t-88.5 -36.5z" />
    <glyph glyph-name="semicolon" unicode=";" horiz-adv-x="385" 
d="M197 724q-52 0 -88.5 36.5t-36.5 88.5t36.5 88.5t88.5 36.5t88.5 -36.5t36.5 -88.5t-36.5 -88.5t-88.5 -36.5zM-10 -355l125 602h182l-184 -602h-123z" />
    <glyph glyph-name="less" unicode="&#x3c;" horiz-adv-x="1249" 
d="M1181 1313v-173l-914 -446l914 -446v-173l-1134 554v130z" />
    <glyph glyph-name="equal" unicode="=" horiz-adv-x="1038" 
d="M982 759h-927v151h927v-151zM982 354h-927v151h927v-151z" />
    <glyph glyph-name="greater" unicode="&#x3e;" horiz-adv-x="1249" 
d="M68 1313l1134 -554v-130l-1134 -554v173l914 446l-914 446v173z" />
    <glyph glyph-name="question" unicode="?" horiz-adv-x="917" 
d="M443 -3q-52 0 -88.5 37t-36.5 89t36.5 88.5t88.5 36.5t89 -36.5t37 -88.5t-37 -89t-89 -37zM852 1115q7 -49 -1.5 -96t-22.5 -79t-42.5 -69.5t-45.5 -54.5t-48 -47q-4 -3 -11.5 -10t-10.5 -11q-5 -5 -15.5 -15t-15.5 -15q-72 -66 -94 -112q-16 -33 -19.5 -66.5
t-3.5 -108.5v-17h-167v16q0 63 1 90.5t9.5 68.5t26.5 78q34 71 127 157q10 9 28 27q3 3 11.5 11t12.5 12q32 31 48.5 49t37 47t27.5 60t2 67q-10 78 -77 125.5t-165 47.5q-196 0 -247 -189l-162 37q40 145 147 224.5t262 79.5q162 0 276 -85.5t132 -221.5z" />
    <glyph glyph-name="at" unicode="@" horiz-adv-x="1755" 
d="M1628 1042q78 -162 39 -334q-20 -90 -64 -160q-51 -81 -128 -134q-95 -65 -202 -65q-69 2 -123 38q-48 31 -72 92q-1 -1 -2 -2.5t-2 -2.5q-47 -53 -109 -90q-70 -42 -146 -50q-86 -11 -165 20q-77 29 -130 98q-43 57 -57 137q-12 69 2 138q26 135 129 240q53 53 118 86
q67 34 150 42q87 8 163 -27q62 -28 105 -84l18 94h170l-59 -293l-29 -146q-2 -7 -3 -17t-2 -14q-2 -10 -2 -30q0 -3 -0.5 -7t-0.5 -6l2 -13q0 -5 2.5 -12.5t2.5 -9.5q9 -21 16 -24q12 -7 29 -8q52 0 99 34q100 67 131 206q29 124 -27 245q-54 114 -178 198l-60 36
q-12 6 -35 16.5t-30 13.5q-8 3 -31.5 11t-36.5 11l-35 8q-30 7 -36 8q-141 24 -287 -12q-140 -33 -257.5 -120.5t-185.5 -206.5q-69 -118 -74.5 -254.5t54.5 -256.5q63 -122 180 -201q112 -77 265 -98q143 -21 287.5 20t257.5 131l98 -102q-135 -109 -311 -158.5t-353 -25.5
q-193 26 -334 122q-151 103 -229 253q-76 152 -69.5 320t90.5 314q83 146 224.5 252.5t314.5 148.5q172 45 358 15.5t330 -128.5q158 -106 230 -256zM1082 723q9 49 -3 95t-44 79q-58 58 -152 47q-87 -11 -160 -82q-72 -69 -91 -161q-18 -96 33 -160q50 -62 137 -58
q94 5 175 71q85 69 105 169z" />
    <glyph glyph-name="A" unicode="A" horiz-adv-x="1409" 
d="M837 1433l567 -1433h-192l-147 371h-722l-147 -371h-192l567 1433h266zM408 536h592l-296 747z" />
    <glyph glyph-name="A" unicode="&#xc5;" horiz-adv-x="1409" 
d="M837 1433l567 -1433h-192l-147 371h-722l-147 -371h-192l567 1433h266zM408 536h592l-296 747z" />
    <glyph glyph-name="A" unicode="&#xc4;" horiz-adv-x="1409" 
d="M837 1433l567 -1433h-192l-147 371h-722l-147 -371h-192l567 1433h266zM408 536h592l-296 747z" />
    <glyph glyph-name="A" unicode="&#xc3;" horiz-adv-x="1409" 
d="M837 1433l567 -1433h-192l-147 371h-722l-147 -371h-192l567 1433h266zM408 536h592l-296 747z" />
    <glyph glyph-name="A" unicode="&#xc2;" horiz-adv-x="1409" 
d="M837 1433l567 -1433h-192l-147 371h-722l-147 -371h-192l567 1433h266zM408 536h592l-296 747z" />
    <glyph glyph-name="A" unicode="&#xc1;" horiz-adv-x="1409" 
d="M837 1433l567 -1433h-192l-147 371h-722l-147 -371h-192l567 1433h266zM408 536h592l-296 747z" />
    <glyph glyph-name="A" unicode="&#xc0;" horiz-adv-x="1409" 
d="M837 1433l567 -1433h-192l-147 371h-722l-147 -371h-192l567 1433h266zM408 536h592l-296 747z" />
    <glyph glyph-name="B" unicode="B" horiz-adv-x="1318" 
d="M1221 585q39 -80 39 -166q0 -94 -41 -173q-39 -77 -119 -135q-74 -55 -176 -83q-97 -28 -220 -28h-583v1434h548q109 0 199 -26q93 -27 160 -76q70 -52 107 -123t37 -156q0 -29 -7 -68q-11 -54 -36.5 -95t-59.5 -65.5t-68.5 -38.5t-72.5 -20q79 -7 158.5 -48t123.5 -113
q1 -2 3 -5.5t3 -4.5l2.5 -5zM302 1269v-432h367q82 0 145 18q58 16 100 47q37 27 57 65q20 40 20 86t-20 86q-18 37 -57 66q-40 29 -100 46q-63 18 -145 18h-367zM1055 317q24 45 24 102q0 56 -24 101q-25 46 -68 78q-46 34 -117 54q-72 21 -166 21h-402v-509h402
q94 0 166 21q71 20 117 54q43 32 68 78z" />
    <glyph glyph-name="C" unicode="C" horiz-adv-x="1472" 
d="M419 310q121 -110 284 -149t326.5 0t284.5 149l128 -116q-117 -106 -266.5 -161t-308.5 -55t-308.5 55t-266.5 161q-116 105 -177.5 240t-61.5 283t61.5 283t177.5 240q156 142 365.5 192t419 0t365.5 -192l-128 -116q-121 110 -284 149t-326.5 0t-284.5 -149
q-90 -82 -137.5 -186.5t-47.5 -220.5t47.5 -220.5t137.5 -186.5z" />
    <glyph glyph-name="C" unicode="&#xc7;" horiz-adv-x="1472" 
d="M419 310q121 -110 284 -149t326.5 0t284.5 149l128 -116q-117 -106 -266.5 -161t-308.5 -55t-308.5 55t-266.5 161q-116 105 -177.5 240t-61.5 283t61.5 283t177.5 240q156 142 365.5 192t419 0t365.5 -192l-128 -116q-121 110 -284 149t-326.5 0t-284.5 -149
q-90 -82 -137.5 -186.5t-47.5 -220.5t47.5 -220.5t137.5 -186.5z" />
    <glyph glyph-name="D" unicode="D" horiz-adv-x="1492" 
d="M1381 1003q54 -131 54 -286q0 -157 -54 -288q-53 -130 -159 -229q-105 -96 -250 -148q-147 -52 -322 -52h-529v1434h529q175 0 322 -52q146 -53 250 -149q105 -97 159 -230zM1212 487q42 102 42 230q0 126 -42 228q-40 98 -119 173q-79 72 -187 111q-111 40 -256 40h-348
v-1105h348q144 0 256 41q110 39 187 110q79 73 119 172z" />
    <glyph glyph-name="E" unicode="E" horiz-adv-x="1120" 
d="M1058 1269h-756v-463h703v-164h-703v-478h756v-164h-909h-28v1433h28v1h909v-165z" />
    <glyph glyph-name="E" unicode="&#xcb;" horiz-adv-x="1120" 
d="M1058 1269h-756v-463h703v-164h-703v-478h756v-164h-909h-28v1433h28v1h909v-165z" />
    <glyph glyph-name="E" unicode="&#xca;" horiz-adv-x="1120" 
d="M1058 1269h-756v-463h703v-164h-703v-478h756v-164h-909h-28v1433h28v1h909v-165z" />
    <glyph glyph-name="E" unicode="&#xc9;" horiz-adv-x="1120" 
d="M1058 1269h-756v-463h703v-164h-703v-478h756v-164h-909h-28v1433h28v1h909v-165z" />
    <glyph glyph-name="E" unicode="&#xc8;" horiz-adv-x="1120" 
d="M1058 1269h-756v-463h703v-164h-703v-478h756v-164h-909h-28v1433h28v1h909v-165z" />
    <glyph glyph-name="F" unicode="F" horiz-adv-x="1089" 
d="M1056 1269h-756v-463h703v-164h-703v-642h-181v1433h28v1h909v-165z" />
    <glyph glyph-name="G" unicode="G" horiz-adv-x="1685" 
d="M1642 799q5 -45 5 -82q0 -150 -63.5 -287t-170 -236.5t-254 -158t-309.5 -58.5t-309.5 58.5t-254 158t-170 236.5t-63.5 287q0 201 107 371t290.5 269t399.5 99q164 0 311 -58.5t258 -163.5l-128 -116q-86 82 -200 128t-241 46q-167 0 -309 -77t-224.5 -209.5
t-82.5 -288.5t82.5 -288.5t224.5 -209.5t309 -77q114 0 219.5 38t186 104t134.5 157t70 194h-573l180 164h575z" />
    <glyph glyph-name="H" unicode="H" horiz-adv-x="1335" 
d="M1035 1433h180v-1433h-180v642h-735v-642h-181v1433h181v-627h735v627z" />
    <glyph glyph-name="I" unicode="I" horiz-adv-x="419" 
d="M300 0h-181v1433h181v-1433z" />
    <glyph glyph-name="I" unicode="&#xcf;" horiz-adv-x="419" 
d="M300 0h-181v1433h181v-1433z" />
    <glyph glyph-name="I" unicode="&#xce;" horiz-adv-x="419" 
d="M300 0h-181v1433h181v-1433z" />
    <glyph glyph-name="I" unicode="&#xcd;" horiz-adv-x="419" 
d="M300 0h-181v1433h181v-1433z" />
    <glyph glyph-name="I" unicode="&#xcc;" horiz-adv-x="419" 
d="M300 0h-181v1433h181v-1433z" />
    <glyph glyph-name="J" unicode="J" horiz-adv-x="1112" 
d="M823 1433h181v-946q0 -238 -134 -372q-136 -138 -363 -138q-179 0 -313 98q-132 96 -186 271l174 44q38 -124 125 -187q86 -62 199 -62q146 0 230 84q87 87 87 262v946z" />
    <glyph glyph-name="K" unicode="K" horiz-adv-x="1329" 
d="M535 756l801 -756h-251l-785 741v-741h-181v1433h181v-662l702 662h251z" />
    <glyph glyph-name="L" unicode="L" horiz-adv-x="1062" 
d="M302 164h756v-164h-909h-28v1433h181v-1269z" />
    <glyph glyph-name="M" unicode="M" horiz-adv-x="1689" 
d="M1470 1433l155 -1433h-182l-90 835q-7 68 -9 145t0 120l2 43q-55 -158 -121 -293l-381 -781l-381 781q-29 60 -59.5 133t-45.5 117l-16 43q9 -157 -7 -309l-90 -834h-182l155 1433h159l467 -958l467 958h159z" />
    <glyph glyph-name="N" unicode="N" horiz-adv-x="1370" 
d="M1069 1433h181v-1433h-162l-582 816q-68 96 -125 187.5t-79 135.5l-23 44q21 -221 21 -376v-807h-181v1433h162l582 -816q68 -96 124.5 -187.5t78.5 -135.5l23 -44q-20 222 -20 377v806z" />
    <glyph glyph-name="N" unicode="&#xd1;" horiz-adv-x="1370" 
d="M1069 1433h181v-1433h-162l-582 816q-68 96 -125 187.5t-79 135.5l-23 44q21 -221 21 -376v-807h-181v1433h162l582 -816q68 -96 124.5 -187.5t78.5 -135.5l23 -44q-20 222 -20 377v806z" />
    <glyph glyph-name="O" unicode="O" horiz-adv-x="1701" 
d="M850 1456q216 0 399.5 -99t290.5 -269t107 -371q0 -150 -63.5 -287t-170 -236.5t-254 -158t-309.5 -58.5t-309.5 58.5t-254 158t-170 236.5t-63.5 287q0 201 107 371t290.5 269t399.5 99zM850 142q167 0 309 77t224.5 209.5t82.5 288.5t-82.5 288.5t-224.5 209.5t-309 77
t-309 -77t-224.5 -209.5t-82.5 -288.5t82.5 -288.5t224.5 -209.5t309 -77z" />
    <glyph glyph-name="O" unicode="&#xd8;" horiz-adv-x="1701" 
d="M850 1456q216 0 399.5 -99t290.5 -269t107 -371q0 -150 -63.5 -287t-170 -236.5t-254 -158t-309.5 -58.5t-309.5 58.5t-254 158t-170 236.5t-63.5 287q0 201 107 371t290.5 269t399.5 99zM850 142q167 0 309 77t224.5 209.5t82.5 288.5t-82.5 288.5t-224.5 209.5t-309 77
t-309 -77t-224.5 -209.5t-82.5 -288.5t82.5 -288.5t224.5 -209.5t309 -77z" />
    <glyph glyph-name="O" unicode="&#xd6;" horiz-adv-x="1701" 
d="M850 1456q216 0 399.5 -99t290.5 -269t107 -371q0 -150 -63.5 -287t-170 -236.5t-254 -158t-309.5 -58.5t-309.5 58.5t-254 158t-170 236.5t-63.5 287q0 201 107 371t290.5 269t399.5 99zM850 142q167 0 309 77t224.5 209.5t82.5 288.5t-82.5 288.5t-224.5 209.5t-309 77
t-309 -77t-224.5 -209.5t-82.5 -288.5t82.5 -288.5t224.5 -209.5t309 -77z" />
    <glyph glyph-name="O" unicode="&#xd5;" horiz-adv-x="1701" 
d="M850 1456q216 0 399.5 -99t290.5 -269t107 -371q0 -150 -63.5 -287t-170 -236.5t-254 -158t-309.5 -58.5t-309.5 58.5t-254 158t-170 236.5t-63.5 287q0 201 107 371t290.5 269t399.5 99zM850 142q167 0 309 77t224.5 209.5t82.5 288.5t-82.5 288.5t-224.5 209.5t-309 77
t-309 -77t-224.5 -209.5t-82.5 -288.5t82.5 -288.5t224.5 -209.5t309 -77z" />
    <glyph glyph-name="O" unicode="&#xd4;" horiz-adv-x="1701" 
d="M850 1456q216 0 399.5 -99t290.5 -269t107 -371q0 -150 -63.5 -287t-170 -236.5t-254 -158t-309.5 -58.5t-309.5 58.5t-254 158t-170 236.5t-63.5 287q0 201 107 371t290.5 269t399.5 99zM850 142q167 0 309 77t224.5 209.5t82.5 288.5t-82.5 288.5t-224.5 209.5t-309 77
t-309 -77t-224.5 -209.5t-82.5 -288.5t82.5 -288.5t224.5 -209.5t309 -77z" />
    <glyph glyph-name="O" unicode="&#xd3;" horiz-adv-x="1701" 
d="M850 1456q216 0 399.5 -99t290.5 -269t107 -371q0 -150 -63.5 -287t-170 -236.5t-254 -158t-309.5 -58.5t-309.5 58.5t-254 158t-170 236.5t-63.5 287q0 201 107 371t290.5 269t399.5 99zM850 142q167 0 309 77t224.5 209.5t82.5 288.5t-82.5 288.5t-224.5 209.5t-309 77
t-309 -77t-224.5 -209.5t-82.5 -288.5t82.5 -288.5t224.5 -209.5t309 -77z" />
    <glyph glyph-name="O" unicode="&#xd2;" horiz-adv-x="1701" 
d="M850 1456q216 0 399.5 -99t290.5 -269t107 -371q0 -150 -63.5 -287t-170 -236.5t-254 -158t-309.5 -58.5t-309.5 58.5t-254 158t-170 236.5t-63.5 287q0 201 107 371t290.5 269t399.5 99zM850 142q167 0 309 77t224.5 209.5t82.5 288.5t-82.5 288.5t-224.5 209.5t-309 77
t-309 -77t-224.5 -209.5t-82.5 -288.5t82.5 -288.5t224.5 -209.5t309 -77z" />
    <glyph glyph-name="P" unicode="P" horiz-adv-x="1255" 
d="M1183 1191q39 -77 39 -169t-39 -168t-114 -133q-69 -53 -170 -82q-94 -28 -213 -28h-384v-611h-181v1434h565q115 0 213 -28t170 -82q76 -58 114 -133zM1019 923q22 44 22 99q0 56 -22 100q-23 44 -64 75q-44 32 -111 52q-71 20 -158 20h-384v-494h384q87 0 158 20
q63 19 110 53q43 32 65 75z" />
    <glyph glyph-name="Q" unicode="Q" horiz-adv-x="1773" 
d="M1474 257l282 -257h-256l-153 139q-218 -162 -497 -162q-162 0 -309.5 58.5t-254 158t-170 236.5t-63.5 287q0 201 107 371t290.5 269t399.5 99t399.5 -99t290.5 -269t107 -371q0 -258 -173 -460zM1345 374q121 153 121 343q0 156 -82.5 288.5t-224.5 209.5t-309 77
t-309 -77t-224.5 -209.5t-82.5 -288.5t82.5 -288.5t224.5 -209.5t309 -77q206 0 369 114l-282 256h256z" />
    <glyph glyph-name="R" unicode="R" horiz-adv-x="1294" 
d="M623 673l659 -673h-238l-744 784v-784h-181v1434h525q108 0 206 -27q94 -26 166 -78q72 -53 111 -127t39 -162t-39 -161t-105 -123q-43 -31 -100 -51.5t-107.5 -26.5t-94.5 -8t-70 0zM300 1269v-458h344q88 0 152 19q66 19 106 49q42 31 62 70q21 41 21 91q0 52 -21 92
q-20 39 -61 69q-42 30 -107 49q-64 19 -152 19h-344z" />
    <glyph glyph-name="S" unicode="S" horiz-adv-x="1208" 
d="M677 824q177 -58 267 -113q200 -125 207 -327q5 -162 -120 -273q-72 -64 -175.5 -99t-221.5 -35q-22 0 -34 1q-205 9 -357 116.5t-202 278.5l175 42q26 -90 93 -153t142 -89.5t158 -30.5q89 -4 167.5 19t127.5 67q70 62 67 151q-1 47 -22 87t-51 68t-80 54t-93.5 43
t-108.5 38q-27 9 -66 23q-13 5 -35 12q-33 11 -51 17.5t-56 22t-61.5 28t-59 34t-58 42t-47.5 49.5t-38.5 59t-21 68.5t-4.5 80.5q5 65 37.5 126.5t89.5 112.5t147.5 81.5t201.5 30.5q183 0 314 -75t193 -215l-168 -61q-83 187 -339 187q-6 0 -17 -0.5t-40 -4.5t-56 -11
t-60 -22t-58 -35t-43.5 -52.5t-21.5 -72.5q-4 -45 17 -81.5t66 -65t88.5 -47.5t109.5 -42q8 -3 21 -8t17 -6q26 -9 60 -20z" />
    <glyph glyph-name="T" unicode="T" horiz-adv-x="1146" 
d="M663 1434h480v-165h-480v-1269h-181v1269h-480v165h480h181z" />
    <glyph glyph-name="U" unicode="U" horiz-adv-x="1329" 
d="M1045 1433h181v-920q0 -117 -40 -217q-41 -101 -116 -171q-77 -74 -180 -111q-101 -37 -226 -37q-123 0 -224 37q-106 38 -181 110q-76 71 -117 172q-40 100 -40 217v920h181v-920q0 -90 29 -160q27 -68 77 -115q48 -45 118 -71q72 -26 157 -26q87 0 159 26q69 26 116 71
q50 47 77 115q29 70 29 160v920z" />
    <glyph glyph-name="U" unicode="&#xdc;" horiz-adv-x="1329" 
d="M1045 1433h181v-920q0 -117 -40 -217q-41 -101 -116 -171q-77 -74 -180 -111q-101 -37 -226 -37q-123 0 -224 37q-106 38 -181 110q-76 71 -117 172q-40 100 -40 217v920h181v-920q0 -90 29 -160q27 -68 77 -115q48 -45 118 -71q72 -26 157 -26q87 0 159 26q69 26 116 71
q50 47 77 115q29 70 29 160v920z" />
    <glyph glyph-name="U" unicode="&#xdb;" horiz-adv-x="1329" 
d="M1045 1433h181v-920q0 -117 -40 -217q-41 -101 -116 -171q-77 -74 -180 -111q-101 -37 -226 -37q-123 0 -224 37q-106 38 -181 110q-76 71 -117 172q-40 100 -40 217v920h181v-920q0 -90 29 -160q27 -68 77 -115q48 -45 118 -71q72 -26 157 -26q87 0 159 26q69 26 116 71
q50 47 77 115q29 70 29 160v920z" />
    <glyph glyph-name="U" unicode="&#xda;" horiz-adv-x="1329" 
d="M1045 1433h181v-920q0 -117 -40 -217q-41 -101 -116 -171q-77 -74 -180 -111q-101 -37 -226 -37q-123 0 -224 37q-106 38 -181 110q-76 71 -117 172q-40 100 -40 217v920h181v-920q0 -90 29 -160q27 -68 77 -115q48 -45 118 -71q72 -26 157 -26q87 0 159 26q69 26 116 71
q50 47 77 115q29 70 29 160v920z" />
    <glyph glyph-name="U" unicode="&#xd9;" horiz-adv-x="1329" 
d="M1045 1433h181v-920q0 -117 -40 -217q-41 -101 -116 -171q-77 -74 -180 -111q-101 -37 -226 -37q-123 0 -224 37q-106 38 -181 110q-76 71 -117 172q-40 100 -40 217v920h181v-920q0 -90 29 -160q27 -68 77 -115q48 -45 118 -71q72 -26 157 -26q87 0 159 26q69 26 116 71
q50 47 77 115q29 70 29 160v920z" />
    <glyph glyph-name="V" unicode="V" horiz-adv-x="1380" 
d="M1184 1433h193l-576 -1433h-223l-576 1433h192l495 -1231z" />
    <glyph glyph-name="W" unicode="W" horiz-adv-x="1951" 
d="M1755 1433h191l-560 -1433h-182l-229 611l-229 -611h-182l-560 1433h192l459 -1175l224 573l-235 602h192l139 -382l140 382h192l-236 -602l224 -573z" />
    <glyph glyph-name="X" unicode="X" horiz-adv-x="1290" 
d="M1281 1433l-528 -716l528 -717h-218l-419 569l-418 -569h-218l528 717l-528 716h218l418 -568l419 568h218z" />
    <glyph glyph-name="Y" unicode="Y" horiz-adv-x="1249" 
d="M1043 1433h217l-546 -741v-692h-180v692l-546 741h217l419 -568z" />
    <glyph glyph-name="Y" unicode="&#x178;" horiz-adv-x="1249" 
d="M1043 1433h217l-546 -741v-692h-180v692l-546 741h217l419 -568z" />
    <glyph glyph-name="Y" unicode="&#xdd;" horiz-adv-x="1249" 
d="M1043 1433h217l-546 -741v-692h-180v692l-546 741h217l419 -568z" />
    <glyph glyph-name="Z" unicode="Z" horiz-adv-x="1228" 
d="M265 165h933v-165h-1167v151l892 1118h-853v165h1089v-149z" />
    <glyph glyph-name="bracketleft" unicode="[" horiz-adv-x="409" 
d="M567 1526h-279v-1622h279v-152h-446v1926h446v-152z" />
    <glyph glyph-name="backslash" unicode="\" horiz-adv-x="866" 
d="M195 1431l651 -1434h-180l-652 1434h181z" />
    <glyph glyph-name="bracketright" unicode="]" horiz-adv-x="409" 
d="M-158 1678h447v-1926h-447v152h280v1622h-280v152z" />
    <glyph glyph-name="underscore" unicode="_" horiz-adv-x="1019" 
d="M983 -21h-946v151h946v-151z" />
    <glyph glyph-name="a" unicode="a" 
d="M1051 1032h181v-1023h-181v185q-9 -11 -29 -33q-76 -79 -175 -123t-219 -47q-117 -2 -222 39q-106 41 -186 118q-78 75 -121 173t-42 200q-1 102 42 200t121 173q79 76 186 117q105 41 222 39q120 -3 219 -47q100 -44 175 -122q12 -13 29 -34v185zM918 252
q62 50 97.5 121t35.5 148t-35.5 148t-97.5 121q-120 99 -290 96q-163 -3 -275 -109q-55 -50 -85.5 -117t-30.5 -139t30.5 -139.5t85.5 -117.5q55 -52 126 -79q70 -28 149 -30q169 -3 290 97z" />
    <glyph glyph-name="a" unicode="&#xe5;" 
d="M1051 1032h181v-1023h-181v185q-9 -11 -29 -33q-76 -79 -175 -123t-219 -47q-117 -2 -222 39q-106 41 -186 118q-78 75 -121 173t-42 200q-1 102 42 200t121 173q79 76 186 117q105 41 222 39q120 -3 219 -47q100 -44 175 -122q12 -13 29 -34v185zM918 252
q62 50 97.5 121t35.5 148t-35.5 148t-97.5 121q-120 99 -290 96q-163 -3 -275 -109q-55 -50 -85.5 -117t-30.5 -139t30.5 -139.5t85.5 -117.5q55 -52 126 -79q70 -28 149 -30q169 -3 290 97z" />
    <glyph glyph-name="a" unicode="&#xe4;" 
d="M1051 1032h181v-1023h-181v185q-9 -11 -29 -33q-76 -79 -175 -123t-219 -47q-117 -2 -222 39q-106 41 -186 118q-78 75 -121 173t-42 200q-1 102 42 200t121 173q79 76 186 117q105 41 222 39q120 -3 219 -47q100 -44 175 -122q12 -13 29 -34v185zM918 252
q62 50 97.5 121t35.5 148t-35.5 148t-97.5 121q-120 99 -290 96q-163 -3 -275 -109q-55 -50 -85.5 -117t-30.5 -139t30.5 -139.5t85.5 -117.5q55 -52 126 -79q70 -28 149 -30q169 -3 290 97z" />
    <glyph glyph-name="a" unicode="&#xe3;" 
d="M1051 1032h181v-1023h-181v185q-9 -11 -29 -33q-76 -79 -175 -123t-219 -47q-117 -2 -222 39q-106 41 -186 118q-78 75 -121 173t-42 200q-1 102 42 200t121 173q79 76 186 117q105 41 222 39q120 -3 219 -47q100 -44 175 -122q12 -13 29 -34v185zM918 252
q62 50 97.5 121t35.5 148t-35.5 148t-97.5 121q-120 99 -290 96q-163 -3 -275 -109q-55 -50 -85.5 -117t-30.5 -139t30.5 -139.5t85.5 -117.5q55 -52 126 -79q70 -28 149 -30q169 -3 290 97z" />
    <glyph glyph-name="a" unicode="&#xe2;" 
d="M1051 1032h181v-1023h-181v185q-9 -11 -29 -33q-76 -79 -175 -123t-219 -47q-117 -2 -222 39q-106 41 -186 118q-78 75 -121 173t-42 200q-1 102 42 200t121 173q79 76 186 117q105 41 222 39q120 -3 219 -47q100 -44 175 -122q12 -13 29 -34v185zM918 252
q62 50 97.5 121t35.5 148t-35.5 148t-97.5 121q-120 99 -290 96q-163 -3 -275 -109q-55 -50 -85.5 -117t-30.5 -139t30.5 -139.5t85.5 -117.5q55 -52 126 -79q70 -28 149 -30q169 -3 290 97z" />
    <glyph glyph-name="a" unicode="&#xe1;" 
d="M1051 1032h181v-1023h-181v185q-9 -11 -29 -33q-76 -79 -175 -123t-219 -47q-117 -2 -222 39q-106 41 -186 118q-78 75 -121 173t-42 200q-1 102 42 200t121 173q79 76 186 117q105 41 222 39q120 -3 219 -47q100 -44 175 -122q12 -13 29 -34v185zM918 252
q62 50 97.5 121t35.5 148t-35.5 148t-97.5 121q-120 99 -290 96q-163 -3 -275 -109q-55 -50 -85.5 -117t-30.5 -139t30.5 -139.5t85.5 -117.5q55 -52 126 -79q70 -28 149 -30q169 -3 290 97z" />
    <glyph glyph-name="a" unicode="&#xe0;" 
d="M1051 1032h181v-1023h-181v185q-9 -11 -29 -33q-76 -79 -175 -123t-219 -47q-117 -2 -222 39q-106 41 -186 118q-78 75 -121 173t-42 200q-1 102 42 200t121 173q79 76 186 117q105 41 222 39q120 -3 219 -47q100 -44 175 -122q12 -13 29 -34v185zM918 252
q62 50 97.5 121t35.5 148t-35.5 148t-97.5 121q-120 99 -290 96q-163 -3 -275 -109q-55 -50 -85.5 -117t-30.5 -139t30.5 -139.5t85.5 -117.5q55 -52 126 -79q70 -28 149 -30q169 -3 290 97z" />
    <glyph glyph-name="b" unicode="b" 
d="M1121 893q78 -75 120.5 -172t41.5 -200q1 -103 -41.5 -200.5t-120.5 -172.5q-80 -77 -186 -118q-105 -41 -223 -39q-120 3 -219 47t-175 123q-20 22 -29 33v-185h-180v1433h180v-595q17 21 29 34q75 78 175 122q99 44 219 47q118 2 223 -39q103 -40 186 -118zM987 265
q55 50 85.5 117t30.5 139q0 150 -115 256q-54 51 -126 79t-150 30q-170 3 -290 -96q-62 -50 -97.5 -121t-35.5 -148t35.5 -148t97.5 -121q121 -100 290 -97q79 2 149 30q69 27 126 80z" />
    <glyph glyph-name="c" unicode="c" horiz-adv-x="1091" 
d="M604 176q88 0 165.5 36.5t130.5 102.5l146 -97q-77 -97 -194 -152t-247 -55h-2q-149 0 -275.5 69t-199.5 186.5t-73 255.5q0 210 161 359t389 149h1q131 0 248.5 -56t194.5 -155l-147 -95q-53 68 -130.5 105t-165.5 37h-1q-152 0 -260 -100q-109 -101 -109 -245
q-1 -142 107.5 -243.5t260.5 -101.5z" />
    <glyph glyph-name="c" unicode="&#xe7;" horiz-adv-x="1091" 
d="M604 176q88 0 165.5 36.5t130.5 102.5l146 -97q-77 -97 -194 -152t-247 -55h-2q-149 0 -275.5 69t-199.5 186.5t-73 255.5q0 210 161 359t389 149h1q131 0 248.5 -56t194.5 -155l-147 -95q-53 68 -130.5 105t-165.5 37h-1q-152 0 -260 -100q-109 -101 -109 -245
q-1 -142 107.5 -243.5t260.5 -101.5z" />
    <glyph glyph-name="d" unicode="d" 
d="M1051 1442h181v-1433h-181v185q-9 -11 -29 -33q-76 -79 -175 -123t-219 -47q-117 -2 -222 39q-106 41 -186 118q-78 75 -121 173t-42 200q-1 102 42 200t121 173q79 76 186 117q105 41 222 39q120 -3 219 -47q100 -44 175 -122q12 -13 29 -34v595zM918 252
q62 50 97.5 121t35.5 148t-35 148t-97 121q-120 99 -291 96q-163 -3 -275 -109q-55 -50 -85.5 -117t-30.5 -139t30.5 -139.5t85.5 -117.5q55 -52 126 -79q70 -28 149 -30q169 -3 290 97z" />
    <glyph glyph-name="e" unicode="e" horiz-adv-x="1257" 
d="M627 1050q155 0 286.5 -71t208 -192.5t76.5 -265.5q0 -33 -7 -79h-945q32 -124 150.5 -205.5t271.5 -81.5q100 0 189.5 37t150.5 103l167 -71q-84 -109 -218.5 -171t-288.5 -62q-124 0 -238 42t-196 113t-130.5 169t-48.5 206q0 144 76.5 265.5t208.5 192.5t287 71z
M245 599h763q-30 124 -136 205.5t-245 81.5t-246 -81.5t-136 -205.5z" />
    <glyph glyph-name="e" unicode="&#xeb;" horiz-adv-x="1257" 
d="M627 1050q155 0 286.5 -71t208 -192.5t76.5 -265.5q0 -33 -7 -79h-945q32 -124 150.5 -205.5t271.5 -81.5q100 0 189.5 37t150.5 103l167 -71q-84 -109 -218.5 -171t-288.5 -62q-124 0 -238 42t-196 113t-130.5 169t-48.5 206q0 144 76.5 265.5t208.5 192.5t287 71z
M245 599h763q-30 124 -136 205.5t-245 81.5t-246 -81.5t-136 -205.5z" />
    <glyph glyph-name="e" unicode="&#xea;" horiz-adv-x="1257" 
d="M627 1050q155 0 286.5 -71t208 -192.5t76.5 -265.5q0 -33 -7 -79h-945q32 -124 150.5 -205.5t271.5 -81.5q100 0 189.5 37t150.5 103l167 -71q-84 -109 -218.5 -171t-288.5 -62q-124 0 -238 42t-196 113t-130.5 169t-48.5 206q0 144 76.5 265.5t208.5 192.5t287 71z
M245 599h763q-30 124 -136 205.5t-245 81.5t-246 -81.5t-136 -205.5z" />
    <glyph glyph-name="e" unicode="&#xe9;" horiz-adv-x="1257" 
d="M627 1050q155 0 286.5 -71t208 -192.5t76.5 -265.5q0 -33 -7 -79h-945q32 -124 150.5 -205.5t271.5 -81.5q100 0 189.5 37t150.5 103l167 -71q-84 -109 -218.5 -171t-288.5 -62q-124 0 -238 42t-196 113t-130.5 169t-48.5 206q0 144 76.5 265.5t208.5 192.5t287 71z
M245 599h763q-30 124 -136 205.5t-245 81.5t-246 -81.5t-136 -205.5z" />
    <glyph glyph-name="e" unicode="&#xe8;" horiz-adv-x="1257" 
d="M627 1050q155 0 286.5 -71t208 -192.5t76.5 -265.5q0 -33 -7 -79h-945q32 -124 150.5 -205.5t271.5 -81.5q100 0 189.5 37t150.5 103l167 -71q-84 -109 -218.5 -171t-288.5 -62q-124 0 -238 42t-196 113t-130.5 169t-48.5 206q0 144 76.5 265.5t208.5 192.5t287 71z
M245 599h763q-30 124 -136 205.5t-245 81.5t-246 -81.5t-136 -205.5z" />
    <glyph glyph-name="f" unicode="f" horiz-adv-x="753" 
d="M494 1241q-62 -50 -62 -175v-34h299v-164h-299v-859h-180v859h-232v164h232v34q0 201 124 299q69 54 155.5 70t199.5 11v-165q-94 3 -148 -4.5t-89 -35.5z" />
    <glyph glyph-name="g" unicode="g" horiz-adv-x="1331" 
d="M1041 1032h181v-908q0 -217 -118 -356t-333 -174q-56 -10 -118 -10q-174 0 -326.5 76.5t-236.5 207.5l156 83q70 -109 209 -164t284 -31q302 50 302 368v72q-22 -28 -27 -32q-74 -79 -174 -122q-101 -44 -217 -47q-111 -1 -220 39q-103 40 -185 117q-78 74 -120 171
t-41 199q-1 102 41 198.5t120 170.5q82 77 185 117q109 40 220 39q116 -3 217 -47q100 -43 174 -122q5 -4 27 -32v187zM910 255q61 49 96 119.5t35 146.5t-35 146.5t-96 119.5q-119 98 -287 95q-161 -3 -272 -108q-54 -50 -84 -116.5t-30 -136.5t30.5 -136.5t84.5 -116.5
q55 -52 124 -79q66 -27 147 -29q168 -3 287 95z" />
    <glyph glyph-name="h" unicode="h" horiz-adv-x="1132" 
d="M1042 9h-181l1 567q0 66 -16 120q-17 58 -52 99q-70 85 -192 91q-131 6 -215 -75q-43 -42 -70 -105q-22 -52 -29 -130v-1q-1 -1 -1 -2v-564h-181v1433h181v-553q49 71 129 113q83 44 186 47q106 3 193 -35q91 -40 152 -119q99 -130 95 -319v-567z" />
    <glyph glyph-name="i" unicode="i" horiz-adv-x="395" 
d="M287 9h-181v1023h181v-1023zM197 1192q-52 0 -88.5 36.5t-36.5 88.5t36.5 88.5t88.5 36.5t88.5 -36.5t36.5 -88.5t-36.5 -88.5t-88.5 -36.5z" />
    <glyph glyph-name="i" unicode="&#xef;" horiz-adv-x="395" 
d="M287 9h-181v1023h181v-1023zM197 1192q-52 0 -88.5 36.5t-36.5 88.5t36.5 88.5t88.5 36.5t88.5 -36.5t36.5 -88.5t-36.5 -88.5t-88.5 -36.5z" />
    <glyph glyph-name="i" unicode="&#xee;" horiz-adv-x="395" 
d="M287 9h-181v1023h181v-1023zM197 1192q-52 0 -88.5 36.5t-36.5 88.5t36.5 88.5t88.5 36.5t88.5 -36.5t36.5 -88.5t-36.5 -88.5t-88.5 -36.5z" />
    <glyph glyph-name="i" unicode="&#xed;" horiz-adv-x="395" 
d="M287 9h-181v1023h181v-1023zM197 1192q-52 0 -88.5 36.5t-36.5 88.5t36.5 88.5t88.5 36.5t88.5 -36.5t36.5 -88.5t-36.5 -88.5t-88.5 -36.5z" />
    <glyph glyph-name="i" unicode="&#xec;" horiz-adv-x="395" 
d="M287 9h-181v1023h181v-1023zM197 1192q-52 0 -88.5 36.5t-36.5 88.5t36.5 88.5t88.5 36.5t88.5 -36.5t36.5 -88.5t-36.5 -88.5t-88.5 -36.5z" />
    <glyph glyph-name="j" unicode="j" horiz-adv-x="399" 
d="M199 1192q-52 0 -88.5 36.5t-36.5 88.5t36.5 88.5t88.5 36.5t88.5 -36.5t36.5 -88.5t-36.5 -88.5t-88.5 -36.5zM109 106v926h181v-926q0 -143 -24 -230t-94 -155q-116 -112 -331 -112q-33 0 -50 1l11 164q168 -9 239 59q39 38 53.5 96.5t14.5 176.5z" />
    <glyph glyph-name="k" unicode="k" horiz-adv-x="1054" 
d="M475 578l577 -570h-241l-524 541v-541h-181v1434h181v-835l412 425h241z" />
    <glyph glyph-name="l" unicode="l" horiz-adv-x="395" 
d="M287 8h-181v1434h181v-1434z" />
    <glyph glyph-name="m" unicode="m" horiz-adv-x="1720" 
d="M1446 9v552v35v17l-1 15q-2 39 -6 58q-11 56 -40 101q-57 85 -166 94q-24 3 -54 -1q-25 -3 -51 -12q-54 -19 -93 -64q-44 -53 -61 -110q-15 -44 -18 -104v-29l1 -552h-181v552v34v18v15q-2 32 -7 58q-11 56 -40 101q-57 85 -165 94q-24 3 -54 -1q-27 -3 -52 -12
q-54 -19 -93 -64q-44 -52 -61 -111q-12 -36 -17 -97v-587h-181v1023h181v-139q35 57 92 95q43 27 88 41q45 13 97 16q53 2 98 -8q49 -10 95 -35q88 -47 137 -132q13 -22 27 -56q7 23 15 40q37 85 113 134q43 27 88 41q46 13 96 16q53 2 99 -8q49 -10 95 -35q86 -46 136 -132
q41 -70 56 -159q5 -36 7 -79v-71v-552h-180z" />
    <glyph glyph-name="n" unicode="n" horiz-adv-x="1132" 
d="M1042 9h-181l1 564v18l-1 15q0 10 -2 30q-2 23 -12 58q-18 59 -50 98q-68 81 -190 89q-133 8 -218 -70q-46 -43 -73 -106q-23 -56 -28 -132q0 -3 -0.5 -9t-0.5 -9v-546h-181v1023h181v-167q0 1 5 8q47 80 130 124q39 21 90 34q41 10 95 14q105 3 192 -35q93 -40 152 -118
q97 -128 91 -319v-564z" />
    <glyph glyph-name="n" unicode="&#xf1;" horiz-adv-x="1132" 
d="M1042 9h-181l1 564v18l-1 15q0 10 -2 30q-2 23 -12 58q-18 59 -50 98q-68 81 -190 89q-133 8 -218 -70q-46 -43 -73 -106q-23 -56 -28 -132q0 -3 -0.5 -9t-0.5 -9v-546h-181v1023h181v-167q0 1 5 8q47 80 130 124q39 21 90 34q41 10 95 14q105 3 192 -35q93 -40 152 -118
q97 -128 91 -319v-564z" />
    <glyph glyph-name="o" unicode="o" horiz-adv-x="1257" 
d="M629 1050q155 0 286.5 -71t208 -192.5t76.5 -265.5t-76.5 -266t-208 -193t-286.5 -71q-116 0 -222 42t-182.5 113t-122 169t-45.5 206q0 144 76.5 265.5t208.5 192.5t287 71zM629 155q161 0 275.5 107.5t114.5 258.5t-114.5 258t-275.5 107t-276 -107t-115 -258
t115 -258.5t276 -107.5z" />
    <glyph glyph-name="o" unicode="&#xf8;" horiz-adv-x="1257" 
d="M629 1050q155 0 286.5 -71t208 -192.5t76.5 -265.5t-76.5 -266t-208 -193t-286.5 -71q-116 0 -222 42t-182.5 113t-122 169t-45.5 206q0 144 76.5 265.5t208.5 192.5t287 71zM629 155q161 0 275.5 107.5t114.5 258.5t-114.5 258t-275.5 107t-276 -107t-115 -258
t115 -258.5t276 -107.5z" />
    <glyph glyph-name="o" unicode="&#xf6;" horiz-adv-x="1257" 
d="M629 1050q155 0 286.5 -71t208 -192.5t76.5 -265.5t-76.5 -266t-208 -193t-286.5 -71q-116 0 -222 42t-182.5 113t-122 169t-45.5 206q0 144 76.5 265.5t208.5 192.5t287 71zM629 155q161 0 275.5 107.5t114.5 258.5t-114.5 258t-275.5 107t-276 -107t-115 -258
t115 -258.5t276 -107.5z" />
    <glyph glyph-name="o" unicode="&#xf5;" horiz-adv-x="1257" 
d="M629 1050q155 0 286.5 -71t208 -192.5t76.5 -265.5t-76.5 -266t-208 -193t-286.5 -71q-116 0 -222 42t-182.5 113t-122 169t-45.5 206q0 144 76.5 265.5t208.5 192.5t287 71zM629 155q161 0 275.5 107.5t114.5 258.5t-114.5 258t-275.5 107t-276 -107t-115 -258
t115 -258.5t276 -107.5z" />
    <glyph glyph-name="o" unicode="&#xf4;" horiz-adv-x="1257" 
d="M629 1050q155 0 286.5 -71t208 -192.5t76.5 -265.5t-76.5 -266t-208 -193t-286.5 -71q-116 0 -222 42t-182.5 113t-122 169t-45.5 206q0 144 76.5 265.5t208.5 192.5t287 71zM629 155q161 0 275.5 107.5t114.5 258.5t-114.5 258t-275.5 107t-276 -107t-115 -258
t115 -258.5t276 -107.5z" />
    <glyph glyph-name="o" unicode="&#xf3;" horiz-adv-x="1257" 
d="M629 1050q155 0 286.5 -71t208 -192.5t76.5 -265.5t-76.5 -266t-208 -193t-286.5 -71q-116 0 -222 42t-182.5 113t-122 169t-45.5 206q0 144 76.5 265.5t208.5 192.5t287 71zM629 155q161 0 275.5 107.5t114.5 258.5t-114.5 258t-275.5 107t-276 -107t-115 -258
t115 -258.5t276 -107.5z" />
    <glyph glyph-name="o" unicode="&#xf2;" horiz-adv-x="1257" 
d="M629 1050q155 0 286.5 -71t208 -192.5t76.5 -265.5t-76.5 -266t-208 -193t-286.5 -71q-116 0 -222 42t-182.5 113t-122 169t-45.5 206q0 144 76.5 265.5t208.5 192.5t287 71zM629 155q161 0 275.5 107.5t114.5 258.5t-114.5 258t-275.5 107t-276 -107t-115 -258
t115 -258.5t276 -107.5z" />
    <glyph glyph-name="p" unicode="p" 
d="M1121 893q78 -75 120.5 -172t41.5 -200q1 -103 -41.5 -200.5t-120.5 -172.5q-80 -77 -186 -118q-105 -41 -223 -39q-120 3 -219 47t-175 123q-20 22 -29 33v-595h-180v1433h180v-185q9 11 29 33q76 79 175 123t219 47q118 2 223 -39q106 -41 186 -118zM988 265
q115 106 115 256t-115 256q-54 51 -126 79t-150 30q-170 3 -290 -96q-62 -50 -97 -121t-35 -148t35 -148t97 -121q121 -100 290 -97q79 2 149 30q71 27 127 80z" />
    <glyph glyph-name="q" unicode="q" 
d="M1051 1032h181v-1433h-181v595q-9 -11 -29 -33q-76 -79 -175 -123t-219 -47q-117 -2 -222 39q-106 41 -186 118q-78 75 -121 173t-42 200q-1 102 42 200t121 173q81 77 186 117q105 41 222 39q120 -3 219 -47q100 -44 175 -122q12 -13 29 -34v185zM918 252
q62 50 97.5 121t35.5 148t-35.5 148t-97.5 121q-120 99 -290 96q-163 -3 -275 -109q-55 -50 -85.5 -117t-30.5 -139t30.5 -139.5t85.5 -117.5q55 -52 126 -79q70 -28 149 -30q169 -3 290 97z" />
    <glyph glyph-name="r" unicode="r" horiz-adv-x="794" 
d="M607 1045q89 3 169 -26l-42 -174q-54 32 -127 36q-133 8 -218 -70q-46 -43 -73 -106q-23 -56 -28 -132q0 -3 -0.5 -9.5t-0.5 -9.5v-545h-181v1023h181v-167q1 1 2.5 4t2.5 4q47 80 130 124q39 21 90 34q41 10 95 14z" />
    <glyph glyph-name="s" unicode="s" horiz-adv-x="927" 
d="M523 618q34 -11 54.5 -18t60.5 -23.5t66 -32.5t59.5 -42.5t53.5 -55t35 -68t16 -83.5q3 -122 -91 -205q-110 -99 -293 -99h-25q-150 7 -261.5 85.5t-148.5 202.5l175 43q24 -80 93.5 -121.5t150.5 -44.5q121 -5 183 51q37 34 36 83q-1 34 -18 61t-51.5 47.5t-67.5 34
t-87 30.5q-8 3 -24 8.5t-23 7.5q-4 1 -11.5 4t-11.5 4q-41 14 -68.5 24.5t-76.5 38t-78.5 57t-51 77.5t-16.5 103q4 49 28 95t66.5 84t110.5 61t150 23q135 0 231.5 -55.5t142.5 -158.5l-167 -62q-48 112 -207 112q-12 0 -30.5 -2.5t-54.5 -11.5t-61.5 -34t-28.5 -63
q-4 -42 39.5 -72.5t134.5 -61.5l27 -9q6 -2 19 -6.5t21 -7.5z" />
    <glyph glyph-name="t" unicode="t" horiz-adv-x="772" 
d="M722 868h-309v-484q0 -90 13 -129.5t42 -57.5q58 -37 254 -16v-165q-74 -7 -124 -7q-152 0 -235 54q-57 36 -87.5 94.5t-37 107.5t-6.5 119v484h-212v165h212v237l181 95v-333h309v-164z" />
    <glyph glyph-name="u" unicode="u" horiz-adv-x="1134" 
d="M845 1032h181v-1023h-181v167q-1 -4 -4 -8q-46 -77 -131 -123q-42 -23 -90 -35q-41 -10 -95 -14q-105 -3 -192 35q-92 39 -152 119q-96 126 -90 318l-1 564h181l-1 -564l1 -18v-15l3 -30q3 -29 11 -58q18 -59 50 -98q68 -81 190 -89q133 -8 219 71q45 42 72 105
q23 56 28 132q0 3 0.5 9.5t0.5 9.5v545z" />
    <glyph glyph-name="u" unicode="&#xfc;" horiz-adv-x="1134" 
d="M845 1032h181v-1023h-181v167q-1 -4 -4 -8q-46 -77 -131 -123q-42 -23 -90 -35q-41 -10 -95 -14q-105 -3 -192 35q-92 39 -152 119q-96 126 -90 318l-1 564h181l-1 -564l1 -18v-15l3 -30q3 -29 11 -58q18 -59 50 -98q68 -81 190 -89q133 -8 219 71q45 42 72 105
q23 56 28 132q0 3 0.5 9.5t0.5 9.5v545z" />
    <glyph glyph-name="u" unicode="&#xfb;" horiz-adv-x="1134" 
d="M845 1032h181v-1023h-181v167q-1 -4 -4 -8q-46 -77 -131 -123q-42 -23 -90 -35q-41 -10 -95 -14q-105 -3 -192 35q-92 39 -152 119q-96 126 -90 318l-1 564h181l-1 -564l1 -18v-15l3 -30q3 -29 11 -58q18 -59 50 -98q68 -81 190 -89q133 -8 219 71q45 42 72 105
q23 56 28 132q0 3 0.5 9.5t0.5 9.5v545z" />
    <glyph glyph-name="u" unicode="&#xfa;" horiz-adv-x="1134" 
d="M845 1032h181v-1023h-181v167q-1 -4 -4 -8q-46 -77 -131 -123q-42 -23 -90 -35q-41 -10 -95 -14q-105 -3 -192 35q-92 39 -152 119q-96 126 -90 318l-1 564h181l-1 -564l1 -18v-15l3 -30q3 -29 11 -58q18 -59 50 -98q68 -81 190 -89q133 -8 219 71q45 42 72 105
q23 56 28 132q0 3 0.5 9.5t0.5 9.5v545z" />
    <glyph glyph-name="u" unicode="&#xf9;" horiz-adv-x="1134" 
d="M845 1032h181v-1023h-181v167q-1 -4 -4 -8q-46 -77 -131 -123q-42 -23 -90 -35q-41 -10 -95 -14q-105 -3 -192 35q-92 39 -152 119q-96 126 -90 318l-1 564h181l-1 -564l1 -18v-15l3 -30q3 -29 11 -58q18 -59 50 -98q68 -81 190 -89q133 -8 219 71q45 42 72 105
q23 56 28 132q0 3 0.5 9.5t0.5 9.5v545z" />
    <glyph glyph-name="v" unicode="v" horiz-adv-x="1030" 
d="M821 1032h191l-388 -1023h-220l-388 1023h192l306 -809z" />
    <glyph glyph-name="w" unicode="w" horiz-adv-x="1626" 
d="M1416 1032h196l-470 -1024h-167l-163 399l-163 -399h-167l-470 1024h196l358 -779l148 323l-209 456h196l111 -289l112 289h196l-210 -456l148 -323z" />
    <glyph glyph-name="x" unicode="x" horiz-adv-x="1038" 
d="M628 520l384 -512h-219l-275 366l-275 -366h-218l384 512l-384 512h218l275 -366l275 366h219z" />
    <glyph glyph-name="y" unicode="y" horiz-adv-x="1136" 
d="M927 1032h196l-556 -1206l-104 -228h-196l202 441l-457 993h196l353 -812l87 207z" />
    <glyph glyph-name="y" unicode="&#xff;" horiz-adv-x="1136" 
d="M927 1032h196l-556 -1206l-104 -228h-196l202 441l-457 993h196l353 -812l87 207z" />
    <glyph glyph-name="y" unicode="&#xfd;" horiz-adv-x="1136" 
d="M927 1032h196l-556 -1206l-104 -228h-196l202 441l-457 993h196l353 -812l87 207z" />
    <glyph glyph-name="z" unicode="z" horiz-adv-x="989" 
d="M300 173h646v-164h-901v132l616 727h-582v164h836v-133z" />
    <glyph glyph-name="braceleft" unicode="{" horiz-adv-x="528" 
d="M504 1536q-56 -23 -80 -71q-22 -44 -19 -120l3 -155q2 -104 1 -156l-3 -77q-2 -52 -14 -94q-14 -50 -46 -92q-25 -32 -62 -57q39 -26 62 -56q32 -42 46 -92q12 -42 14 -94l3 -78q1 -51 -1 -155l-3 -155q-3 -76 19 -121q23 -47 80 -70q55 -23 141 -26v-121
q-114 -4 -194 22q-56 19 -97 50q-42 32 -71 83q-41 74 -43 182l-3 156q-2 103 -1 155l3 78q2 39 -3 61q-11 59 -51 91q-42 34 -126 45v90q82 11 126 46q40 32 51 90q5 22 3 61l-3 78q-1 52 1 155l3 156q2 109 43 183q28 49 71 82q38 30 97 50q80 26 194 22v-121
q-84 -3 -141 -25z" />
    <glyph glyph-name="braceright" unicode="}" horiz-adv-x="528" 
d="M342 805q44 -35 125 -46v-90q-83 -11 -125 -45q-40 -32 -51 -91q-5 -22 -3 -61l2 -78q2 -78 0 -156l-3 -155q-2 -109 -43 -183q-28 -49 -71 -82q-38 -30 -97 -50q-80 -26 -195 -22v121q86 3 142 25q55 22 79 71q23 46 20 120l-4 156q-1 77 0 155l3 78q2 55 13 93
q13 48 47 92q25 32 62 57q-37 25 -62 57q-34 44 -47 92q-11 38 -13 93l-3 78q-1 78 0 155l4 156q3 74 -20 120q-24 47 -79 70t-142 26v121q115 4 195 -22q56 -19 97 -50q42 -32 71 -83q41 -74 43 -182l3 -156q1 -77 0 -155l-2 -78q-2 -39 3 -61q11 -58 51 -90z" />
    <glyph glyph-name="asciitilde" unicode="~" horiz-adv-x="1212" 
d="M1001 642l164 -26q-20 -100 -74.5 -170.5t-135.5 -98.5q-48 -17 -103 -17q-140 0 -296 110q-147 103 -236 72q-38 -14 -67 -55t-40 -99l-164 27q19 100 74.5 169.5t136.5 98.5q179 62 398 -93q146 -102 237 -71q38 14 66.5 54.5t39.5 98.5z" />
    <glyph glyph-name="nonbreakingspace" unicode="&#xa0;" horiz-adv-x="733" 
 />
    <glyph glyph-name="cent" unicode="&#xa2;" horiz-adv-x="1140" 
d="M621 136q88 0 165 36.5t130 102.5l147 -97q-77 -97 -194.5 -152t-247.5 -55h-1q-90 0 -180 29l-147 -322h-181l180 395q-102 71 -161 178.5t-59 230.5q0 210 161 359t388 149h1q36 0 85 -7l138 301h180l-159 -348q119 -55 200 -157l-148 -95q-49 62 -121 99l-288 -631
q56 -16 111 -16h1zM365 233l270 592q-2 0 -6.5 0.5t-6.5 0.5h-1q-151 0 -259 -100q-110 -102 -110 -244q0 -147 113 -249z" />
    <glyph glyph-name="sterling" unicode="&#xa3;" horiz-adv-x="1273" 
d="M489 318q0 -92 -54 -171h758v-152h-1059v152q78 0 133 50t55 121v317h-261v152h261v179q0 220 117 345q121 130 326 130q159 0 280 -92q118 -92 164 -253l-162 -39q-35 119 -110 176q-74 57 -172 57q-125 0 -199 -78q-77 -83 -77 -246v-179h391v-152h-391v-317z" />
    <glyph glyph-name="yen" unicode="&#xa5;" horiz-adv-x="1212" 
d="M1138 1431l-434 -641h383v-152h-398v-203h398v-152h-398v-286h-167v286h-398v152h398v203h-398v152h384l-434 641h196l336 -496l336 496h196z" />
    <glyph glyph-name="copyright" unicode="&#xa9;" horiz-adv-x="1640" 
d="M1000 888q-72 72 -174 72t-174 -72t-72 -174t72 -174t174 -72t174 72l100 -100q-114 -114 -274 -114t-274 114q-113 113 -113 274t113 274t274 113t274 -113zM820 1452q200 0 370 -99t269 -269t99 -370t-99 -370t-269 -269t-370 -99t-370 99t-269 269t-99 370t99 370
t269 269t370 99zM820 118q162 0 299.5 80t217.5 217t80 299q0 121 -47.5 231.5t-127.5 190.5t-190.5 127.5t-231.5 47.5t-231.5 -47.5t-190.5 -127.5t-127.5 -190.5t-47.5 -231.5q0 -162 80 -299t217.5 -217t299.5 -80z" />
    <glyph glyph-name="softhyphen" unicode="&#xad;" horiz-adv-x="0" 
 />
    <glyph glyph-name="registered" unicode="&#xae;" horiz-adv-x="1640" 
d="M946 633q-1 -1 -3.5 -1t-3.5 -1l209 -318h-169l-200 304h-65v-304h-142v801h265q61 0 109 -16q51 -16 89 -50q37 -31 59 -82q21 -50 21 -101q0 -50 -21 -100q-22 -48 -59 -81t-89 -51zM837 758q33 0 63 10q29 11 41 22q17 15 24 32q8 17 8 44t-8 44q-7 16 -23 31
q-18 14 -42 23q-27 9 -63 9h-123v-215h123zM820 1452q200 0 370 -99t269 -269t99 -370t-99 -370t-269 -269t-370 -99t-370 99t-269 269t-99 370t99 370t269 269t370 99zM820 118q162 0 299.5 80t217.5 217t80 299q0 121 -47.5 231.5t-127.5 190.5t-190.5 127.5t-231.5 47.5
q-162 0 -299 -80t-217 -217.5t-80 -299.5t80 -299t217 -217t299 -80z" />
    <glyph glyph-name="multiply" unicode="&#xd7;" horiz-adv-x="903" 
d="M840 910l-281 -281l281 -281l-108 -107l-281 281l-280 -281l-108 107l281 281l-281 281l108 107l280 -281l281 281z" />
    <glyph glyph-name="divide" unicode="&#xf7;" horiz-adv-x="915" 
d="M880 553h-845v152h845v-152zM457 429q52 0 88.5 -36.5t36.5 -88.5t-36.5 -88.5t-88.5 -36.5t-88.5 36.5t-36.5 88.5t36.5 88.5t88.5 36.5zM457 829q-52 0 -88.5 36.5t-36.5 88.5t36.5 88.5t88.5 36.5t88.5 -36.5t36.5 -88.5t-36.5 -88.5t-88.5 -36.5z" />
    <glyph glyph-name="quoteleft" unicode="&#x2018;" horiz-adv-x="421" 
d="M237 1433h124l-126 -601h-182z" />
    <glyph glyph-name="quoteright" unicode="&#x2019;" horiz-adv-x="423" 
d="M187 1433h182l-184 -601h-124z" />
    <glyph glyph-name="quotedblleft" unicode="&#x201c;" horiz-adv-x="835" 
d="M53 832l184 601h124l-126 -601h-182zM652 1433h124l-125 -601h-182z" />
    <glyph glyph-name="quotedblright" unicode="&#x201d;" horiz-adv-x="823" 
d="M61 832l126 601h182l-184 -601h-124zM590 1433h182l-184 -601h-124z" />
    <glyph glyph-name="Euro" unicode="&#x20ac;" horiz-adv-x="1484" 
d="M690 306q134 -122 319 -157t361 28l61 -141q-140 -50 -293 -50q-158 0 -305 55t-261 158q-119 108 -181 253h-317v152h273q-18 110 0 220h-273v152h317q62 145 181 253q169 154 402.5 198t456.5 -35l-61 -141q-176 63 -361 28t-319 -157q-74 -68 -117 -146h460v-152h-517
q-23 -110 0 -220h517v-152h-460q43 -78 117 -146z" />
    <glyph glyph-name="trademark" unicode="&#x2122;" horiz-adv-x="1400" 
d="M47 1304v127h517v-127h-189v-507h-139v507h-189zM1198 1431h121v-634h-139v373l-179 -256l-180 256v-373h-139v634h122l197 -282z" />
    </font>
</defs>
</svg>
