<svg width="209" height="120" viewBox="0 0 209 120" fill="none" xmlns="http://www.w3.org/2000/svg">
<path fill-rule="evenodd" clip-rule="evenodd" d="M153.633 47.2993C162.812 49.9655 169.64 53.8337 176.405 57.9356C198.589 71.3975 203.721 84.4367 184.366 90.7125C154.281 100.426 91.6475 95.2765 46.6772 77.858C36.7163 74.0057 23.0912 69.312 14.358 61.1938C6.23349 53.6443 8.22471 47.7909 14.0423 43.4367C19.9762 38.9641 29.892 36.0412 37.5739 34.5128C71.1514 27.861 134.117 30.5098 185.971 51.9022C187.039 52.3329 188.206 52.3971 188.634 52.061C189.063 51.7248 188.631 51.1256 187.641 50.716C134.264 28.6968 69.3287 25.8256 34.7693 32.6704C25.2092 34.5812 12.2978 38.5874 7.21075 44.9489C3.76064 49.304 3.91015 54.741 10.9417 61.3199C20.2119 69.9588 34.6644 75.0369 45.2372 79.1299C91.6625 97.1147 156.432 102.496 187.452 92.4503C208.283 85.7126 202.9 71.7214 179.042 57.2482C171.773 52.8167 164.262 48.6576 154.298 45.7641C153.2 45.4454 152.162 45.5315 152.044 45.9727C151.847 46.3927 152.614 47.0017 153.633 47.2993Z" fill="url(#paint0_linear_2835_19941)"/>
<path fill-rule="evenodd" clip-rule="evenodd" d="M154.633 46.2993C163.812 48.9655 170.64 52.8337 177.405 56.9356C199.589 70.3975 204.721 83.4367 185.366 89.7125C155.281 99.4259 92.6475 94.2765 47.6772 76.858C37.7163 73.0057 24.0912 68.312 15.358 60.1938C7.23349 52.6443 9.22471 46.7909 15.0423 42.4367C20.9762 37.9641 30.892 35.0412 38.5739 33.5128C72.1514 26.861 135.117 29.5098 186.971 50.9022C188.039 51.3329 189.206 51.3971 189.634 51.061C190.063 50.7248 189.631 50.1256 188.641 49.716C135.264 27.6968 70.3287 24.8256 35.7693 31.6704C26.2092 33.5812 13.2978 37.5874 8.21075 43.9489C4.76064 48.304 4.91015 53.741 11.9417 60.3199C21.2119 68.9588 35.6644 74.0369 46.2372 78.1299C92.6625 96.1147 157.432 101.496 188.452 91.4503C209.283 84.7126 203.9 70.7214 180.042 56.2482C172.773 51.8167 165.262 47.6576 155.298 44.7641C154.2 44.4454 153.162 44.5315 153.044 44.9727C152.847 45.3927 153.614 46.0017 154.633 46.2993Z" fill="url(#paint1_linear_2835_19941)"/>
<path fill-rule="evenodd" clip-rule="evenodd" d="M154.633 45.2993C163.812 47.9655 170.64 51.8337 177.405 55.9356C199.589 69.3975 204.721 82.4367 185.366 88.7125C155.281 98.4259 92.6475 93.2765 47.6772 75.858C37.7163 72.0057 24.0912 67.312 15.358 59.1938C7.23349 51.6443 9.22471 45.7909 15.0423 41.4367C20.9762 36.9641 30.892 34.0412 38.5739 32.5128C72.1514 25.861 135.117 28.5098 186.971 49.9022C188.039 50.3329 189.206 50.3971 189.634 50.061C190.063 49.7248 189.631 49.1256 188.641 48.716C135.264 26.6968 70.3287 23.8256 35.7693 30.6704C26.2092 32.5812 13.2978 36.5874 8.21075 42.9489C4.76064 47.304 4.91015 52.741 11.9417 59.3199C21.2119 67.9588 35.6644 73.0369 46.2372 77.1299C92.6625 95.1147 157.432 100.496 188.452 90.4503C209.283 83.7126 203.9 69.7214 180.042 55.2482C172.773 50.8167 165.262 46.6576 155.298 43.7641C154.2 43.4454 153.162 43.5315 153.044 43.9727C152.847 44.3927 153.614 45.0017 154.633 45.2993Z" fill="url(#paint2_linear_2835_19941)"/>
<path fill-rule="evenodd" clip-rule="evenodd" d="M154.633 44.2993C163.812 46.9655 170.64 50.8337 177.405 54.9356C199.589 68.3975 204.721 81.4367 185.366 87.7125C155.281 97.4259 92.6475 92.2765 47.6772 74.858C37.7163 71.0057 24.0912 66.312 15.358 58.1938C7.23349 50.6443 9.22471 44.7909 15.0423 40.4367C20.9762 35.9641 30.892 33.0412 38.5739 31.5128C72.1514 24.861 135.117 27.5098 186.971 48.9022C188.039 49.3329 189.206 49.3971 189.634 49.061C190.063 48.7248 189.631 48.1256 188.641 47.716C135.264 25.6968 70.3287 22.8256 35.7693 29.6704C26.2092 31.5812 13.2978 35.5874 8.21075 41.9489C4.76064 46.304 4.91015 51.741 11.9417 58.3199C21.2119 66.9588 35.6644 72.0369 46.2372 76.1299C92.6625 94.1147 157.432 99.4963 188.452 89.4503C209.283 82.7126 203.9 68.7214 180.042 54.2482C172.773 49.8167 165.262 45.6576 155.298 42.7641C154.2 42.4454 153.162 42.5315 153.044 42.9727C152.847 43.3927 153.614 44.0017 154.633 44.2993Z" fill="url(#paint3_linear_2835_19941)"/>
<defs>
<linearGradient id="paint0_linear_2835_19941" x1="18.0069" y1="1.63807" x2="76.5758" y2="154.347" gradientUnits="userSpaceOnUse">
<stop stop-color="#F39663"/>
<stop offset="0.5144" stop-color="#F0C5AB"/>
<stop offset="1" stop-color="#E9E9EB"/>
</linearGradient>
<linearGradient id="paint1_linear_2835_19941" x1="19.0069" y1="0.638066" x2="77.5758" y2="153.347" gradientUnits="userSpaceOnUse">
<stop stop-color="#F39663"/>
<stop offset="0.5144" stop-color="#F0C5AB"/>
<stop offset="1" stop-color="#E9E9EB"/>
</linearGradient>
<linearGradient id="paint2_linear_2835_19941" x1="19.0069" y1="-0.361934" x2="77.5758" y2="152.347" gradientUnits="userSpaceOnUse">
<stop stop-color="#F39663"/>
<stop offset="0.5144" stop-color="#F0C5AB"/>
<stop offset="1" stop-color="#E9E9EB"/>
</linearGradient>
<linearGradient id="paint3_linear_2835_19941" x1="19.0069" y1="-1.36193" x2="77.5758" y2="151.347" gradientUnits="userSpaceOnUse">
<stop stop-color="#F39663"/>
<stop offset="0.5144" stop-color="#F0C5AB"/>
<stop offset="1" stop-color="#E9E9EB"/>
</linearGradient>
</defs>
</svg>
