<svg width="101" height="101" viewBox="0 0 101 101" fill="none" xmlns="http://www.w3.org/2000/svg">
<mask id="mask0_1363_17061" style="mask-type:alpha" maskUnits="userSpaceOnUse" x="0" y="-1" width="101" height="103">
<mask id="path-1-inside-1_1363_17061" fill="white">
<path fill-rule="evenodd" clip-rule="evenodd" d="M6.02206e-07 50.5002C6.02209e-07 50.5 8.23161e-06 50.4998 8.23161e-06 50.4996C8.5642e-06 22.6092 22.6096 -0.000412922 50.5 -0.00041259C50.5873 -0.000412588 50.6745 -0.000191335 50.7617 0.000251171L101 0.00025177L101 50.4996L101 50.5002C101 78.3903 78.3902 101 50.5 101L50.5 101L0 101L6.02206e-07 50.5002Z"/>
</mask>
<path fill-rule="evenodd" clip-rule="evenodd" d="M6.02206e-07 50.5002C6.02209e-07 50.5 8.23161e-06 50.4998 8.23161e-06 50.4996C8.5642e-06 22.6092 22.6096 -0.000412922 50.5 -0.00041259C50.5873 -0.000412588 50.6745 -0.000191335 50.7617 0.000251171L101 0.00025177L101 50.4996L101 50.5002C101 78.3903 78.3902 101 50.5 101L50.5 101L0 101L6.02206e-07 50.5002Z" fill="#D8D8D8"/>
<path d="M6.02206e-07 50.5002L-0.437499 50.5002L6.02206e-07 50.5002ZM50.7617 0.000251171L50.7617 0.437759L50.7595 0.437744L50.7617 0.000251171ZM101 0.00025177L101 -0.437248L101.438 -0.437248L101.438 0.000251775L101 0.00025177ZM101 50.4996L101.438 50.4996L101 50.4996ZM101 50.5002L101.438 50.5002L101.438 50.5003L101 50.5002ZM50.5 101L50.0625 100.995L50.0675 100.562L50.5 100.562L50.5 101ZM50.5 101L50.9375 101.005L50.9325 101.438L50.5 101.438L50.5 101ZM0 101L-5.21713e-09 101.438L-0.4375 101.438L-0.4375 101L0 101ZM0.437508 50.4996L0.437501 50.5002L-0.437499 50.5002L-0.437492 50.4996L0.437508 50.4996ZM50.5 0.437087C22.8513 0.437087 0.437509 22.8508 0.437508 50.4996L-0.437492 50.4996C-0.437491 22.3676 22.368 -0.437913 50.5 -0.437913L50.5 0.437087ZM50.7595 0.437744C50.673 0.437309 50.5865 0.437087 50.5 0.437087L50.5 -0.437913C50.588 -0.437913 50.676 -0.437691 50.7639 -0.437241L50.7595 0.437744ZM101 0.437752L50.7617 0.437751L50.7617 -0.437249L101 -0.437248L101 0.437752ZM100.563 50.4996L100.563 0.000251765L101.438 0.000251775L101.438 50.4996L100.563 50.4996ZM100.563 50.5002L100.563 50.4996L101.438 50.4996L101.438 50.5002L100.563 50.5002ZM50.5 100.562C78.1485 100.562 100.562 78.1487 100.563 50.5002L101.438 50.5003C101.437 78.6319 78.6318 101.437 50.5 101.437L50.5 100.562ZM50.9375 101.005L50.9375 101.005L50.0625 100.995L50.0625 100.995L50.9375 101.005ZM50.5 101.438L-5.21713e-09 101.438L5.21713e-09 100.563L50.5 100.563L50.5 101.438ZM-0.4375 101L-0.437499 50.5002L0.437501 50.5002L0.4375 101L-0.4375 101Z" fill="#979797" mask="url(#path-1-inside-1_1363_17061)"/>
</mask>
<g mask="url(#mask0_1363_17061)">
<rect width="117.359" height="1.42254" transform="matrix(1.19249e-08 -1 -1 -1.19249e-08 72.5498 108.825)" fill="#061F29"/>
<rect width="117.359" height="1.42254" transform="matrix(1.19249e-08 -1 -1 -1.19249e-08 66.8594 108.825)" fill="#061F29"/>
<rect width="117.359" height="1.42254" transform="matrix(1.19249e-08 -1 -1 -1.19249e-08 95.3096 108.825)" fill="#061F29"/>
<rect width="117.359" height="1.42254" transform="matrix(1.19249e-08 -1 -1 -1.19249e-08 78.2393 108.825)" fill="#061F29"/>
<rect width="117.359" height="1.42254" transform="matrix(1.19249e-08 -1 -1 -1.19249e-08 64.0146 108.825)" fill="#061F29"/>
<rect width="117.359" height="1.42254" transform="matrix(1.19249e-08 -1 -1 -1.19249e-08 81.085 108.825)" fill="#061F29"/>
<rect width="117.359" height="1.42254" transform="matrix(1.19249e-08 -1 -1 -1.19249e-08 75.3945 108.825)" fill="#061F29"/>
<rect width="117.359" height="1.42254" transform="matrix(1.19249e-08 -1 -1 -1.19249e-08 92.4648 108.825)" fill="#061F29"/>
<rect width="117.359" height="1.42254" transform="matrix(1.19249e-08 -1 -1 -1.19249e-08 69.7041 108.825)" fill="#061F29"/>
<rect width="117.359" height="1.42254" transform="matrix(1.19249e-08 -1 -1 -1.19249e-08 86.7744 108.825)" fill="#061F29"/>
<rect width="117.359" height="1.42254" transform="matrix(1.19249e-08 -1 -1 -1.19249e-08 101 108.825)" fill="#061F29"/>
<rect width="117.359" height="1.42254" transform="matrix(1.19249e-08 -1 -1 -1.19249e-08 89.6201 108.825)" fill="#061F29"/>
<rect width="117.359" height="1.42254" transform="matrix(1.19249e-08 -1 -1 -1.19249e-08 98.1553 108.825)" fill="#061F29"/>
<rect width="117.359" height="1.42254" transform="matrix(1.19249e-08 -1 -1 -1.19249e-08 83.9297 108.825)" fill="#061F29"/>
<rect width="117.359" height="1.42254" transform="matrix(1.19249e-08 -1 -1 -1.19249e-08 4.26758 108.825)" fill="#061F29"/>
<rect width="117.359" height="1.42254" transform="matrix(1.19249e-08 -1 -1 -1.19249e-08 12.8027 108.825)" fill="#061F29"/>
<rect width="117.359" height="1.42254" transform="matrix(1.19249e-08 -1 -1 -1.19249e-08 24.1836 108.825)" fill="#061F29"/>
<rect width="117.359" height="1.42254" transform="matrix(1.19249e-08 -1 -1 -1.19249e-08 9.95801 108.825)" fill="#061F29"/>
<rect width="117.359" height="1.42254" transform="matrix(1.19249e-08 -1 -1 -1.19249e-08 35.5635 108.825)" fill="#061F29"/>
<rect width="117.359" height="1.42254" transform="matrix(1.19249e-08 -1 -1 -1.19249e-08 41.2539 108.825)" fill="#061F29"/>
<rect width="117.359" height="1.42254" transform="matrix(1.19249e-08 -1 -1 -1.19249e-08 58.3242 108.825)" fill="#061F29"/>
<rect width="117.359" height="1.42254" transform="matrix(1.19249e-08 -1 -1 -1.19249e-08 18.4932 108.825)" fill="#061F29"/>
<rect width="117.359" height="1.42254" transform="matrix(1.19249e-08 -1 -1 -1.19249e-08 44.0986 108.825)" fill="#061F29"/>
<rect width="117.359" height="1.42254" transform="matrix(1.19249e-08 -1 -1 -1.19249e-08 46.9434 108.825)" fill="#061F29"/>
<rect width="117.359" height="1.42254" transform="matrix(1.19249e-08 -1 -1 -1.19249e-08 52.6338 108.825)" fill="#061F29"/>
<rect width="117.359" height="1.42254" transform="matrix(1.19249e-08 -1 -1 -1.19249e-08 49.7891 108.825)" fill="#061F29"/>
<rect width="117.359" height="1.42254" transform="matrix(1.19249e-08 -1 -1 -1.19249e-08 15.6484 108.825)" fill="#061F29"/>
<rect width="117.359" height="1.42254" transform="matrix(1.19249e-08 -1 -1 -1.19249e-08 61.1689 108.825)" fill="#061F29"/>
<rect width="117.359" height="1.42254" transform="matrix(1.19249e-08 -1 -1 -1.19249e-08 38.4082 108.825)" fill="#061F29"/>
<rect width="117.359" height="1.42254" transform="matrix(1.19249e-08 -1 -1 -1.19249e-08 29.873 108.825)" fill="#061F29"/>
<rect width="117.359" height="1.42254" transform="matrix(1.19249e-08 -1 -1 -1.19249e-08 7.1123 108.825)" fill="#061F29"/>
<rect width="117.359" height="1.42254" transform="matrix(1.19249e-08 -1 -1 -1.19249e-08 55.4795 108.825)" fill="#061F29"/>
<rect width="117.359" height="1.42254" transform="matrix(1.19249e-08 -1 -1 -1.19249e-08 21.3379 108.825)" fill="#061F29"/>
<rect width="117.359" height="1.42254" transform="matrix(1.19249e-08 -1 -1 -1.19249e-08 32.7188 108.825)" fill="#061F29"/>
<rect width="117.359" height="1.42254" transform="matrix(1.19249e-08 -1 -1 -1.19249e-08 27.0283 108.825)" fill="#061F29"/>
<rect width="117.359" height="1.42254" transform="matrix(1.19249e-08 -1 -1 -1.19249e-08 1.42188 108.825)" fill="#061F29"/>
</g>
</svg>
