<svg width="52" height="51" viewBox="0 0 52 51" fill="none" xmlns="http://www.w3.org/2000/svg">
<mask id="mask0_1389_11831" style="mask-type:alpha" maskUnits="userSpaceOnUse" x="0" y="-5" width="56" height="56">
<mask id="path-1-inside-1_1389_11831" fill="white">
<path fill-rule="evenodd" clip-rule="evenodd" d="M28.1543 50.0369C28.1273 50.037 28.1004 50.0371 28.0734 50.0371C13.12 50.0371 0.997971 37.915 0.997971 22.9616C0.997971 22.8628 0.998501 22.764 0.999557 22.6654L0.999557 -4.11367L27.9986 -4.11367L28.0734 -4.11377C43.0267 -4.11377 55.1487 8.00824 55.1488 22.9615H55.1504V50.0369L28.1543 50.0369Z"/>
</mask>
<path fill-rule="evenodd" clip-rule="evenodd" d="M28.1543 50.0369C28.1273 50.037 28.1004 50.0371 28.0734 50.0371C13.12 50.0371 0.997971 37.915 0.997971 22.9616C0.997971 22.8628 0.998501 22.764 0.999557 22.6654L0.999557 -4.11367L27.9986 -4.11367L28.0734 -4.11377C43.0267 -4.11377 55.1487 8.00824 55.1488 22.9615H55.1504V50.0369L28.1543 50.0369Z" fill="#D8D8D8"/>
<path d="M28.1543 50.0369L28.1525 49.4369H28.1543V50.0369ZM0.999557 22.6654H1.59959L1.59952 22.6719L0.999557 22.6654ZM0.999557 -4.11367H0.399559V-4.71367H0.999557V-4.11367ZM27.9986 -4.11367L27.9994 -3.51367H27.9986V-4.11367ZM28.0734 -4.11377L28.0726 -4.71377H28.0734V-4.11377ZM55.1488 22.9615V23.5615H54.5488L54.5488 22.9615L55.1488 22.9615ZM55.1504 22.9615V22.3615H55.7504V22.9615H55.1504ZM55.1504 50.0369H55.7504V50.6369H55.1504V50.0369ZM28.0734 49.4371C28.0998 49.4371 28.1262 49.437 28.1525 49.4369L28.1561 50.6369C28.1285 50.637 28.1009 50.6371 28.0734 50.6371V49.4371ZM1.59797 22.9616C1.59797 37.5836 13.4514 49.4371 28.0734 49.4371V50.6371C12.7887 50.6371 0.397972 38.2464 0.397972 22.9616H1.59797ZM1.59952 22.6719C1.59849 22.7683 1.59797 22.8649 1.59797 22.9616H0.397972C0.397972 22.8606 0.398514 22.7598 0.399593 22.659L1.59952 22.6719ZM1.59956 -4.11367L1.59956 22.6654H0.399559L0.399559 -4.11367H1.59956ZM27.9986 -3.51367L0.999557 -3.51367V-4.71367L27.9986 -4.71367V-3.51367ZM28.0742 -3.51377L27.9994 -3.51367L27.9977 -4.71367L28.0726 -4.71377L28.0742 -3.51377ZM54.5488 22.9615C54.5487 8.33961 42.6953 -3.51377 28.0734 -3.51377V-4.71377C43.3581 -4.71377 55.7487 7.67687 55.7488 22.9615L54.5488 22.9615ZM55.1488 22.3615H55.1504V23.5615H55.1488V22.3615ZM55.7504 22.9615V50.0369H54.5504V22.9615H55.7504ZM55.1504 50.6369L28.1543 50.6369V49.4369L55.1504 49.4369V50.6369Z" fill="#979797" mask="url(#path-1-inside-1_1389_11831)"/>
</mask>
<g mask="url(#mask0_1389_11831)">
<rect width="62.9217" height="0.762688" transform="matrix(-1 0 0 1 59.3457 11.1399)" fill="#F39663"/>
<rect width="62.9217" height="0.762688" transform="matrix(-1 0 0 1 59.3457 14.1909)" fill="#F39663"/>
<rect width="62.9217" height="0.762688" transform="matrix(-1 0 0 1 59.3457 8.08911)" fill="#F39663"/>
<rect width="62.9217" height="0.762688" transform="matrix(-1 0 0 1 59.3457 15.7163)" fill="#F39663"/>
<rect width="62.9217" height="0.762688" transform="matrix(-1 0 0 1 59.3457 6.56372)" fill="#F39663"/>
<rect width="62.9217" height="0.762688" transform="matrix(-1 0 0 1 59.3457 9.6145)" fill="#F39663"/>
<rect width="62.9217" height="0.762688" transform="matrix(-1 0 0 1 59.3457 0.462402)" fill="#F39663"/>
<rect width="62.9217" height="0.762688" transform="matrix(-1 0 0 1 59.3457 12.6655)" fill="#F39663"/>
<rect width="62.9217" height="0.762688" transform="matrix(-1 0 0 1 59.3457 3.51318)" fill="#F39663"/>
<rect width="62.9217" height="0.762688" transform="matrix(-1 0 0 1 59.3457 1.98779)" fill="#F39663"/>
<rect width="62.9217" height="0.762688" transform="matrix(-1 0 0 1 59.3457 5.03857)" fill="#F39663"/>
<rect width="62.9217" height="0.762688" transform="matrix(-1 0 0 1 59.3457 47.7488)" fill="#F39663"/>
<rect width="62.9217" height="0.762688" transform="matrix(-1 0 0 1 59.3457 43.1729)" fill="#F39663"/>
<rect width="62.9217" height="0.762688" transform="matrix(-1 0 0 1 59.3457 37.0715)" fill="#F39663"/>
<rect width="62.9217" height="0.762688" transform="matrix(-1 0 0 1 59.3457 44.6982)" fill="#F39663"/>
<rect width="62.9217" height="0.762688" transform="matrix(-1 0 0 1 59.3457 30.9702)" fill="#F39663"/>
<rect width="62.9217" height="0.762688" transform="matrix(-1 0 0 1 59.3457 27.9189)" fill="#F39663"/>
<rect width="62.9217" height="0.762688" transform="matrix(-1 0 0 1 59.3457 18.7671)" fill="#F39663"/>
<rect width="62.9217" height="0.762688" transform="matrix(-1 0 0 1 59.3457 40.1223)" fill="#F39663"/>
<rect width="62.9217" height="0.762688" transform="matrix(-1 0 0 1 59.3457 26.3938)" fill="#F39663"/>
<rect width="62.9217" height="0.762688" transform="matrix(-1 0 0 1 59.3457 24.8684)" fill="#F39663"/>
<rect width="62.9217" height="0.762688" transform="matrix(-1 0 0 1 59.3457 21.8176)" fill="#F39663"/>
<rect width="62.9217" height="0.762688" transform="matrix(-1 0 0 1 59.3457 23.343)" fill="#F39663"/>
<rect width="62.9217" height="0.762688" transform="matrix(-1 0 0 1 59.3457 41.6475)" fill="#F39663"/>
<rect width="62.9217" height="0.762688" transform="matrix(-1 0 0 1 59.3457 17.2417)" fill="#F39663"/>
<rect width="62.9217" height="0.762688" transform="matrix(-1 0 0 1 59.3457 29.4443)" fill="#F39663"/>
<rect width="62.9217" height="0.762688" transform="matrix(-1 0 0 1 59.3457 34.0208)" fill="#F39663"/>
<rect width="62.9217" height="0.762688" transform="matrix(-1 0 0 1 59.3457 46.2236)" fill="#F39663"/>
<rect width="62.9217" height="0.762688" transform="matrix(-1 0 0 1 59.3457 20.2922)" fill="#F39663"/>
<rect width="62.9217" height="0.762688" transform="matrix(-1 0 0 1 59.3457 38.5969)" fill="#F39663"/>
<rect width="62.9217" height="0.762688" transform="matrix(-1 0 0 1 59.3457 32.4951)" fill="#F39663"/>
<rect width="62.9217" height="0.762688" transform="matrix(-1 0 0 1 59.3457 35.5461)" fill="#F39663"/>
<rect width="62.9217" height="0.762688" transform="matrix(-1 0 0 1 59.3457 49.2742)" fill="#F39663"/>
</g>
</svg>
