<svg width="250" height="251" viewBox="0 0 250 251" fill="none" xmlns="http://www.w3.org/2000/svg">
<path fill-rule="evenodd" clip-rule="evenodd" d="M249.799 68.2451C249.799 68.2945 249.799 68.3439 249.798 68.3933C249.799 68.5474 249.8 68.7015 249.8 68.8558C249.8 106.356 219.4 136.756 181.9 136.756H181.9V136.756H114V68.8561H114V68.8558C114 68.6913 114.001 68.5268 114.002 68.3626C114.001 68.2084 114.001 68.0541 114.001 67.8997C114.001 30.3997 144.4 0 181.9 0C181.901 0 181.901 0 181.902 0H249.802V67.8997H249.8C249.8 68.0149 249.8 68.1301 249.799 68.2451Z" fill="#061F29"/>
<mask id="mask0_1363_16993" style="mask-type:alpha" maskUnits="userSpaceOnUse" x="0" y="22" width="114" height="115">
<mask id="path-2-inside-1_1363_16993" fill="white">
<path fill-rule="evenodd" clip-rule="evenodd" d="M57.1028 136.756C57.0458 136.756 56.9887 136.756 56.9316 136.756C25.4888 136.756 -0.000732422 111.266 -0.000732422 79.8235C-0.000732422 79.621 0.000328064 79.4188 0.00243378 79.2168V22.8911H56.9316H56.9348C88.3762 22.8928 113.864 48.3815 113.864 79.8232H113.867V136.756H57.1028Z"/>
</mask>
<path fill-rule="evenodd" clip-rule="evenodd" d="M57.1028 136.756C57.0458 136.756 56.9887 136.756 56.9316 136.756C25.4888 136.756 -0.000732422 111.266 -0.000732422 79.8235C-0.000732422 79.621 0.000328064 79.4188 0.00243378 79.2168V22.8911H56.9316H56.9348C88.3762 22.8928 113.864 48.3815 113.864 79.8232H113.867V136.756H57.1028Z" fill="#D8D8D8"/>
<path d="M57.1028 136.756L57.101 136.156H57.1028V136.756ZM0.00243378 79.2168H0.602463L0.602402 79.223L0.00243378 79.2168ZM0.00243378 22.8911H-0.597565V22.2911H0.00243378V22.8911ZM56.9348 22.8911V22.2911H56.9348L56.9348 22.8911ZM113.864 79.8232V80.4232H113.264L113.264 79.8232L113.864 79.8232ZM113.867 79.8232V79.2232H114.467V79.8232H113.867ZM113.867 136.756H114.467V137.356H113.867V136.756ZM56.9316 136.156C56.9881 136.156 57.0446 136.156 57.101 136.156L57.1046 137.356C57.0469 137.356 56.9893 137.356 56.9316 137.356V136.156ZM0.599266 79.8235C0.599266 110.935 25.8201 136.156 56.9316 136.156V137.356C25.1574 137.356 -0.600731 111.598 -0.600731 79.8235H0.599266ZM0.602402 79.223C0.600319 79.4229 0.599266 79.6231 0.599266 79.8235H-0.600731C-0.600731 79.6189 -0.599663 79.4146 -0.597534 79.2105L0.602402 79.223ZM0.602432 22.8911V79.2168H-0.597565V22.8911H0.602432ZM56.9316 23.4911H0.00243378V22.2911H56.9316V23.4911ZM56.9348 23.4911H56.9316V22.2911H56.9348V23.4911ZM113.264 79.8232C113.264 48.7129 88.0448 23.4928 56.9348 23.4911L56.9348 22.2911C88.7075 22.2928 114.464 48.0502 114.464 79.8232L113.264 79.8232ZM113.864 79.2232H113.867V80.4232H113.864V79.2232ZM114.467 79.8232V136.756H113.267V79.8232H114.467ZM113.867 137.356H57.1028V136.156H113.867V137.356Z" fill="#979797" mask="url(#path-2-inside-1_1363_16993)"/>
</mask>
<g mask="url(#mask0_1363_16993)">
<rect width="132.308" height="1.60373" transform="matrix(-1 0 0 1 122.688 54.9656)" fill="#F39663"/>
<rect width="132.308" height="1.60373" transform="matrix(-1 0 0 1 122.688 61.3806)" fill="#F39663"/>
<rect width="132.308" height="1.60373" transform="matrix(-1 0 0 1 122.688 29.3057)" fill="#F39663"/>
<rect width="132.308" height="1.60373" transform="matrix(-1 0 0 1 122.688 48.5505)" fill="#F39663"/>
<rect width="132.308" height="1.60373" transform="matrix(-1 0 0 1 122.688 64.5881)" fill="#F39663"/>
<rect width="132.308" height="1.60373" transform="matrix(-1 0 0 1 122.688 45.3433)" fill="#F39663"/>
<rect width="132.308" height="1.60373" transform="matrix(-1 0 0 1 122.688 51.7581)" fill="#F39663"/>
<rect width="132.308" height="1.60373" transform="matrix(-1 0 0 1 122.688 32.5137)" fill="#F39663"/>
<rect width="132.308" height="1.60373" transform="matrix(-1 0 0 1 122.688 58.1731)" fill="#F39663"/>
<rect width="132.308" height="1.60373" transform="matrix(-1 0 0 1 122.688 38.9282)" fill="#F39663"/>
<rect width="132.308" height="1.60373" transform="matrix(-1 0 0 1 122.688 22.8911)" fill="#F39663"/>
<rect width="132.308" height="1.60373" transform="matrix(-1 0 0 1 122.688 35.7207)" fill="#F39663"/>
<rect width="132.308" height="1.60373" transform="matrix(-1 0 0 1 122.688 26.0986)" fill="#F39663"/>
<rect width="132.308" height="1.60373" transform="matrix(-1 0 0 1 122.688 42.1357)" fill="#F39663"/>
<rect width="132.308" height="1.60373" transform="matrix(-1 0 0 1 122.688 131.944)" fill="#F39663"/>
<rect width="132.308" height="1.60373" transform="matrix(-1 0 0 1 122.688 122.322)" fill="#F39663"/>
<rect width="132.308" height="1.60373" transform="matrix(-1 0 0 1 122.688 109.492)" fill="#F39663"/>
<rect width="132.308" height="1.60373" transform="matrix(-1 0 0 1 122.688 125.53)" fill="#F39663"/>
<rect width="132.308" height="1.60373" transform="matrix(-1 0 0 1 122.688 96.6626)" fill="#F39663"/>
<rect width="132.308" height="1.60373" transform="matrix(-1 0 0 1 122.688 90.2476)" fill="#F39663"/>
<rect width="132.308" height="1.60373" transform="matrix(-1 0 0 1 122.688 71.0029)" fill="#F39663"/>
<rect width="132.308" height="1.60373" transform="matrix(-1 0 0 1 122.688 115.907)" fill="#F39663"/>
<rect width="132.308" height="1.60373" transform="matrix(-1 0 0 1 122.688 87.04)" fill="#F39663"/>
<rect width="132.308" height="1.60373" transform="matrix(-1 0 0 1 122.688 83.8325)" fill="#F39663"/>
<rect width="132.308" height="1.60373" transform="matrix(-1 0 0 1 122.688 77.418)" fill="#F39663"/>
<rect width="132.308" height="1.60373" transform="matrix(-1 0 0 1 122.688 80.625)" fill="#F39663"/>
<rect width="132.308" height="1.60373" transform="matrix(-1 0 0 1 122.688 119.115)" fill="#F39663"/>
<rect width="132.308" height="1.60373" transform="matrix(-1 0 0 1 122.688 67.7954)" fill="#F39663"/>
<rect width="132.308" height="1.60373" transform="matrix(-1 0 0 1 122.688 93.4551)" fill="#F39663"/>
<rect width="132.308" height="1.60373" transform="matrix(-1 0 0 1 122.688 103.077)" fill="#F39663"/>
<rect width="132.308" height="1.60373" transform="matrix(-1 0 0 1 122.688 128.737)" fill="#F39663"/>
<rect width="132.308" height="1.60373" transform="matrix(-1 0 0 1 122.688 74.2104)" fill="#F39663"/>
<rect width="132.308" height="1.60373" transform="matrix(-1 0 0 1 122.688 112.7)" fill="#F39663"/>
<rect width="132.308" height="1.60373" transform="matrix(-1 0 0 1 122.688 99.8699)" fill="#F39663"/>
<rect width="132.308" height="1.60373" transform="matrix(-1 0 0 1 122.688 106.285)" fill="#F39663"/>
<rect width="132.308" height="1.60373" transform="matrix(-1 0 0 1 122.688 135.152)" fill="#F39663"/>
</g>
<path fill-rule="evenodd" clip-rule="evenodd" d="M113.865 193.395C113.864 193.493 113.864 193.59 113.864 193.688C113.864 225.131 139.353 250.621 170.796 250.621C202.239 250.621 227.729 225.131 227.729 193.688C227.729 162.245 202.239 136.756 170.796 136.756C170.739 136.756 170.682 136.756 170.625 136.756H113.865V193.395Z" fill="white"/>
</svg>
